<?xml version="1.0" encoding="UTF-8" standalone="no"?>
<svg
   id="_2022_logo_-_lt_theme"
   data-name="2022 logo - lt theme"
   width="50mm"
   height="50mm"
   viewBox="0 0 188.97638 188.97638"
   version="1.1"
   sodipodi:docname="keysight.svg"
   inkscape:version="1.2.1 (9c6d41e410, 2022-07-14, custom)"
   xmlns:inkscape="http://www.inkscape.org/namespaces/inkscape"
   xmlns:sodipodi="http://sodipodi.sourceforge.net/DTD/sodipodi-0.dtd"
   xmlns="http://www.w3.org/2000/svg"
   xmlns:svg="http://www.w3.org/2000/svg">
  <sodipodi:namedview
     id="namedview26"
     pagecolor="#ffffff"
     bordercolor="#000000"
     borderopacity="0.25"
     inkscape:showpageshadow="2"
     inkscape:pageopacity="0.0"
     inkscape:pagecheckerboard="0"
     inkscape:deskcolor="#d1d1d1"
     showgrid="false"
     inkscape:zoom="3.822934"
     inkscape:cx="5.6239527"
     inkscape:cy="94.16851"
     inkscape:window-width="3840"
     inkscape:window-height="2119"
     inkscape:window-x="3840"
     inkscape:window-y="0"
     inkscape:window-maximized="1"
     inkscape:current-layer="_2022_logo_-_lt_theme"
     inkscape:document-units="mm" />
  <defs
     id="defs4">
    <style
       id="style2">.cls-1{fill:#e90029;}</style>
  </defs>
  <path
     id="path6"
     class="cls-1"
     d="m 115.37326,20.236904 -1.02183,0.12483 -1.66334,0.364912 -1.25397,0.590626 -1.19684,0.80197 -1.14117,0.998947 -1.08695,1.181554 -1.0342,1.349794 -0.98289,1.503664 -0.93305,1.643167 -0.88467,1.768301 -0.83774,1.879066 -0.79227,1.975463 -0.74826,2.05749 -0.7057,2.125152 -0.66461,2.178444 -0.624967,2.217367 -0.586789,2.24192 -0.550064,2.252107 -0.514798,2.247924 -0.480991,2.229374 -0.448641,2.196454 -0.417748,2.149165 -0.388314,2.08751 -0.360337,2.011485 -0.333817,1.921091 -0.308756,1.81633 -0.285151,1.697199 -0.263005,1.563701 -0.242317,1.415833 -0.223085,1.253598 -0.205313,1.076993 -0.188997,0.886021 -0.230101,0.968 -0.249726,0.976766 -0.269032,0.982942 -0.28802,0.986528 -0.306688,0.987524 -0.325038,0.985929 -0.343068,0.981744 -0.360779,0.974969 -0.378172,0.965605 -0.395246,0.95365 -0.412,0.939104 -0.428436,0.92197 -0.444552,0.902244 -0.46035,0.879928 -0.475828,0.855022 -0.490988,0.827527 -0.505829,0.797441 -0.52035,0.764764 -0.534553,0.729498 -0.548437,0.691642 -0.562001,0.651195 -0.575248,0.608158 -0.588174,0.562531 -0.600781,0.514314 -0.613071,0.463507 -0.62504,0.41011 -0.636692,0.354122 -0.648023,0.295544 -0.659036,0.234377 -0.669729,0.170618 -0.680105,0.104271 -0.690161,0.03533 -0.684642,-0.02474 -0.664008,-0.07327 L 76.495034,94.302871 75.87119,94.136864 75.266875,93.92664 74.68172,93.673637 74.115359,93.379289 73.567422,93.045033 73.037542,92.672305 72.52535,92.262542 72.030478,91.817178 71.552557,91.337651 71.09122,90.825396 70.646098,90.281851 70.216822,89.708449 69.803026,89.106629 69.40434,88.477826 69.020397,87.823476 68.650827,87.145015 68.295263,86.443879 67.953337,85.721505 67.62468,84.979329 67.308924,84.218786 67.005701,83.441313 66.714642,82.648346 66.43538,81.841321 66.167546,81.021674 65.910772,80.190842 65.66469,79.35026 65.428931,78.501365 65.203127,77.645592 64.98691,76.784378 64.665927,75.4706 64.341269,74.122938 64.011929,72.746349 63.676903,71.345791 63.335185,69.926221 62.985771,68.492595 62.627654,67.049872 62.259831,65.603008 61.881296,64.156961 61.491043,62.716688 61.088068,61.287146 60.671366,59.873292 60.239931,58.480083 59.792758,57.112478 59.328843,55.775433 58.847179,54.473905 58.346762,53.212851 57.826587,51.997229 57.285648,50.831997 56.722941,49.72211 56.13746,48.672526 55.5282,47.688203 54.894157,46.774099 54.234324,45.935169 53.547697,45.176371 52.833271,44.502664 52.09004,43.919003 51.316999,43.430346 50.513144,43.04165 l -0.835676,-0.283777 -0.8685,-0.173902 -0.90233,-0.05907 -0.900516,0.04866 -0.863327,0.144126 -0.827547,0.236839 -0.793175,0.326794 -0.760213,0.413991 -0.72866,0.49843 -0.698515,0.580111 -0.66978,0.659034 -0.642454,0.735199 -0.616536,0.808606 -0.592027,0.879255 -0.568927,0.947146 -0.547237,1.012279 -0.526955,1.074654 -0.508083,1.13427 -0.490618,1.191129 -0.474564,1.245231 -0.459918,1.296573 -0.446681,1.345158 -0.434853,1.390985 -0.424434,1.434054 -0.415423,1.474365 -0.407823,1.511917 -0.40163,1.546713 -0.396847,1.578749 -0.393473,1.608028 -0.391507,1.634548 -0.390951,1.658312 -0.391803,1.679316 -0.394066,1.697563 -0.397735,1.713051 -0.402815,1.725783 -0.245482,1.000236 -0.253198,0.971456 -0.261343,0.942481 -0.269919,0.913311 -0.278924,0.883946 -0.288361,0.854386 -0.298226,0.824631 -0.308522,0.794681 -0.319248,0.764536 -0.330403,0.734196 -0.34199,0.703661 -0.354005,0.672931 -0.366452,0.642006 -0.379327,0.610887 -0.392633,0.579571 -0.40637,0.548061 -0.420535,0.516356 -0.435132,0.484456 -0.450158,0.452361 -0.465613,0.420071 -0.4815,0.387586 -0.497816,0.354906 -0.514563,0.32203 -0.531739,0.288961 -0.549346,0.255696 -0.567381,0.222235 -0.585848,0.188581 -0.604745,0.15473 -0.624071,0.120685 -0.643827,0.08645 -0.664014,0.05201 -0.68463,0.01738 H 16.24428 15.756337 15.268393 14.78045 14.292507 13.804563 13.31662 12.828676 12.340733 11.85279 11.364846 10.876903 10.388959 9.901016 9.4130724 8.9251289 8.4371855 7.9492421 7.4612986 6.9733552 6.4854117 5.9974683 5.5095248 5.0215814 4.533638 4.0456946 3.5577511 3.0698077 2.5818643 2.0939208 1.6059773 1.1180339 l 0.3746251,0.194974 0.3667732,0.205978 0.3587476,0.216731 0.3505483,0.227233 0.3421752,0.237484 0.333628,0.247484 0.3249071,0.257233 0.3160125,0.266729 0.3069442,0.275975 0.2977019,0.284971 0.288286,0.293714 0.2786961,0.302206 0.2689326,0.310448 0.2589951,0.318438 0.248884,0.326177 0.2385989,0.333664 0.2281403,0.340901 0.2175075,0.347886 0.206701,0.35462 0.1957208,0.361101 0.184569,0.36734 0.1732388,0.37332 0.1617363,0.37905 0.1500614,0.38452 0.1382115,0.38975 0.12619,0.39472 0.1139938,0.39945 0.1016229,0.40393 0.089078,0.40815 0.07636,0.41212 0.063468,0.41583 0.050402,0.41931 0.227309,1.42929 0.2248023,1.39483 0.2230564,1.35965 0.2220712,1.32375 0.2218475,1.28714 0.2223831,1.24982 0.2236799,1.21177 0.2257379,1.17301 0.228557,1.13355 0.232136,1.09335 0.236475,1.05245 0.241576,1.01083 0.247438,0.9685 0.25406,0.92544 0.261443,0.88168 0.269587,0.8372 0.278492,0.79201 0.288156,0.74609 0.298582,0.69946 0.309768,0.65212 0.321718,0.60406 0.334423,0.55529 0.347892,0.5058 0.362122,0.4556 0.377111,0.40468 0.392863,0.35304 0.409377,0.30068 0.426648,0.24762 0.444683,0.19384 0.463475,0.13934 0.483029,0.0841 0.503344,0.0282 0.503524,-0.0231 0.483644,-0.069 0.46464,-0.11431 0.446511,-0.15914 0.429258,-0.20344 0.412879,-0.24721 0.397378,-0.29047 0.382752,-0.33322 0.368999,-0.37543 0.356126,-0.41712 0.344128,-0.45829 0.333003,-0.49895 0.322752,-0.53908 0.313382,-0.57869 0.304886,-0.61777 0.297264,-0.65635 0.290516,-0.69439 0.284648,-0.73191 0.279654,-0.76892 0.275535,-0.8054 0.272291,-0.84136 0.269923,-0.8768 0.268431,-0.91172 0.267815,-0.94612 0.268074,-0.97999 0.269209,-1.01335 0.271219,-1.04619 0.274105,-1.07849 0.277867,-1.11028 0.282505,-1.14156 0.288017,-1.17231 0.294406,-1.20253 0.220298,-0.92527 0.229065,-0.89357 0.237678,-0.86203 0.24614,-0.83063 0.254449,-0.7994 0.262604,-0.76831 0.270607,-0.73738 0.278457,-0.7066 0.286153,-0.67596 0.2937,-0.64549 0.301093,-0.61516 0.308331,-0.58499 0.315417,-0.554969 0.322353,-0.5251 0.329134,-0.495384 0.335762,-0.465821 0.342238,-0.436409 0.348561,-0.40715 0.354732,-0.378043 0.360749,-0.349089 0.366615,-0.320286 0.372327,-0.291637 0.377886,-0.263138 0.383294,-0.234794 0.388548,-0.2066 0.393649,-0.17856 0.398598,-0.15067 0.403394,-0.122935 0.408038,-0.09535 0.412528,-0.06792 0.416867,-0.04064 0.421051,-0.01351 0.62384,0.02358 0.602779,0.07067 0.582529,0.117675 0.56309,0.164588 0.544461,0.211411 0.526641,0.258142 0.509633,0.304785 0.493436,0.351335 0.478048,0.397796 0.46347,0.444165 0.449703,0.490445 0.436747,0.536634 0.424601,0.582732 0.413266,0.62874 0.40274,0.674656 0.393026,0.720484 0.384122,0.76622 0.376027,0.81186 0.368744,0.85742 0.36227,0.90289 0.356608,0.94826 0.351755,0.99354 0.347713,1.03874 0.344482,1.08384 0.342059,1.12885 0.34045,1.17377 0.33965,1.2186 0.33966,1.26334 0.34048,1.30799 0.342111,1.35255 0.344551,1.39702 0.347804,1.4414 0.661843,2.84672 0.631826,2.75507 0.60469,2.66349 0.580439,2.572 0.559069,2.4806 0.540582,2.38927 0.524978,2.29805 0.512255,2.20688 0.502418,2.11582 0.49546,2.02484 0.491386,1.93395 0.490195,1.84312 0.491887,1.7524 0.49646,1.66174 0.503916,1.57119 0.514255,1.48071 0.527477,1.39032 0.543582,1.30001 0.562569,1.20978 0.584438,1.11965 0.609188,1.02959 0.636825,0.93961 0.667343,0.84973 0.700742,0.75993 0.737022,0.67021 0.77619,0.58057 0.818238,0.49102 0.863168,0.40156 0.910979,0.31218 0.961676,0.22287 1.015254,0.13367 1.071715,0.0445 1.072109,-0.0439 1.016467,-0.13179 0.963752,-0.21991 0.913962,-0.30823 0.867101,-0.39677 0.823166,-0.48553 0.782158,-0.57448 0.744077,-0.66365 0.708924,-0.75303 0.676697,-0.84263 0.647397,-0.93242 0.621025,-1.02244 0.597581,-1.11267 0.57706,-1.2031 0.559468,-1.29375 0.544804,-1.38461 0.533065,-1.47567 0.524256,-1.56695 0.518374,-1.65844 0.515416,-1.75014 0.515386,-1.84205 0.518284,-1.93417 0.524108,-2.02651 0.532859,-2.11904 0.544539,-2.2118 0.559143,-2.30477 0.576675,-2.39794 0.597135,-2.49133 0.620522,-2.58492 0.646835,-2.67873 0.676076,-2.77275 0.708243,-2.86698 0.324139,-1.24287 0.341836,-1.22369 0.359144,-1.20319 0.376065,-1.18135 0.392597,-1.15819 0.40874,-1.13369 0.424496,-1.10787 0.439864,-1.08072 0.454842,-1.05223 0.469433,-1.02242 0.483634,-0.99127 0.497449,-0.95879 0.510876,-0.92499 0.52391,-0.88985 0.53656,-0.85339 0.54882,-0.8156 0.56069,-0.77647 0.57218,-0.736013 0.58328,-0.694225 0.59398,-0.651111 0.6043,-0.606669 0.61424,-0.560891 0.62377,-0.513785 0.63293,-0.465349 0.6417,-0.415586 0.65007,-0.364488 0.65806,-0.312061 0.66567,-0.258306 0.67288,-0.20322 0.6797,-0.146804 0.68614,-0.08906 0.69219,-0.02998 0.68873,0.02838 0.67598,0.0837 0.66316,0.136866 0.6503,0.187886 0.63737,0.236756 0.62439,0.283476 0.61135,0.328047 0.59824,0.370466 0.58509,0.410736 0.57186,0.448857 0.55859,0.484826 0.54526,0.518647 0.53187,0.550319 0.51841,0.579838 0.50491,0.607207 0.49133,0.632427 0.47771,0.6555 0.46402,0.67642 0.45028,0.69519 0.43648,0.71181 0.42262,0.72628 0.4087,0.7386 0.39473,0.74878 0.38069,0.75679 0.3666,0.76266 0.35244,0.76638 0.33823,0.76796 0.32396,0.76738 0.30964,0.76465 0.29525,0.75976 0.28081,0.75274 0.26631,0.74356 0.53515,1.57053 0.51831,1.50872 0.50273,1.44767 0.4884,1.38741 0.47531,1.32794 0.46347,1.26925 0.45289,1.21136 0.44354,1.15423 0.43545,1.0979 0.42859,1.04236 0.423,0.98759 0.41865,0.93362 0.41555,0.88042 0.41368,0.82801 0.41308,0.7764 0.41373,0.72555 0.41561,0.6755 0.41875,0.62623 0.42313,0.57775 0.42877,0.53005 0.43565,0.48313 0.44377,0.43701 0.45316,0.39166 0.46377,0.3471 0.47565,0.30333 0.48877,0.26034 0.50314,0.21813 0.51876,0.17671 0.53562,0.13608 0.55373,0.0962 0.57309,0.0572 0.5937,0.0189 0.59646,-0.0226 0.58114,-0.0683 0.56666,-0.1146 0.55306,-0.1615 0.5403,-0.209 0.52841,-0.2571 0.51738,-0.30582 0.50721,-0.35514 0.4979,-0.40506 0.48945,-0.45559 0.48186,-0.50673 0.47513,-0.55848 0.46926,-0.61083 0.46425,-0.66378 0.46011,-0.71734 0.45681,-0.77151 0.45439,-0.82629 0.45282,-0.88167 0.45211,-0.93766 0.45226,-0.99425 0.45327,-1.05145 0.45515,-1.10927 0.45788,-1.16767 0.46148,-1.22669 0.46593,-1.28632 0.47124,-1.34655 0.47741,-1.40739 0.48445,-1.46884 0.49234,-1.53089 0.5011,-1.59354 0.5107,-1.65681 0.52119,-1.72068 0.32431,-1.05531 0.30964,-1.00789 0.29728,-0.9614 0.28726,-0.9158 0.27956,-0.87112 0.27419,-0.82736 0.27116,-0.78451 0.27044,-0.74257 0.27206,-0.70154 0.27599,-0.66142 0.28227,-0.62222 0.29087,-0.583935 0.30179,-0.546552 0.31505,-0.510087 0.33062,-0.474533 0.34854,-0.439892 0.36877,-0.406163 0.39135,-0.373347 0.41623,-0.341443 0.44345,-0.310451 0.473,-0.280372 0.50488,-0.251205 0.53908,-0.22295 0.57562,-0.195609 0.61447,-0.169178 0.65566,-0.143661 0.69918,-0.119057 0.74502,-0.09536 0.79319,-0.07258 0.84368,-0.05072 0.89652,-0.02976 0.95167,-0.0097 h 0.48204 0.48204 0.48204 0.48204 0.48204 0.48204 0.48205 0.48204 0.48204 0.48204 0.48204 0.48204 0.48204 0.48204 0.48204 0.48204 0.48204 0.48204 0.48205 0.48204 0.48204 0.48204 0.48204 0.48204 0.48204 0.48204 0.48205 0.48204 0.48204 0.48204 0.48204 0.48204 l -0.13886,-0.0054 -0.14858,-0.01685 -0.15779,-0.02918 -0.1665,-0.04242 -0.1747,-0.05655 -0.18241,-0.07159 -0.1896,-0.08753 -0.19629,-0.104375 -0.20248,-0.122122 -0.20817,-0.140766 -0.21335,-0.160313 -0.21803,-0.180764 -0.2222,-0.202116 -0.22588,-0.224371 -0.22904,-0.247526 -0.2317,-0.271583 -0.23386,-0.29654 -0.23551,-0.322404 -0.23667,-0.349168 -0.23731,-0.376832 -0.23746,-0.405396 -0.23709,-0.434867 -0.23623,-0.465237 -0.23486,-0.49651 -0.23299,-0.528685 -0.23062,-0.561758 -0.22773,-0.595736 -0.22435,-0.630615 -0.22046,-0.666399 -0.21608,-0.70308 -0.21118,-0.740665 -0.20578,-0.779152 -0.3233,-1.287899 -0.31436,-1.272227 -0.30651,-1.254902 -0.29973,-1.235924 -0.29402,-1.215291 -0.28938,-1.193005 -0.28581,-1.169066 -0.28331,-1.143473 -0.28189,-1.116228 -0.28154,-1.087327 -0.28226,-1.056773 -0.28405,-1.024566 -0.28691,-0.990706 -0.29085,-0.955192 -0.29585,-0.918025 -0.30194,-0.879204 -0.30909,-0.838729 -0.3173,-0.796601 -0.3266,-0.75282 -0.33697,-0.707385 -0.3484,-0.660295 -0.36092,-0.611554 -0.37449,-0.561159 -0.38915,-0.50911 -0.40487,-0.455407 -0.42167,-0.400051 -0.43954,-0.343041 -0.45848,-0.284377 -0.47849,-0.224061 -0.49958,-0.162091 -0.52172,-0.09847 -0.54496,-0.03319 -0.54815,0.03371 -0.53106,0.09997 -0.51466,0.164481 -0.49894,0.227247 -0.48392,0.288268 -0.46958,0.347541 -0.45594,0.40507 -0.44298,0.460853 -0.43072,0.514892 -0.41915,0.56718 -0.40826,0.617724 -0.39807,0.666524 -0.38856,0.713576 -0.37975,0.758885 -0.37162,0.802448 -0.36418,0.844263 -0.35744,0.884331 -0.35138,0.922656 -0.34601,0.959235 -0.34134,0.994067 -0.33735,1.027152 -0.33406,1.058493 -0.33145,1.088087 -0.32954,1.115936 -0.32831,1.142037 -0.32777,1.166396 -0.32792,1.189006 -0.32876,1.209872 -0.3303,1.228991 -0.33252,1.246364 -0.33543,1.261991 -0.33903,1.275873 -0.19486,0.738636 -0.19617,0.705292 -0.19768,0.672598 -0.19938,0.640553 -0.20129,0.609157 -0.2034,0.578409 -0.20571,0.548308 -0.20822,0.518859 -0.21093,0.490059 -0.21384,0.461906 -0.21695,0.434403 -0.22027,0.407548 -0.22378,0.381343 -0.2275,0.355785 -0.23141,0.330878 -0.23553,0.306619 -0.23984,0.283009 -0.24437,0.260048 -0.24908,0.237735 -0.254,0.216072 -0.25912,0.195057 -0.26445,0.174691 -0.26996,0.154975 -0.27569,0.135907 -0.28161,0.117488 -0.28774,0.09972 -0.29406,0.08259 -0.30058,0.06612 -0.30732,0.0503 -0.31424,0.03512 -0.32137,0.0206 -0.3287,0.0067 -0.33155,-0.0053 -0.33008,-0.01797 -0.329,-0.03395 -0.32836,-0.0532 -0.32812,-0.07573 -0.32829,-0.101525 -0.32887,-0.130594 -0.32988,-0.162936 -0.33129,-0.198549 -0.33313,-0.237436 -0.33536,-0.279593 -0.33802,-0.325023 -0.34108,-0.373725 -0.34457,-0.4257 -0.34847,-0.480947 -0.35277,-0.539465 -0.35749,-0.601256 -0.36263,-0.66632 -0.36818,-0.734655 -0.37414,-0.806263 -0.38052,-0.881142 -0.3873,-0.959295 -0.39451,-1.040718 -0.40212,-1.125416 -0.41015,-1.213385 -0.4186,-1.304624 -0.42746,-1.399137 -0.43672,-1.496923 -0.44641,-1.59798 -0.4565,-1.70231 -0.46702,-1.809911 -0.47793,-1.920786 -0.42727,-1.768768 -0.42003,-1.846621 -0.41529,-1.915687 -0.41306,-1.975964 -0.41334,-2.027455 -0.41612,-2.070155 -0.42142,-2.104068 -0.42921,-2.129194 -0.43951,-2.145532 -0.45232,-2.153082 -0.46764,-2.151843 -0.48546,-2.141817 -0.50579,-2.123003 -0.52863,-2.0954 -0.55397,-2.059011 -0.58181,-2.013832 -0.61217,-1.959868 -0.64504,-1.897112 -0.68041,-1.82557 -0.71828,-1.745241 -0.75866,-1.656125 -0.80156,-1.558217 -0.84695,-1.451522 -0.89485,-1.336042 -0.94526,-1.211772 -0.99817,-1.078715 -1.05359,-0.936868 -1.11153,-0.786236 -1.17196,-0.626812 -1.2349,-0.458605 -1.65113,-0.281608 -1.01752,-0.09582 v 0 1e-6 0 z"
     style="fill:#e90029;fill-opacity:1;stroke:none;stroke-width:0.5;stroke-dasharray:none;stroke-opacity:1"
     sodipodi:nodetypes="ccccccccccccccccccccccccccccccccccccccccccccccccccccccccccccccccccccccccccccccccccccccccccccccccccccccccccccccccccccccccccccccccccccccccccccccccccccccccccccccccccccccccccccccccccccccccccccccccccccccccccccccccccccccccccccccccccccccccccccccccccccccccccccccccccccccccccccccccccccccccccccccccccccccccccccccccccccccccccccccccccccccccccccccccccccccccccccccccccccccccccccccccccccccccccccccccccccccccccccccccccccccccccccccccccccccccccccccccccccccccccccccccccccccccccccccccccccccccccccccccccccccccccccccccccccccccccccccccccccccccccccccccccccccccccccccccccccccccccccccccccccccccccccccccccccccccccccccccccccccccccccccccccccccccccccccccccccccccccccccccccccccccccccccccccccccccccccccccccccccccccccccccccccccccccccccccccccccccccccccccccccccccccccccccccccccccccccccccccccccccccccccccccccccccccccccccccccccccccccccccccccccccccccccccccccccccccccccccccccc" />
</svg>
