999
"DXF R12 Output" (www.mydxf.blogspot.com)
 0 
SECTION
 2 
HEADER
 9 
$ACADVER
 1 
AC1009
 9 
$EXTMIN
 10 
 0 
 20 
 0 
 9 
$EXTMAX
 10 
 8.5 
 20 
 11 
 0 
ENDSEC
 0 
SECTION
 2 
ENTITIES
0
LINE
8
Layer 1
10
30.525800
20
44.645700
11
30.255441
21
44.612672
0
LINE
8
Layer 1
10
30.255441
20
44.612672
11
29.815350
21
44.516123
0
LINE
8
Layer 1
10
29.815350
20
44.516123
11
29.483571
21
44.359853
0
LINE
8
Layer 1
10
29.483571
20
44.359853
11
29.166907
21
44.147665
0
LINE
8
Layer 1
10
29.166907
20
44.147665
11
28.864973
21
43.883361
0
LINE
8
Layer 1
10
28.864973
20
43.883361
11
28.577385
21
43.570742
0
LINE
8
Layer 1
10
28.577385
20
43.570742
11
28.303753
21
43.213609
0
LINE
8
Layer 1
10
28.303753
20
43.213609
11
28.043697
21
42.815765
0
LINE
8
Layer 1
10
28.043697
20
42.815765
11
27.796828
21
42.381011
0
LINE
8
Layer 1
10
27.796828
20
42.381011
11
27.562759
21
41.913149
0
LINE
8
Layer 1
10
27.562759
20
41.913149
11
27.341107
21
41.415980
0
LINE
8
Layer 1
10
27.341107
20
41.415980
11
27.131486
21
40.893306
0
LINE
8
Layer 1
10
27.131486
20
40.893306
11
26.933509
21
40.348929
0
LINE
8
Layer 1
10
26.933509
20
40.348929
11
26.746793
21
39.786650
0
LINE
8
Layer 1
10
26.746793
20
39.786650
11
26.570948
21
39.210271
0
LINE
8
Layer 1
10
26.570948
20
39.210271
11
26.405592
21
38.623593
0
LINE
8
Layer 1
10
26.405592
20
38.623593
11
26.250338
21
38.030419
0
LINE
8
Layer 1
10
26.250338
20
38.030419
11
26.104800
21
37.434550
0
LINE
8
Layer 1
10
26.104800
20
37.434550
11
25.968593
21
36.839788
0
LINE
8
Layer 1
10
25.968593
20
36.839788
11
25.841331
21
36.249934
0
LINE
8
Layer 1
10
25.841331
20
36.249934
11
25.722628
21
35.668790
0
LINE
8
Layer 1
10
25.722628
20
35.668790
11
25.612099
21
35.100157
0
LINE
8
Layer 1
10
25.612099
20
35.100157
11
25.509358
21
34.547837
0
LINE
8
Layer 1
10
25.509358
20
34.547837
11
25.414019
21
34.015632
0
LINE
8
Layer 1
10
25.414019
20
34.015632
11
25.325697
21
33.507344
0
LINE
8
Layer 1
10
25.325697
20
33.507344
11
25.244005
21
33.026774
0
LINE
8
Layer 1
10
25.244005
20
33.026774
11
25.168559
21
32.577724
0
LINE
8
Layer 1
10
25.168559
20
32.577724
11
25.098972
21
32.163995
0
LINE
8
Layer 1
10
25.098972
20
32.163995
11
25.034859
21
31.789390
0
LINE
8
Layer 1
10
25.034859
20
31.789390
11
24.975835
21
31.457709
0
LINE
8
Layer 1
10
24.975835
20
31.457709
11
24.921513
21
31.172755
0
LINE
8
Layer 1
10
24.921513
20
31.172755
11
24.871507
21
30.938329
0
LINE
8
Layer 1
10
24.871507
20
30.938329
11
24.810626
21
30.682213
0
LINE
8
Layer 1
10
24.810626
20
30.682213
11
24.744553
21
30.423777
0
LINE
8
Layer 1
10
24.744553
20
30.423777
11
24.673372
21
30.163707
0
LINE
8
Layer 1
10
24.673372
20
30.163707
11
24.597167
21
29.902688
0
LINE
8
Layer 1
10
24.597167
20
29.902688
11
24.516022
21
29.641406
0
LINE
8
Layer 1
10
24.516022
20
29.641406
11
24.430023
21
29.380546
0
LINE
8
Layer 1
10
24.430023
20
29.380546
11
24.339253
21
29.120793
0
LINE
8
Layer 1
10
24.339253
20
29.120793
11
24.243797
21
28.862833
0
LINE
8
Layer 1
10
24.243797
20
28.862833
11
24.143739
21
28.607350
0
LINE
8
Layer 1
10
24.143739
20
28.607350
11
24.039164
21
28.355030
0
LINE
8
Layer 1
10
24.039164
20
28.355030
11
23.930156
21
28.106559
0
LINE
8
Layer 1
10
23.930156
20
28.106559
11
23.816799
21
27.862621
0
LINE
8
Layer 1
10
23.816799
20
27.862621
11
23.699178
21
27.623903
0
LINE
8
Layer 1
10
23.699178
20
27.623903
11
23.577377
21
27.391089
0
LINE
8
Layer 1
10
23.577377
20
27.391089
11
23.451481
21
27.164865
0
LINE
8
Layer 1
10
23.451481
20
27.164865
11
23.321574
21
26.945915
0
LINE
8
Layer 1
10
23.321574
20
26.945915
11
23.187740
21
26.734926
0
LINE
8
Layer 1
10
23.187740
20
26.734926
11
23.050064
21
26.532582
0
LINE
8
Layer 1
10
23.050064
20
26.532582
11
22.908630
21
26.339569
0
LINE
8
Layer 1
10
22.908630
20
26.339569
11
22.763523
21
26.156572
0
LINE
8
Layer 1
10
22.763523
20
26.156572
11
22.614827
21
25.984277
0
LINE
8
Layer 1
10
22.614827
20
25.984277
11
22.462626
21
25.823369
0
LINE
8
Layer 1
10
22.462626
20
25.823369
11
22.307005
21
25.674533
0
LINE
8
Layer 1
10
22.307005
20
25.674533
11
22.148049
21
25.538454
0
LINE
8
Layer 1
10
22.148049
20
25.538454
11
21.985841
21
25.415818
0
LINE
8
Layer 1
10
21.985841
20
25.415818
11
21.820466
21
25.307310
0
LINE
8
Layer 1
10
21.820466
20
25.307310
11
21.652008
21
25.213615
0
LINE
8
Layer 1
10
21.652008
20
25.213615
11
21.480552
21
25.135419
0
LINE
8
Layer 1
10
21.480552
20
25.135419
11
21.306182
21
25.073407
0
LINE
8
Layer 1
10
21.306182
20
25.073407
11
21.128983
21
25.028264
0
LINE
8
Layer 1
10
21.128983
20
25.028264
11
20.949039
21
25.000676
0
LINE
8
Layer 1
10
20.949039
20
25.000676
11
20.766434
21
24.991328
0
LINE
8
Layer 1
10
20.766434
20
24.991328
11
20.585289
21
24.997874
0
LINE
8
Layer 1
10
20.585289
20
24.997874
11
20.409604
21
25.017260
0
LINE
8
Layer 1
10
20.409604
20
25.017260
11
20.239300
21
25.049100
0
LINE
8
Layer 1
10
20.239300
20
25.049100
11
20.074200
21
25.093000
0
LINE
8
Layer 1
10
20.074200
20
25.093000
11
19.914300
21
25.148600
0
LINE
8
Layer 1
10
19.914300
20
25.148600
11
19.759500
21
25.215500
0
LINE
8
Layer 1
10
19.759500
20
25.215500
11
19.609700
21
25.293400
0
LINE
8
Layer 1
10
19.609700
20
25.293400
11
19.464700
21
25.381900
0
LINE
8
Layer 1
10
19.464700
20
25.381900
11
19.324500
21
25.480500
0
LINE
8
Layer 1
10
19.324500
20
25.480500
11
19.189000
21
25.588900
0
LINE
8
Layer 1
10
19.189000
20
25.588900
11
19.058000
21
25.706700
0
LINE
8
Layer 1
10
19.058000
20
25.706700
11
18.931600
21
25.833600
0
LINE
8
Layer 1
10
18.931600
20
25.833600
11
18.809500
21
25.969100
0
LINE
8
Layer 1
10
18.809500
20
25.969100
11
18.691800
21
26.113000
0
LINE
8
Layer 1
10
18.691800
20
26.113000
11
18.578200
21
26.264700
0
LINE
8
Layer 1
10
18.578200
20
26.264700
11
18.468700
21
26.423900
0
LINE
8
Layer 1
10
18.468700
20
26.423900
11
18.363200
21
26.590300
0
LINE
8
Layer 1
10
18.363200
20
26.590300
11
18.261600
21
26.763400
0
LINE
8
Layer 1
10
18.261600
20
26.763400
11
18.163800
21
26.942900
0
LINE
8
Layer 1
10
18.163800
20
26.942900
11
18.069800
21
27.128400
0
LINE
8
Layer 1
10
18.069800
20
27.128400
11
17.979300
21
27.319500
0
LINE
8
Layer 1
10
17.979300
20
27.319500
11
17.892300
21
27.515900
0
LINE
8
Layer 1
10
17.892300
20
27.515900
11
17.808800
21
27.717100
0
LINE
8
Layer 1
10
17.808800
20
27.717100
11
17.728600
21
27.922800
0
LINE
8
Layer 1
10
17.728600
20
27.922800
11
17.651600
21
28.132700
0
LINE
8
Layer 1
10
17.651600
20
28.132700
11
17.577700
21
28.346200
0
LINE
8
Layer 1
10
17.577700
20
28.346200
11
17.506800
21
28.563000
0
LINE
8
Layer 1
10
17.506800
20
28.563000
11
17.438900
21
28.782900
0
LINE
8
Layer 1
10
17.438900
20
28.782900
11
17.373800
21
29.005300
0
LINE
8
Layer 1
10
17.373800
20
29.005300
11
17.311400
21
29.229900
0
LINE
8
Layer 1
10
17.311400
20
29.229900
11
17.251600
21
29.456300
0
LINE
8
Layer 1
10
17.251600
20
29.456300
11
17.194400
21
29.684200
0
LINE
8
Layer 1
10
17.194400
20
29.684200
11
17.109500
21
30.031800
0
LINE
8
Layer 1
10
17.109500
20
30.031800
11
17.023600
21
30.388300
0
LINE
8
Layer 1
10
17.023600
20
30.388300
11
16.936500
21
30.752600
0
LINE
8
Layer 1
10
16.936500
20
30.752600
11
16.847800
21
31.123100
0
LINE
8
Layer 1
10
16.847800
20
31.123100
11
16.757400
21
31.498700
0
LINE
8
Layer 1
10
16.757400
20
31.498700
11
16.665000
21
31.878000
0
LINE
8
Layer 1
10
16.665000
20
31.878000
11
16.570200
21
32.259700
0
LINE
8
Layer 1
10
16.570200
20
32.259700
11
16.472900
21
32.642600
0
LINE
8
Layer 1
10
16.472900
20
32.642600
11
16.372700
21
33.025200
0
LINE
8
Layer 1
10
16.372700
20
33.025200
11
16.269500
21
33.406200
0
LINE
8
Layer 1
10
16.269500
20
33.406200
11
16.162900
21
33.784500
0
LINE
8
Layer 1
10
16.162900
20
33.784500
11
16.052600
21
34.158500
0
LINE
8
Layer 1
10
16.052600
20
34.158500
11
15.938500
21
34.527200
0
LINE
8
Layer 1
10
15.938500
20
34.527200
11
15.820100
21
34.889000
0
LINE
8
Layer 1
10
15.820100
20
34.889000
11
15.697400
21
35.242800
0
LINE
8
Layer 1
10
15.697400
20
35.242800
11
15.570000
21
35.587100
0
LINE
8
Layer 1
10
15.570000
20
35.587100
11
15.437600
21
35.920800
0
LINE
8
Layer 1
10
15.437600
20
35.920800
11
15.299900
21
36.242400
0
LINE
8
Layer 1
10
15.299900
20
36.242400
11
15.156800
21
36.550700
0
LINE
8
Layer 1
10
15.156800
20
36.550700
11
15.007900
21
36.844400
0
LINE
8
Layer 1
10
15.007900
20
36.844400
11
14.853000
21
37.122100
0
LINE
8
Layer 1
10
14.853000
20
37.122100
11
14.691800
21
37.382500
0
LINE
8
Layer 1
10
14.691800
20
37.382500
11
14.524100
21
37.624400
0
LINE
8
Layer 1
10
14.524100
20
37.624400
11
14.349500
21
37.846300
0
LINE
8
Layer 1
10
14.349500
20
37.846300
11
14.167800
21
38.047100
0
LINE
8
Layer 1
10
14.167800
20
38.047100
11
13.978800
21
38.225400
0
LINE
8
Layer 1
10
13.978800
20
38.225400
11
13.782100
21
38.379800
0
LINE
8
Layer 1
10
13.782100
20
38.379800
11
13.577600
21
38.509100
0
LINE
8
Layer 1
10
13.577600
20
38.509100
11
13.364900
21
38.611900
0
LINE
8
Layer 1
10
13.364900
20
38.611900
11
13.143794
21
38.686983
0
LINE
8
Layer 1
10
13.143794
20
38.686983
11
12.914004
21
38.732994
0
LINE
8
Layer 1
10
12.914004
20
38.732994
11
12.675263
21
38.748623
0
LINE
8
Layer 1
10
12.675263
20
38.748623
11
12.437002
21
38.735748
0
LINE
8
Layer 1
10
12.437002
20
38.735748
11
12.208580
21
38.697615
0
LINE
8
Layer 1
10
12.208580
20
38.697615
11
11.989625
21
38.634951
0
LINE
8
Layer 1
10
11.989625
20
38.634951
11
11.779764
21
38.548487
0
LINE
8
Layer 1
10
11.779764
20
38.548487
11
11.578625
21
38.438952
0
LINE
8
Layer 1
10
11.578625
20
38.438952
11
11.385834
21
38.307076
0
LINE
8
Layer 1
10
11.385834
20
38.307076
11
11.201019
21
38.153588
0
LINE
8
Layer 1
10
11.201019
20
38.153588
11
11.023807
21
37.979219
0
LINE
8
Layer 1
10
11.023807
20
37.979219
11
10.853825
21
37.784698
0
LINE
8
Layer 1
10
10.853825
20
37.784698
11
10.690700
21
37.570755
0
LINE
8
Layer 1
10
10.690700
20
37.570755
11
10.534060
21
37.338119
0
LINE
8
Layer 1
10
10.534060
20
37.338119
11
10.383532
21
37.087520
0
LINE
8
Layer 1
10
10.383532
20
37.087520
11
10.238742
21
36.819688
0
LINE
8
Layer 1
10
10.238742
20
36.819688
11
10.099319
21
36.535353
0
LINE
8
Layer 1
10
10.099319
20
36.535353
11
9.964889
21
36.235244
0
LINE
8
Layer 1
10
9.964889
20
36.235244
11
9.835080
21
35.920092
0
LINE
8
Layer 1
10
9.835080
20
35.920092
11
9.709518
21
35.590625
0
LINE
8
Layer 1
10
9.709518
20
35.590625
11
9.587832
21
35.247574
0
LINE
8
Layer 1
10
9.587832
20
35.247574
11
9.469648
21
34.891668
0
LINE
8
Layer 1
10
9.469648
20
34.891668
11
9.354593
21
34.523637
0
LINE
8
Layer 1
10
9.354593
20
34.523637
11
9.242295
21
34.144211
0
LINE
8
Layer 1
10
9.242295
20
34.144211
11
9.132381
21
33.754119
0
LINE
8
Layer 1
10
9.132381
20
33.754119
11
9.024478
21
33.354091
0
LINE
8
Layer 1
10
9.024478
20
33.354091
11
8.918214
21
32.944857
0
LINE
8
Layer 1
10
8.918214
20
32.944857
11
8.813215
21
32.527147
0
LINE
8
Layer 1
10
8.813215
20
32.527147
11
8.709109
21
32.101690
0
LINE
8
Layer 1
10
8.709109
20
32.101690
11
8.605523
21
31.669216
0
LINE
8
Layer 1
10
8.605523
20
31.669216
11
8.502084
21
31.230455
0
LINE
8
Layer 1
10
8.502084
20
31.230455
11
8.398420
21
30.786137
0
LINE
8
Layer 1
10
8.398420
20
30.786137
11
8.294157
21
30.336991
0
LINE
8
Layer 1
10
8.294157
20
30.336991
11
8.188923
21
29.883747
0
LINE
8
Layer 1
10
8.188923
20
29.883747
11
8.082345
21
29.427134
0
LINE
8
Layer 1
10
8.082345
20
29.427134
11
8.017395
21
29.162489
0
LINE
8
Layer 1
10
8.017395
20
29.162489
11
7.950403
21
28.905458
0
LINE
8
Layer 1
10
7.950403
20
28.905458
11
7.881256
21
28.656094
0
LINE
8
Layer 1
10
7.881256
20
28.656094
11
7.809840
21
28.414447
0
LINE
8
Layer 1
10
7.809840
20
28.414447
11
7.736041
21
28.180570
0
LINE
8
Layer 1
10
7.736041
20
28.180570
11
7.659746
21
27.954514
0
LINE
8
Layer 1
10
7.659746
20
27.954514
11
7.580840
21
27.736331
0
LINE
8
Layer 1
10
7.580840
20
27.736331
11
7.499211
21
27.526072
0
LINE
8
Layer 1
10
7.499211
20
27.526072
11
7.414743
21
27.323789
0
LINE
8
Layer 1
10
7.414743
20
27.323789
11
7.327324
21
27.129533
0
LINE
8
Layer 1
10
7.327324
20
27.129533
11
7.236839
21
26.943356
0
LINE
8
Layer 1
10
7.236839
20
26.943356
11
7.143176
21
26.765310
0
LINE
8
Layer 1
10
7.143176
20
26.765310
11
7.046219
21
26.595446
0
LINE
8
Layer 1
10
7.046219
20
26.595446
11
6.945856
21
26.433816
0
LINE
8
Layer 1
10
6.945856
20
26.433816
11
6.841972
21
26.280471
0
LINE
8
Layer 1
10
6.841972
20
26.280471
11
6.734453
21
26.135463
0
LINE
8
Layer 1
10
6.734453
20
26.135463
11
6.623187
21
25.998844
0
LINE
8
Layer 1
10
6.623187
20
25.998844
11
6.508058
21
25.870665
0
LINE
8
Layer 1
10
6.508058
20
25.870665
11
6.388954
21
25.750978
0
LINE
8
Layer 1
10
6.388954
20
25.750978
11
6.265761
21
25.639834
0
LINE
8
Layer 1
10
6.265761
20
25.639834
11
6.138364
21
25.537285
0
LINE
8
Layer 1
10
6.138364
20
25.537285
11
6.006650
21
25.443383
0
LINE
8
Layer 1
10
6.006650
20
25.443383
11
5.870505
21
25.358180
0
LINE
8
Layer 1
10
5.870505
20
25.358180
11
5.729816
21
25.281725
0
LINE
8
Layer 1
10
5.729816
20
25.281725
11
5.584468
21
25.214073
0
LINE
8
Layer 1
10
5.584468
20
25.214073
11
5.434349
21
25.155273
0
LINE
8
Layer 1
10
5.434349
20
25.155273
11
5.279344
21
25.105378
0
LINE
8
Layer 1
10
5.279344
20
25.105378
11
5.119339
21
25.064439
0
LINE
8
Layer 1
10
5.119339
20
25.064439
11
4.954220
21
25.032508
0
LINE
8
Layer 1
10
4.954220
20
25.032508
11
4.783874
21
25.009634
0
LINE
8
Layer 1
10
4.783874
20
25.009634
11
4.608187
21
24.995873
0
LINE
8
Layer 1
10
4.608187
20
24.995873
11
4.427046
21
24.991275
0
LINE
8
Layer 1
10
4.427046
20
24.991275
11
4.297960
21
24.991300
0
LINE
8
Layer 1
10
4.297960
20
24.991300
11
4.168860
21
24.991300
0
LINE
8
Layer 1
10
4.168860
20
24.991300
11
4.039760
21
24.991300
0
LINE
8
Layer 1
10
4.039760
20
24.991300
11
3.910660
21
24.991300
0
LINE
8
Layer 1
10
3.910660
20
24.991300
11
3.781550
21
24.991300
0
LINE
8
Layer 1
10
3.781550
20
24.991300
11
3.652450
21
24.991300
0
LINE
8
Layer 1
10
3.652450
20
24.991300
11
3.523350
21
24.991300
0
LINE
8
Layer 1
10
3.523350
20
24.991300
11
3.394250
21
24.991300
0
LINE
8
Layer 1
10
3.394250
20
24.991300
11
3.265150
21
24.991300
0
LINE
8
Layer 1
10
3.265150
20
24.991300
11
3.136050
21
24.991300
0
LINE
8
Layer 1
10
3.136050
20
24.991300
11
3.006950
21
24.991300
0
LINE
8
Layer 1
10
3.006950
20
24.991300
11
2.877840
21
24.991300
0
LINE
8
Layer 1
10
2.877840
20
24.991300
11
2.748740
21
24.991300
0
LINE
8
Layer 1
10
2.748740
20
24.991300
11
2.619640
21
24.991300
0
LINE
8
Layer 1
10
2.619640
20
24.991300
11
2.490540
21
24.991300
0
LINE
8
Layer 1
10
2.490540
20
24.991300
11
2.361440
21
24.991300
0
LINE
8
Layer 1
10
2.361440
20
24.991300
11
2.232340
21
24.991300
0
LINE
8
Layer 1
10
2.232340
20
24.991300
11
2.103230
21
24.991300
0
LINE
8
Layer 1
10
2.103230
20
24.991300
11
1.974130
21
24.991300
0
LINE
8
Layer 1
10
1.974130
20
24.991300
11
1.845030
21
24.991300
0
LINE
8
Layer 1
10
1.845030
20
24.991300
11
1.715930
21
24.991300
0
LINE
8
Layer 1
10
1.715930
20
24.991300
11
1.586830
21
24.991300
0
LINE
8
Layer 1
10
1.586830
20
24.991300
11
1.457730
21
24.991300
0
LINE
8
Layer 1
10
1.457730
20
24.991300
11
1.328630
21
24.991300
0
LINE
8
Layer 1
10
1.328630
20
24.991300
11
1.199520
21
24.991300
0
LINE
8
Layer 1
10
1.199520
20
24.991300
11
1.070420
21
24.991300
0
LINE
8
Layer 1
10
1.070420
20
24.991300
11
0.941320
21
24.991300
0
LINE
8
Layer 1
10
0.941320
20
24.991300
11
0.812219
21
24.991300
0
LINE
8
Layer 1
10
0.812219
20
24.991300
11
0.683117
21
24.991300
0
LINE
8
Layer 1
10
0.683117
20
24.991300
11
0.554016
21
24.991300
0
LINE
8
Layer 1
10
0.554016
20
24.991300
11
0.424914
21
24.991300
0
LINE
8
Layer 1
10
0.424914
20
24.991300
11
0.295813
21
24.991300
0
LINE
8
Layer 1
10
0.295813
20
24.991300
11
0.394932
21
24.939713
0
LINE
8
Layer 1
10
0.394932
20
24.939713
11
0.491974
21
24.885215
0
LINE
8
Layer 1
10
0.491974
20
24.885215
11
0.586893
21
24.827872
0
LINE
8
Layer 1
10
0.586893
20
24.827872
11
0.679642
21
24.767750
0
LINE
8
Layer 1
10
0.679642
20
24.767750
11
0.770176
21
24.704915
0
LINE
8
Layer 1
10
0.770176
20
24.704915
11
0.858448
21
24.639435
0
LINE
8
Layer 1
10
0.858448
20
24.639435
11
0.944413
21
24.571376
0
LINE
8
Layer 1
10
0.944413
20
24.571376
11
1.028024
21
24.500804
0
LINE
8
Layer 1
10
1.028024
20
24.500804
11
1.109237
21
24.427786
0
LINE
8
Layer 1
10
1.109237
20
24.427786
11
1.188003
21
24.352387
0
LINE
8
Layer 1
10
1.188003
20
24.352387
11
1.264279
21
24.274675
0
LINE
8
Layer 1
10
1.264279
20
24.274675
11
1.338017
21
24.194717
0
LINE
8
Layer 1
10
1.338017
20
24.194717
11
1.409172
21
24.112577
0
LINE
8
Layer 1
10
1.409172
20
24.112577
11
1.477698
21
24.028324
0
LINE
8
Layer 1
10
1.477698
20
24.028324
11
1.543549
21
23.942023
0
LINE
8
Layer 1
10
1.543549
20
23.942023
11
1.606678
21
23.853741
0
LINE
8
Layer 1
10
1.606678
20
23.853741
11
1.667040
21
23.763545
0
LINE
8
Layer 1
10
1.667040
20
23.763545
11
1.724589
21
23.671500
0
LINE
8
Layer 1
10
1.724589
20
23.671500
11
1.779278
21
23.577674
0
LINE
8
Layer 1
10
1.779278
20
23.577674
11
1.831063
21
23.482133
0
LINE
8
Layer 1
10
1.831063
20
23.482133
11
1.879896
21
23.384941
0
LINE
8
Layer 1
10
1.879896
20
23.384941
11
1.925732
21
23.286167
0
LINE
8
Layer 1
10
1.925732
20
23.286167
11
1.968525
21
23.185877
0
LINE
8
Layer 1
10
1.968525
20
23.185877
11
2.008229
21
23.084140
0
LINE
8
Layer 1
10
2.008229
20
23.084140
11
2.044797
21
22.981019
0
LINE
8
Layer 1
10
2.044797
20
22.981019
11
2.078185
21
22.876583
0
LINE
8
Layer 1
10
2.078185
20
22.876583
11
2.108346
21
22.770895
0
LINE
8
Layer 1
10
2.108346
20
22.770895
11
2.135233
21
22.664022
0
LINE
8
Layer 1
10
2.135233
20
22.664022
11
2.158802
21
22.556031
0
LINE
8
Layer 1
10
2.158802
20
22.556031
11
2.179005
21
22.446991
0
LINE
8
Layer 1
10
2.179005
20
22.446991
11
2.195798
21
22.336969
0
LINE
8
Layer 1
10
2.195798
20
22.336969
11
2.209134
21
22.226027
0
LINE
8
Layer 1
10
2.209134
20
22.226027
11
2.269276
21
21.847861
0
LINE
8
Layer 1
10
2.269276
20
21.847861
11
2.328755
21
21.478813
0
LINE
8
Layer 1
10
2.328755
20
21.478813
11
2.387771
21
21.119073
0
LINE
8
Layer 1
10
2.387771
20
21.119073
11
2.446528
21
20.768831
0
LINE
8
Layer 1
10
2.446528
20
20.768831
11
2.505225
21
20.428276
0
LINE
8
Layer 1
10
2.505225
20
20.428276
11
2.564064
21
20.097596
0
LINE
8
Layer 1
10
2.564064
20
20.097596
11
2.623246
21
19.776982
0
LINE
8
Layer 1
10
2.623246
20
19.776982
11
2.682972
21
19.466623
0
LINE
8
Layer 1
10
2.682972
20
19.466623
11
2.743444
21
19.166705
0
LINE
8
Layer 1
10
2.743444
20
19.166705
11
2.804864
21
18.877423
0
LINE
8
Layer 1
10
2.804864
20
18.877423
11
2.867431
21
18.598963
0
LINE
8
Layer 1
10
2.867431
20
18.598963
11
2.931348
21
18.331515
0
LINE
8
Layer 1
10
2.931348
20
18.331515
11
2.996816
21
18.075266
0
LINE
8
Layer 1
10
2.996816
20
18.075266
11
3.064036
21
17.830410
0
LINE
8
Layer 1
10
3.064036
20
17.830410
11
3.133209
21
17.597132
0
LINE
8
Layer 1
10
3.133209
20
17.597132
11
3.204537
21
17.375623
0
LINE
8
Layer 1
10
3.204537
20
17.375623
11
3.278221
21
17.166071
0
LINE
8
Layer 1
10
3.278221
20
17.166071
11
3.354463
21
16.968668
0
LINE
8
Layer 1
10
3.354463
20
16.968668
11
3.433462
21
16.783603
0
LINE
8
Layer 1
10
3.433462
20
16.783603
11
3.515421
21
16.611062
0
LINE
8
Layer 1
10
3.515421
20
16.611062
11
3.600543
21
16.451238
0
LINE
8
Layer 1
10
3.600543
20
16.451238
11
3.689025
21
16.304318
0
LINE
8
Layer 1
10
3.689025
20
16.304318
11
3.781071
21
16.170492
0
LINE
8
Layer 1
10
3.781071
20
16.170492
11
3.876883
21
16.049948
0
LINE
8
Layer 1
10
3.876883
20
16.049948
11
3.976660
21
15.942877
0
LINE
8
Layer 1
10
3.976660
20
15.942877
11
4.080605
21
15.849469
0
LINE
8
Layer 1
10
4.080605
20
15.849469
11
4.188919
21
15.769914
0
LINE
8
Layer 1
10
4.188919
20
15.769914
11
4.301803
21
15.704398
0
LINE
8
Layer 1
10
4.301803
20
15.704398
11
4.419459
21
15.653111
0
LINE
8
Layer 1
10
4.419459
20
15.653111
11
4.542087
21
15.616244
0
LINE
8
Layer 1
10
4.542087
20
15.616244
11
4.669888
21
15.593993
0
LINE
8
Layer 1
10
4.669888
20
15.593993
11
4.803064
21
15.586532
0
LINE
8
Layer 1
10
4.803064
20
15.586532
11
4.936288
21
15.592644
0
LINE
8
Layer 1
10
4.936288
20
15.592644
11
5.064252
21
15.610900
0
LINE
8
Layer 1
10
5.064252
20
15.610900
11
5.187188
21
15.641144
0
LINE
8
Layer 1
10
5.187188
20
15.641144
11
5.305327
21
15.683250
0
LINE
8
Layer 1
10
5.305327
20
15.683250
11
5.418901
21
15.737077
0
LINE
8
Layer 1
10
5.418901
20
15.737077
11
5.528142
21
15.802485
0
LINE
8
Layer 1
10
5.528142
20
15.802485
11
5.633281
21
15.879338
0
LINE
8
Layer 1
10
5.633281
20
15.879338
11
5.734551
21
15.967502
0
LINE
8
Layer 1
10
5.734551
20
15.967502
11
5.832182
21
16.066835
0
LINE
8
Layer 1
10
5.832182
20
16.066835
11
5.926407
21
16.177198
0
LINE
8
Layer 1
10
5.926407
20
16.177198
11
6.017457
21
16.298454
0
LINE
8
Layer 1
10
6.017457
20
16.298454
11
6.105564
21
16.430468
0
LINE
8
Layer 1
10
6.105564
20
16.430468
11
6.190959
21
16.573099
0
LINE
8
Layer 1
10
6.190959
20
16.573099
11
6.273874
21
16.726211
0
LINE
8
Layer 1
10
6.273874
20
16.726211
11
6.354542
21
16.889662
0
LINE
8
Layer 1
10
6.354542
20
16.889662
11
6.433193
21
17.063321
0
LINE
8
Layer 1
10
6.433193
20
17.063321
11
6.510059
21
17.247045
0
LINE
8
Layer 1
10
6.510059
20
17.247045
11
6.585372
21
17.440696
0
LINE
8
Layer 1
10
6.585372
20
17.440696
11
6.659363
21
17.644139
0
LINE
8
Layer 1
10
6.659363
20
17.644139
11
6.732265
21
17.857234
0
LINE
8
Layer 1
10
6.732265
20
17.857234
11
6.804309
21
18.079844
0
LINE
8
Layer 1
10
6.804309
20
18.079844
11
6.875726
21
18.311830
0
LINE
8
Layer 1
10
6.875726
20
18.311830
11
6.946748
21
18.553056
0
LINE
8
Layer 1
10
6.946748
20
18.553056
11
7.017607
21
18.803383
0
LINE
8
Layer 1
10
7.017607
20
18.803383
11
7.088535
21
19.062672
0
LINE
8
Layer 1
10
7.088535
20
19.062672
11
7.159763
21
19.330787
0
LINE
8
Layer 1
10
7.159763
20
19.330787
11
7.231523
21
19.607591
0
LINE
8
Layer 1
10
7.231523
20
19.607591
11
7.304047
21
19.892941
0
LINE
8
Layer 1
10
7.304047
20
19.892941
11
7.377566
21
20.186702
0
LINE
8
Layer 1
10
7.377566
20
20.186702
11
7.452312
21
20.488739
0
LINE
8
Layer 1
10
7.452312
20
20.488739
11
7.528516
21
20.798912
0
LINE
8
Layer 1
10
7.528516
20
20.798912
11
7.606411
21
21.117081
0
LINE
8
Layer 1
10
7.606411
20
21.117081
11
7.664698
21
21.361892
0
LINE
8
Layer 1
10
7.664698
20
21.361892
11
7.725305
21
21.598315
0
LINE
8
Layer 1
10
7.725305
20
21.598315
11
7.788190
21
21.826393
0
LINE
8
Layer 1
10
7.788190
20
21.826393
11
7.853315
21
22.046164
0
LINE
8
Layer 1
10
7.853315
20
22.046164
11
7.920638
21
22.257672
0
LINE
8
Layer 1
10
7.920638
20
22.257672
11
7.990118
21
22.460954
0
LINE
8
Layer 1
10
7.990118
20
22.460954
11
8.061716
21
22.656052
0
LINE
8
Layer 1
10
8.061716
20
22.656052
11
8.135391
21
22.843006
0
LINE
8
Layer 1
10
8.135391
20
22.843006
11
8.211102
21
23.021854
0
LINE
8
Layer 1
10
8.211102
20
23.021854
11
8.288810
21
23.192640
0
LINE
8
Layer 1
10
8.288810
20
23.192640
11
8.368475
21
23.355401
0
LINE
8
Layer 1
10
8.368475
20
23.355401
11
8.450054
21
23.510179
0
LINE
8
Layer 1
10
8.450054
20
23.510179
11
8.533508
21
23.657014
0
LINE
8
Layer 1
10
8.533508
20
23.657014
11
8.618797
21
23.795947
0
LINE
8
Layer 1
10
8.618797
20
23.795947
11
8.705880
21
23.927017
0
LINE
8
Layer 1
10
8.705880
20
23.927017
11
8.794717
21
24.050265
0
LINE
8
Layer 1
10
8.794717
20
24.050265
11
8.885267
21
24.165731
0
LINE
8
Layer 1
10
8.885267
20
24.165731
11
8.977491
21
24.273456
0
LINE
8
Layer 1
10
8.977491
20
24.273456
11
9.071347
21
24.373480
0
LINE
8
Layer 1
10
9.071347
20
24.373480
11
9.166795
21
24.465843
0
LINE
8
Layer 1
10
9.166795
20
24.465843
11
9.263795
21
24.550585
0
LINE
8
Layer 1
10
9.263795
20
24.550585
11
9.362306
21
24.627747
0
LINE
8
Layer 1
10
9.362306
20
24.627747
11
9.462289
21
24.697369
0
LINE
8
Layer 1
10
9.462289
20
24.697369
11
9.563702
21
24.759491
0
LINE
8
Layer 1
10
9.563702
20
24.759491
11
9.666505
21
24.814154
0
LINE
8
Layer 1
10
9.666505
20
24.814154
11
9.770658
21
24.861398
0
LINE
8
Layer 1
10
9.770658
20
24.861398
11
9.876120
21
24.901263
0
LINE
8
Layer 1
10
9.876120
20
24.901263
11
9.982851
21
24.933789
0
LINE
8
Layer 1
10
9.982851
20
24.933789
11
10.090811
21
24.959017
0
LINE
8
Layer 1
10
10.090811
20
24.959017
11
10.199959
21
24.976988
0
LINE
8
Layer 1
10
10.199959
20
24.976988
11
10.310255
21
24.987740
0
LINE
8
Layer 1
10
10.310255
20
24.987740
11
10.421658
21
24.991315
0
LINE
8
Layer 1
10
10.421658
20
24.991315
11
10.586715
21
24.985076
0
LINE
8
Layer 1
10
10.586715
20
24.985076
11
10.746200
21
24.966378
0
LINE
8
Layer 1
10
10.746200
20
24.966378
11
10.900327
21
24.935243
0
LINE
8
Layer 1
10
10.900327
20
24.935243
11
11.049311
21
24.891696
0
LINE
8
Layer 1
10
11.049311
20
24.891696
11
11.193366
21
24.835760
0
LINE
8
Layer 1
10
11.193366
20
24.835760
11
11.332706
21
24.767460
0
LINE
8
Layer 1
10
11.332706
20
24.767460
11
11.467546
21
24.686819
0
LINE
8
Layer 1
10
11.467546
20
24.686819
11
11.598101
21
24.593862
0
LINE
8
Layer 1
10
11.598101
20
24.593862
11
11.724584
21
24.488612
0
LINE
8
Layer 1
10
11.724584
20
24.488612
11
11.847210
21
24.371093
0
LINE
8
Layer 1
10
11.847210
20
24.371093
11
11.966194
21
24.241330
0
LINE
8
Layer 1
10
11.966194
20
24.241330
11
12.081750
21
24.099346
0
LINE
8
Layer 1
10
12.081750
20
24.099346
11
12.194092
21
23.945165
0
LINE
8
Layer 1
10
12.194092
20
23.945165
11
12.303435
21
23.778811
0
LINE
8
Layer 1
10
12.303435
20
23.778811
11
12.409993
21
23.600308
0
LINE
8
Layer 1
10
12.409993
20
23.600308
11
12.513981
21
23.409680
0
LINE
8
Layer 1
10
12.513981
20
23.409680
11
12.615613
21
23.206951
0
LINE
8
Layer 1
10
12.615613
20
23.206951
11
12.715103
21
22.992147
0
LINE
8
Layer 1
10
12.715103
20
22.992147
11
12.812666
21
22.765288
0
LINE
8
Layer 1
10
12.812666
20
22.765288
11
12.908517
21
22.526399
0
LINE
8
Layer 1
10
12.908517
20
22.526399
11
13.002869
21
22.275506
0
LINE
8
Layer 1
10
13.002869
20
22.275506
11
13.095938
21
22.012632
0
LINE
8
Layer 1
10
13.095938
20
22.012632
11
13.187937
21
21.737799
0
LINE
8
Layer 1
10
13.187937
20
21.737799
11
13.279081
21
21.451033
0
LINE
8
Layer 1
10
13.279081
20
21.451033
11
13.369584
21
21.152358
0
LINE
8
Layer 1
10
13.369584
20
21.152358
11
13.459661
21
20.841798
0
LINE
8
Layer 1
10
13.459661
20
20.841798
11
13.549527
21
20.519377
0
LINE
8
Layer 1
10
13.549527
20
20.519377
11
13.639395
21
20.185119
0
LINE
8
Layer 1
10
13.639395
20
20.185119
11
13.729480
21
19.839047
0
LINE
8
Layer 1
10
13.729480
20
19.839047
11
13.819997
21
19.481185
0
LINE
8
Layer 1
10
13.819997
20
19.481185
11
13.911159
21
19.111557
0
LINE
8
Layer 1
10
13.911159
20
19.111557
11
14.003182
21
18.730187
0
LINE
8
Layer 1
10
14.003182
20
18.730187
11
14.178294
21
17.976993
0
LINE
8
Layer 1
10
14.178294
20
17.976993
11
14.345464
21
17.248048
0
LINE
8
Layer 1
10
14.345464
20
17.248048
11
14.505455
21
16.543334
0
LINE
8
Layer 1
10
14.505455
20
16.543334
11
14.659029
21
15.862827
0
LINE
8
Layer 1
10
14.659029
20
15.862827
11
14.806949
21
15.206502
0
LINE
8
Layer 1
10
14.806949
20
15.206502
11
14.949978
21
14.574342
0
LINE
8
Layer 1
10
14.949978
20
14.574342
11
15.088878
21
13.966317
0
LINE
8
Layer 1
10
15.088878
20
13.966317
11
15.224412
21
13.382414
0
LINE
8
Layer 1
10
15.224412
20
13.382414
11
15.357343
21
12.822604
0
LINE
8
Layer 1
10
15.357343
20
12.822604
11
15.488433
21
12.286866
0
LINE
8
Layer 1
10
15.488433
20
12.286866
11
15.618445
21
11.775176
0
LINE
8
Layer 1
10
15.618445
20
11.775176
11
15.748142
21
11.287518
0
LINE
8
Layer 1
10
15.748142
20
11.287518
11
15.878287
21
10.823863
0
LINE
8
Layer 1
10
15.878287
20
10.823863
11
16.009642
21
10.384195
0
LINE
8
Layer 1
10
16.009642
20
10.384195
11
16.142970
21
9.968485
0
LINE
8
Layer 1
10
16.142970
20
9.968485
11
16.279033
21
9.576714
0
LINE
8
Layer 1
10
16.279033
20
9.576714
11
16.418594
21
9.208859
0
LINE
8
Layer 1
10
16.418594
20
9.208859
11
16.562417
21
8.864898
0
LINE
8
Layer 1
10
16.562417
20
8.864898
11
16.711263
21
8.544811
0
LINE
8
Layer 1
10
16.711263
20
8.544811
11
16.865895
21
8.248571
0
LINE
8
Layer 1
10
16.865895
20
8.248571
11
17.027076
21
7.976159
0
LINE
8
Layer 1
10
17.027076
20
7.976159
11
17.195569
21
7.727554
0
LINE
8
Layer 1
10
17.195569
20
7.727554
11
17.372137
21
7.502730
0
LINE
8
Layer 1
10
17.372137
20
7.502730
11
17.557541
21
7.301665
0
LINE
8
Layer 1
10
17.557541
20
7.301665
11
17.752544
21
7.124339
0
LINE
8
Layer 1
10
17.752544
20
7.124339
11
17.957911
21
6.970730
0
LINE
8
Layer 1
10
17.957911
20
6.970730
11
18.174403
21
6.840814
0
LINE
8
Layer 1
10
18.174403
20
6.840814
11
18.402783
21
6.734568
0
LINE
8
Layer 1
10
18.402783
20
6.734568
11
18.643813
21
6.651970
0
LINE
8
Layer 1
10
18.643813
20
6.651970
11
18.898256
21
6.593003
0
LINE
8
Layer 1
10
18.898256
20
6.593003
11
19.166875
21
6.557636
0
LINE
8
Layer 1
10
19.166875
20
6.557636
11
19.450433
21
6.545862
0
LINE
8
Layer 1
10
19.450433
20
6.545862
11
19.734095
21
6.557477
0
LINE
8
Layer 1
10
19.734095
20
6.557477
11
20.003035
21
6.592347
0
LINE
8
Layer 1
10
20.003035
20
6.592347
11
20.258027
21
6.650531
0
LINE
8
Layer 1
10
20.258027
20
6.650531
11
20.499846
21
6.732084
0
LINE
8
Layer 1
10
20.499846
20
6.732084
11
20.729266
21
6.837063
0
LINE
8
Layer 1
10
20.729266
20
6.837063
11
20.947062
21
6.965526
0
LINE
8
Layer 1
10
20.947062
20
6.965526
11
21.154008
21
7.117524
0
LINE
8
Layer 1
10
21.154008
20
7.117524
11
21.350878
21
7.293115
0
LINE
8
Layer 1
10
21.350878
20
7.293115
11
21.538447
21
7.492354
0
LINE
8
Layer 1
10
21.538447
20
7.492354
11
21.717490
21
7.715300
0
LINE
8
Layer 1
10
21.717490
20
7.715300
11
21.888780
21
7.962002
0
LINE
8
Layer 1
10
21.888780
20
7.962002
11
22.053093
21
8.232522
0
LINE
8
Layer 1
10
22.053093
20
8.232522
11
22.211203
21
8.526916
0
LINE
8
Layer 1
10
22.211203
20
8.526916
11
22.363883
21
8.845236
0
LINE
8
Layer 1
10
22.363883
20
8.845236
11
22.511909
21
9.187540
0
LINE
8
Layer 1
10
22.511909
20
9.187540
11
22.656055
21
9.553884
0
LINE
8
Layer 1
10
22.656055
20
9.553884
11
22.797095
21
9.944321
0
LINE
8
Layer 1
10
22.797095
20
9.944321
11
22.935804
21
10.358909
0
LINE
8
Layer 1
10
22.935804
20
10.358909
11
23.072957
21
10.797704
0
LINE
8
Layer 1
10
23.072957
20
10.797704
11
23.209327
21
11.260761
0
LINE
8
Layer 1
10
23.209327
20
11.260761
11
23.345689
21
11.748136
0
LINE
8
Layer 1
10
23.345689
20
11.748136
11
23.482818
21
12.259885
0
LINE
8
Layer 1
10
23.482818
20
12.259885
11
23.621488
21
12.796065
0
LINE
8
Layer 1
10
23.621488
20
12.796065
11
23.762473
21
13.356727
0
LINE
8
Layer 1
10
23.762473
20
13.356727
11
23.906549
21
13.941932
0
LINE
8
Layer 1
10
23.906549
20
13.941932
11
24.054489
21
14.551735
0
LINE
8
Layer 1
10
24.054489
20
14.551735
11
24.207067
21
15.186189
0
LINE
8
Layer 1
10
24.207067
20
15.186189
11
24.365059
21
15.845353
0
LINE
8
Layer 1
10
24.365059
20
15.845353
11
24.529239
21
16.529279
0
LINE
8
Layer 1
10
24.529239
20
16.529279
11
24.700381
21
17.238025
0
LINE
8
Layer 1
10
24.700381
20
17.238025
11
24.879259
21
17.971648
0
LINE
8
Layer 1
10
24.879259
20
17.971648
11
25.066648
21
18.730202
0
LINE
8
Layer 1
10
25.066648
20
18.730202
11
25.152410
21
19.059044
0
LINE
8
Layer 1
10
25.152410
20
19.059044
11
25.242854
21
19.382812
0
LINE
8
Layer 1
10
25.242854
20
19.382812
11
25.337877
21
19.701156
0
LINE
8
Layer 1
10
25.337877
20
19.701156
11
25.437378
21
20.013721
0
LINE
8
Layer 1
10
25.437378
20
20.013721
11
25.541252
21
20.320158
0
LINE
8
Layer 1
10
25.541252
20
20.320158
11
25.649398
21
20.620113
0
LINE
8
Layer 1
10
25.649398
20
20.620113
11
25.761712
21
20.913237
0
LINE
8
Layer 1
10
25.761712
20
20.913237
11
25.878093
21
21.199177
0
LINE
8
Layer 1
10
25.878093
20
21.199177
11
25.998436
21
21.477579
0
LINE
8
Layer 1
10
25.998436
20
21.477579
11
26.122640
21
21.748094
0
LINE
8
Layer 1
10
26.122640
20
21.748094
11
26.250601
21
22.010367
0
LINE
8
Layer 1
10
26.250601
20
22.010367
11
26.382218
21
22.264047
0
LINE
8
Layer 1
10
26.382218
20
22.264047
11
26.517387
21
22.508784
0
LINE
8
Layer 1
10
26.517387
20
22.508784
11
26.656005
21
22.744223
0
LINE
8
Layer 1
10
26.656005
20
22.744223
11
26.797970
21
22.970015
0
LINE
8
Layer 1
10
26.797970
20
22.970015
11
26.943178
21
23.185809
0
LINE
8
Layer 1
10
26.943178
20
23.185809
11
27.091527
21
23.391250
0
LINE
8
Layer 1
10
27.091527
20
23.391250
11
27.242916
21
23.585987
0
LINE
8
Layer 1
10
27.242916
20
23.585987
11
27.397242
21
23.769667
0
LINE
8
Layer 1
10
27.397242
20
23.769667
11
27.554399
21
23.941940
0
LINE
8
Layer 1
10
27.554399
20
23.941940
11
27.714287
21
24.102454
0
LINE
8
Layer 1
10
27.714287
20
24.102454
11
27.876804
21
24.250856
0
LINE
8
Layer 1
10
27.876804
20
24.250856
11
28.041843
21
24.386795
0
LINE
8
Layer 1
10
28.041843
20
24.386795
11
28.209306
21
24.509918
0
LINE
8
Layer 1
10
28.209306
20
24.509918
11
28.379089
21
24.619875
0
LINE
8
Layer 1
10
28.379089
20
24.619875
11
28.551086
21
24.716312
0
LINE
8
Layer 1
10
28.551086
20
24.716312
11
28.725197
21
24.798878
0
LINE
8
Layer 1
10
28.725197
20
24.798878
11
28.901322
21
24.867221
0
LINE
8
Layer 1
10
28.901322
20
24.867221
11
29.079355
21
24.920990
0
LINE
8
Layer 1
10
29.079355
20
24.920990
11
29.259192
21
24.959832
0
LINE
8
Layer 1
10
29.259192
20
24.959832
11
29.440733
21
24.983395
0
LINE
8
Layer 1
10
29.440733
20
24.983395
11
29.623875
21
24.991328
0
LINE
8
Layer 1
10
29.623875
20
24.991328
11
29.806101
21
24.983819
0
LINE
8
Layer 1
10
29.806101
20
24.983819
11
29.984954
21
24.961673
0
LINE
8
Layer 1
10
29.984954
20
24.961673
11
30.160415
21
24.925461
0
LINE
8
Layer 1
10
30.160415
20
24.925461
11
30.332473
21
24.875749
0
LINE
8
Layer 1
10
30.332473
20
24.875749
11
30.501110
21
24.813108
0
LINE
8
Layer 1
10
30.501110
20
24.813108
11
30.666313
21
24.738105
0
LINE
8
Layer 1
10
30.666313
20
24.738105
11
30.828066
21
24.651309
0
LINE
8
Layer 1
10
30.828066
20
24.651309
11
30.986350
21
24.553290
0
LINE
8
Layer 1
10
30.986350
20
24.553290
11
31.141155
21
24.444616
0
LINE
8
Layer 1
10
31.141155
20
24.444616
11
31.292459
21
24.325856
0
LINE
8
Layer 1
10
31.292459
20
24.325856
11
31.440252
21
24.197579
0
LINE
8
Layer 1
10
31.440252
20
24.197579
11
31.584519
21
24.060354
0
LINE
8
Layer 1
10
31.584519
20
24.060354
11
31.725243
21
23.914749
0
LINE
8
Layer 1
10
31.725243
20
23.914749
11
31.862405
21
23.761334
0
LINE
8
Layer 1
10
31.862405
20
23.761334
11
31.995996
21
23.600677
0
LINE
8
Layer 1
10
31.995996
20
23.600677
11
32.125994
21
23.433348
0
LINE
8
Layer 1
10
32.125994
20
23.433348
11
32.252388
21
23.259914
0
LINE
8
Layer 1
10
32.252388
20
23.259914
11
32.375160
21
23.080945
0
LINE
8
Layer 1
10
32.375160
20
23.080945
11
32.494296
21
22.897010
0
LINE
8
Layer 1
10
32.494296
20
22.897010
11
32.609781
21
22.708677
0
LINE
8
Layer 1
10
32.609781
20
22.708677
11
32.721599
21
22.516516
0
LINE
8
Layer 1
10
32.721599
20
22.516516
11
32.829734
21
22.321095
0
LINE
8
Layer 1
10
32.829734
20
22.321095
11
32.934173
21
22.122981
0
LINE
8
Layer 1
10
32.934173
20
22.122981
11
33.034897
21
21.922747
0
LINE
8
Layer 1
10
33.034897
20
21.922747
11
33.131893
21
21.720960
0
LINE
8
Layer 1
10
33.131893
20
21.720960
11
33.225142
21
21.518189
0
LINE
8
Layer 1
10
33.225142
20
21.518189
11
33.314632
21
21.315000
0
LINE
8
Layer 1
10
33.314632
20
21.315000
11
33.400346
21
21.111964
0
LINE
8
Layer 1
10
33.400346
20
21.111964
11
33.482272
21
20.909651
0
LINE
8
Layer 1
10
33.482272
20
20.909651
11
33.560390
21
20.708631
0
LINE
8
Layer 1
10
33.560390
20
20.708631
11
33.634688
21
20.509469
0
LINE
8
Layer 1
10
33.634688
20
20.509469
11
33.705149
21
20.312736
0
LINE
8
Layer 1
10
33.705149
20
20.312736
11
33.846741
21
19.897200
0
LINE
8
Layer 1
10
33.846741
20
19.897200
11
33.983877
21
19.498018
0
LINE
8
Layer 1
10
33.983877
20
19.498018
11
34.116891
21
19.114989
0
LINE
8
Layer 1
10
34.116891
20
19.114989
11
34.246113
21
18.747904
0
LINE
8
Layer 1
10
34.246113
20
18.747904
11
34.371872
21
18.396554
0
LINE
8
Layer 1
10
34.371872
20
18.396554
11
34.494498
21
18.060732
0
LINE
8
Layer 1
10
34.494498
20
18.060732
11
34.614325
21
17.740227
0
LINE
8
Layer 1
10
34.614325
20
17.740227
11
34.731678
21
17.434837
0
LINE
8
Layer 1
10
34.731678
20
17.434837
11
34.846891
21
17.144351
0
LINE
8
Layer 1
10
34.846891
20
17.144351
11
34.960289
21
16.868560
0
LINE
8
Layer 1
10
34.960289
20
16.868560
11
35.072208
21
16.607260
0
LINE
8
Layer 1
10
35.072208
20
16.607260
11
35.182976
21
16.360240
0
LINE
8
Layer 1
10
35.182976
20
16.360240
11
35.292923
21
16.127296
0
LINE
8
Layer 1
10
35.292923
20
16.127296
11
35.402376
21
15.908219
0
LINE
8
Layer 1
10
35.402376
20
15.908219
11
35.511670
21
15.702797
0
LINE
8
Layer 1
10
35.511670
20
15.702797
11
35.621136
21
15.510829
0
LINE
8
Layer 1
10
35.621136
20
15.510829
11
35.731099
21
15.332103
0
LINE
8
Layer 1
10
35.731099
20
15.332103
11
35.841893
21
15.166413
0
LINE
8
Layer 1
10
35.841893
20
15.166413
11
35.953846
21
15.013550
0
LINE
8
Layer 1
10
35.953846
20
15.013550
11
36.067291
21
14.873308
0
LINE
8
Layer 1
10
36.067291
20
14.873308
11
36.182557
21
14.745480
0
LINE
8
Layer 1
10
36.182557
20
14.745480
11
36.299971
21
14.629855
0
LINE
8
Layer 1
10
36.299971
20
14.629855
11
36.419869
21
14.526228
0
LINE
8
Layer 1
10
36.419869
20
14.526228
11
36.542575
21
14.434391
0
LINE
8
Layer 1
10
36.542575
20
14.434391
11
36.668424
21
14.354135
0
LINE
8
Layer 1
10
36.668424
20
14.354135
11
36.797744
21
14.285254
0
LINE
8
Layer 1
10
36.797744
20
14.285254
11
36.930866
21
14.227540
0
LINE
8
Layer 1
10
36.930866
20
14.227540
11
37.068121
21
14.180786
0
LINE
8
Layer 1
10
37.068121
20
14.180786
11
37.209837
21
14.144781
0
LINE
8
Layer 1
10
37.209837
20
14.144781
11
37.356345
21
14.119329
0
LINE
8
Layer 1
10
37.356345
20
14.119329
11
37.507975
21
14.104194
0
LINE
8
Layer 1
10
37.507975
20
14.104194
11
37.665058
21
14.099194
0
LINE
8
Layer 1
10
37.665058
20
14.099194
11
37.822871
21
14.105173
0
LINE
8
Layer 1
10
37.822871
20
14.105173
11
37.976631
21
14.123244
0
LINE
8
Layer 1
10
37.976631
20
14.123244
11
38.126560
21
14.153566
0
LINE
8
Layer 1
10
38.126560
20
14.153566
11
38.272890
21
14.196296
0
LINE
8
Layer 1
10
38.272890
20
14.196296
11
38.415844
21
14.251594
0
LINE
8
Layer 1
10
38.415844
20
14.251594
11
38.555652
21
14.319618
0
LINE
8
Layer 1
10
38.555652
20
14.319618
11
38.692542
21
14.400533
0
LINE
8
Layer 1
10
38.692542
20
14.400533
11
38.826741
21
14.494497
0
LINE
8
Layer 1
10
38.826741
20
14.494497
11
38.958477
21
14.601669
0
LINE
8
Layer 1
10
38.958477
20
14.601669
11
39.087977
21
14.722210
0
LINE
8
Layer 1
10
39.087977
20
14.722210
11
39.215469
21
14.856282
0
LINE
8
Layer 1
10
39.215469
20
14.856282
11
39.341180
21
15.004046
0
LINE
8
Layer 1
10
39.341180
20
15.004046
11
39.465338
21
15.165661
0
LINE
8
Layer 1
10
39.465338
20
15.165661
11
39.588171
21
15.341286
0
LINE
8
Layer 1
10
39.588171
20
15.341286
11
39.709908
21
15.531082
0
LINE
8
Layer 1
10
39.709908
20
15.531082
11
39.830772
21
15.735210
0
LINE
8
Layer 1
10
39.830772
20
15.735210
11
39.950996
21
15.953832
0
LINE
8
Layer 1
10
39.950996
20
15.953832
11
40.070804
21
16.187107
0
LINE
8
Layer 1
10
40.070804
20
16.187107
11
40.190425
21
16.435196
0
LINE
8
Layer 1
10
40.190425
20
16.435196
11
40.310085
21
16.698258
0
LINE
8
Layer 1
10
40.310085
20
16.698258
11
40.430013
21
16.976454
0
LINE
8
Layer 1
10
40.430013
20
16.976454
11
40.550438
21
17.269948
0
LINE
8
Layer 1
10
40.550438
20
17.269948
11
40.671585
21
17.578894
0
LINE
8
Layer 1
10
40.671585
20
17.578894
11
40.793685
21
17.903455
0
LINE
8
Layer 1
10
40.793685
20
17.903455
11
40.916962
21
18.243793
0
LINE
8
Layer 1
10
40.916962
20
18.243793
11
41.041644
21
18.600067
0
LINE
8
Layer 1
10
41.041644
20
18.600067
11
41.167959
21
18.972438
0
LINE
8
Layer 1
10
41.167959
20
18.972438
11
41.296136
21
19.361068
0
LINE
8
Layer 1
10
41.296136
20
19.361068
11
41.426401
21
19.766115
0
LINE
8
Layer 1
10
41.426401
20
19.766115
11
41.558984
21
20.187739
0
LINE
8
Layer 1
10
41.558984
20
20.187739
11
41.694107
21
20.626103
0
LINE
8
Layer 1
10
41.694107
20
20.626103
11
41.832005
21
21.081366
0
LINE
8
Layer 1
10
41.832005
20
21.081366
11
41.917812
21
21.360583
0
LINE
8
Layer 1
10
41.917812
20
21.360583
11
41.999737
21
21.627254
0
LINE
8
Layer 1
10
41.999737
20
21.627254
11
42.078392
21
21.881624
0
LINE
8
Layer 1
10
42.078392
20
21.881624
11
42.154396
21
22.123929
0
LINE
8
Layer 1
10
42.154396
20
22.123929
11
42.228363
21
22.354413
0
LINE
8
Layer 1
10
42.228363
20
22.354413
11
42.300909
21
22.573318
0
LINE
8
Layer 1
10
42.300909
20
22.573318
11
42.372654
21
22.780886
0
LINE
8
Layer 1
10
42.372654
20
22.780886
11
42.444207
21
22.977357
0
LINE
8
Layer 1
10
42.444207
20
22.977357
11
42.516190
21
23.162973
0
LINE
8
Layer 1
10
42.516190
20
23.162973
11
42.589212
21
23.337973
0
LINE
8
Layer 1
10
42.589212
20
23.337973
11
42.663896
21
23.502602
0
LINE
8
Layer 1
10
42.663896
20
23.502602
11
42.740855
21
23.657101
0
LINE
8
Layer 1
10
42.740855
20
23.657101
11
42.820704
21
23.801709
0
LINE
8
Layer 1
10
42.820704
20
23.801709
11
42.904061
21
23.936669
0
LINE
8
Layer 1
10
42.904061
20
23.936669
11
42.991537
21
24.062222
0
LINE
8
Layer 1
10
42.991537
20
24.062222
11
43.083755
21
24.178610
0
LINE
8
Layer 1
10
43.083755
20
24.178610
11
43.181325
21
24.286074
0
LINE
8
Layer 1
10
43.181325
20
24.286074
11
43.284870
21
24.384855
0
LINE
8
Layer 1
10
43.284870
20
24.384855
11
43.394997
21
24.475195
0
LINE
8
Layer 1
10
43.394997
20
24.475195
11
43.512326
21
24.557335
0
LINE
8
Layer 1
10
43.512326
20
24.557335
11
43.637474
21
24.631517
0
LINE
8
Layer 1
10
43.637474
20
24.631517
11
43.771057
21
24.697981
0
LINE
8
Layer 1
10
43.771057
20
24.697981
11
43.913688
21
24.756970
0
LINE
8
Layer 1
10
43.913688
20
24.756970
11
44.065987
21
24.808725
0
LINE
8
Layer 1
10
44.065987
20
24.808725
11
44.228565
21
24.853487
0
LINE
8
Layer 1
10
44.228565
20
24.853487
11
44.402041
21
24.891497
0
LINE
8
Layer 1
10
44.402041
20
24.891497
11
44.587032
21
24.922997
0
LINE
8
Layer 1
10
44.587032
20
24.922997
11
44.784152
21
24.948228
0
LINE
8
Layer 1
10
44.784152
20
24.948228
11
44.994017
21
24.967431
0
LINE
8
Layer 1
10
44.994017
20
24.967431
11
45.217240
21
24.980851
0
LINE
8
Layer 1
10
45.217240
20
24.980851
11
45.454444
21
24.988725
0
LINE
8
Layer 1
10
45.454444
20
24.988725
11
45.706240
21
24.991291
0
LINE
8
Layer 1
10
45.706240
20
24.991291
11
45.833800
21
24.991300
0
LINE
8
Layer 1
10
45.833800
20
24.991300
11
45.961300
21
24.991300
0
LINE
8
Layer 1
10
45.961300
20
24.991300
11
46.088900
21
24.991300
0
LINE
8
Layer 1
10
46.088900
20
24.991300
11
46.216400
21
24.991300
0
LINE
8
Layer 1
10
46.216400
20
24.991300
11
46.343900
21
24.991300
0
LINE
8
Layer 1
10
46.343900
20
24.991300
11
46.471500
21
24.991300
0
LINE
8
Layer 1
10
46.471500
20
24.991300
11
46.599000
21
24.991300
0
LINE
8
Layer 1
10
46.599000
20
24.991300
11
46.726600
21
24.991300
0
LINE
8
Layer 1
10
46.726600
20
24.991300
11
46.854100
21
24.991300
0
LINE
8
Layer 1
10
46.854100
20
24.991300
11
46.981600
21
24.991300
0
LINE
8
Layer 1
10
46.981600
20
24.991300
11
47.109200
21
24.991300
0
LINE
8
Layer 1
10
47.109200
20
24.991300
11
47.236700
21
24.991300
0
LINE
8
Layer 1
10
47.236700
20
24.991300
11
47.364300
21
24.991300
0
LINE
8
Layer 1
10
47.364300
20
24.991300
11
47.491800
21
24.991300
0
LINE
8
Layer 1
10
47.491800
20
24.991300
11
47.619300
21
24.991300
0
LINE
8
Layer 1
10
47.619300
20
24.991300
11
47.746900
21
24.991300
0
LINE
8
Layer 1
10
47.746900
20
24.991300
11
47.874400
21
24.991300
0
LINE
8
Layer 1
10
47.874400
20
24.991300
11
48.002000
21
24.991300
0
LINE
8
Layer 1
10
48.002000
20
24.991300
11
48.129500
21
24.991300
0
LINE
8
Layer 1
10
48.129500
20
24.991300
11
48.257000
21
24.991300
0
LINE
8
Layer 1
10
48.257000
20
24.991300
11
48.384600
21
24.991300
0
LINE
8
Layer 1
10
48.384600
20
24.991300
11
48.512100
21
24.991300
0
LINE
8
Layer 1
10
48.512100
20
24.991300
11
48.639700
21
24.991300
0
LINE
8
Layer 1
10
48.639700
20
24.991300
11
48.767200
21
24.991300
0
LINE
8
Layer 1
10
48.767200
20
24.991300
11
48.894700
21
24.991300
0
LINE
8
Layer 1
10
48.894700
20
24.991300
11
49.022300
21
24.991300
0
LINE
8
Layer 1
10
49.022300
20
24.991300
11
49.149800
21
24.991300
0
LINE
8
Layer 1
10
49.149800
20
24.991300
11
49.277400
21
24.991300
0
LINE
8
Layer 1
10
49.277400
20
24.991300
11
49.404900
21
24.991300
0
LINE
8
Layer 1
10
49.404900
20
24.991300
11
49.532400
21
24.991300
0
LINE
8
Layer 1
10
49.532400
20
24.991300
11
49.660000
21
24.991300
0
LINE
8
Layer 1
10
49.660000
20
24.991300
11
49.787500
21
24.991300
0
LINE
8
Layer 1
10
49.787500
20
24.991300
11
49.750760
21
24.992729
0
LINE
8
Layer 1
10
49.750760
20
24.992729
11
49.711448
21
24.997187
0
LINE
8
Layer 1
10
49.711448
20
24.997187
11
49.669700
21
25.004907
0
LINE
8
Layer 1
10
49.669700
20
25.004907
11
49.625647
21
25.016131
0
LINE
8
Layer 1
10
49.625647
20
25.016131
11
49.579424
21
25.031093
0
LINE
8
Layer 1
10
49.579424
20
25.031093
11
49.531161
21
25.050035
0
LINE
8
Layer 1
10
49.531161
20
25.050035
11
49.480996
21
25.073194
0
LINE
8
Layer 1
10
49.480996
20
25.073194
11
49.429061
21
25.100810
0
LINE
8
Layer 1
10
49.429061
20
25.100810
11
49.375489
21
25.133121
0
LINE
8
Layer 1
10
49.375489
20
25.133121
11
49.320410
21
25.170365
0
LINE
8
Layer 1
10
49.320410
20
25.170365
11
49.263962
21
25.212781
0
LINE
8
Layer 1
10
49.263962
20
25.212781
11
49.206275
21
25.260609
0
LINE
8
Layer 1
10
49.206275
20
25.260609
11
49.147484
21
25.314085
0
LINE
8
Layer 1
10
49.147484
20
25.314085
11
49.087720
21
25.373450
0
LINE
8
Layer 1
10
49.087720
20
25.373450
11
49.027120
21
25.438941
0
LINE
8
Layer 1
10
49.027120
20
25.438941
11
48.965816
21
25.510797
0
LINE
8
Layer 1
10
48.965816
20
25.510797
11
48.903941
21
25.589257
0
LINE
8
Layer 1
10
48.903941
20
25.589257
11
48.841629
21
25.674559
0
LINE
8
Layer 1
10
48.841629
20
25.674559
11
48.779010
21
25.766943
0
LINE
8
Layer 1
10
48.779010
20
25.766943
11
48.716222
21
25.866646
0
LINE
8
Layer 1
10
48.716222
20
25.866646
11
48.653394
21
25.973907
0
LINE
8
Layer 1
10
48.653394
20
25.973907
11
48.590664
21
26.088965
0
LINE
8
Layer 1
10
48.590664
20
26.088965
11
48.528162
21
26.212059
0
LINE
8
Layer 1
10
48.528162
20
26.212059
11
48.466022
21
26.343427
0
LINE
8
Layer 1
10
48.466022
20
26.343427
11
48.404376
21
26.483308
0
LINE
8
Layer 1
10
48.404376
20
26.483308
11
48.343358
21
26.631940
0
LINE
8
Layer 1
10
48.343358
20
26.631940
11
48.283105
21
26.789562
0
LINE
8
Layer 1
10
48.283105
20
26.789562
11
48.223746
21
26.956412
0
LINE
8
Layer 1
10
48.223746
20
26.956412
11
48.165416
21
27.132730
0
LINE
8
Layer 1
10
48.165416
20
27.132730
11
48.108245
21
27.318753
0
LINE
8
Layer 1
10
48.108245
20
27.318753
11
48.052370
21
27.514720
0
LINE
8
Layer 1
10
48.052370
20
27.514720
11
47.997924
21
27.720870
0
LINE
8
Layer 1
10
47.997924
20
27.720870
11
47.912384
21
28.061626
0
LINE
8
Layer 1
10
47.912384
20
28.061626
11
47.829210
21
28.398236
0
LINE
8
Layer 1
10
47.829210
20
28.398236
11
47.748113
21
28.730262
0
LINE
8
Layer 1
10
47.748113
20
28.730262
11
47.668809
21
29.057266
0
LINE
8
Layer 1
10
47.668809
20
29.057266
11
47.591017
21
29.378811
0
LINE
8
Layer 1
10
47.591017
20
29.378811
11
47.514451
21
29.694460
0
LINE
8
Layer 1
10
47.514451
20
29.694460
11
47.438831
21
30.003775
0
LINE
8
Layer 1
10
47.438831
20
30.003775
11
47.363872
21
30.306319
0
LINE
8
Layer 1
10
47.363872
20
30.306319
11
47.289289
21
30.601654
0
LINE
8
Layer 1
10
47.289289
20
30.601654
11
47.214798
21
30.889342
0
LINE
8
Layer 1
10
47.214798
20
30.889342
11
47.140117
21
31.168946
0
LINE
8
Layer 1
10
47.140117
20
31.168946
11
47.064962
21
31.440029
0
LINE
8
Layer 1
10
47.064962
20
31.440029
11
46.989051
21
31.702153
0
LINE
8
Layer 1
10
46.989051
20
31.702153
11
46.912097
21
31.954881
0
LINE
8
Layer 1
10
46.912097
20
31.954881
11
46.833820
21
32.197775
0
LINE
8
Layer 1
10
46.833820
20
32.197775
11
46.753931
21
32.430397
0
LINE
8
Layer 1
10
46.753931
20
32.430397
11
46.672151
21
32.652310
0
LINE
8
Layer 1
10
46.672151
20
32.652310
11
46.588199
21
32.863077
0
LINE
8
Layer 1
10
46.588199
20
32.863077
11
46.501786
21
33.062260
0
LINE
8
Layer 1
10
46.501786
20
33.062260
11
46.412630
21
33.249422
0
LINE
8
Layer 1
10
46.412630
20
33.249422
11
46.320449
21
33.424125
0
LINE
8
Layer 1
10
46.320449
20
33.424125
11
46.224956
21
33.585932
0
LINE
8
Layer 1
10
46.224956
20
33.585932
11
46.125872
21
33.734405
0
LINE
8
Layer 1
10
46.125872
20
33.734405
11
46.022910
21
33.869107
0
LINE
8
Layer 1
10
46.022910
20
33.869107
11
45.915788
21
33.989600
0
LINE
8
Layer 1
10
45.915788
20
33.989600
11
45.804221
21
34.095447
0
LINE
8
Layer 1
10
45.804221
20
34.095447
11
45.687926
21
34.186210
0
LINE
8
Layer 1
10
45.687926
20
34.186210
11
45.566620
21
34.261451
0
LINE
8
Layer 1
10
45.566620
20
34.261451
11
45.440020
21
34.320734
0
LINE
8
Layer 1
10
45.440020
20
34.320734
11
45.307840
21
34.363621
0
LINE
8
Layer 1
10
45.307840
20
34.363621
11
45.169802
21
34.389674
0
LINE
8
Layer 1
10
45.169802
20
34.389674
11
45.025615
21
34.398456
0
LINE
8
Layer 1
10
45.025615
20
34.398456
11
44.880584
21
34.389537
0
LINE
8
Layer 1
10
44.880584
20
34.389537
11
44.740075
21
34.363086
0
LINE
8
Layer 1
10
44.740075
20
34.363086
11
44.603905
21
34.319567
0
LINE
8
Layer 1
10
44.603905
20
34.319567
11
44.471894
21
34.259442
0
LINE
8
Layer 1
10
44.471894
20
34.259442
11
44.343857
21
34.183171
0
LINE
8
Layer 1
10
44.343857
20
34.183171
11
44.219614
21
34.091217
0
LINE
8
Layer 1
10
44.219614
20
34.091217
11
44.098980
21
33.984042
0
LINE
8
Layer 1
10
44.098980
20
33.984042
11
43.981775
21
33.862108
0
LINE
8
Layer 1
10
43.981775
20
33.862108
11
43.867814
21
33.725876
0
LINE
8
Layer 1
10
43.867814
20
33.725876
11
43.756914
21
33.575810
0
LINE
8
Layer 1
10
43.756914
20
33.575810
11
43.648895
21
33.412371
0
LINE
8
Layer 1
10
43.648895
20
33.412371
11
43.543572
21
33.236020
0
LINE
8
Layer 1
10
43.543572
20
33.236020
11
43.440766
21
33.047220
0
LINE
8
Layer 1
10
43.440766
20
33.047220
11
43.340291
21
32.846432
0
LINE
8
Layer 1
10
43.340291
20
32.846432
11
43.241967
21
32.634118
0
LINE
8
Layer 1
10
43.241967
20
32.634118
11
43.145611
21
32.410740
0
LINE
8
Layer 1
10
43.145611
20
32.410740
11
43.051039
21
32.176761
0
LINE
8
Layer 1
10
43.051039
20
32.176761
11
42.958069
21
31.932642
0
LINE
8
Layer 1
10
42.958069
20
31.932642
11
42.866521
21
31.678845
0
LINE
8
Layer 1
10
42.866521
20
31.678845
11
42.776208
21
31.415832
0
LINE
8
Layer 1
10
42.776208
20
31.415832
11
42.686951
21
31.144065
0
LINE
8
Layer 1
10
42.686951
20
31.144065
11
42.598565
21
30.864006
0
LINE
8
Layer 1
10
42.598565
20
30.864006
11
42.510869
21
30.576117
0
LINE
8
Layer 1
10
42.510869
20
30.576117
11
42.423678
21
30.280859
0
LINE
8
Layer 1
10
42.423678
20
30.280859
11
42.336813
21
29.978695
0
LINE
8
Layer 1
10
42.336813
20
29.978695
11
42.250090
21
29.670086
0
LINE
8
Layer 1
10
42.250090
20
29.670086
11
42.163328
21
29.355495
0
LINE
8
Layer 1
10
42.163328
20
29.355495
11
42.076344
21
29.035383
0
LINE
8
Layer 1
10
42.076344
20
29.035383
11
41.988952
21
28.710213
0
LINE
8
Layer 1
10
41.988952
20
28.710213
11
41.900973
21
28.380446
0
LINE
8
Layer 1
10
41.900973
20
28.380446
11
41.812224
21
28.046545
0
LINE
8
Layer 1
10
41.812224
20
28.046545
11
41.722522
21
27.708971
0
LINE
8
Layer 1
10
41.722522
20
27.708971
11
41.670966
21
27.513540
0
LINE
8
Layer 1
10
41.670966
20
27.513540
11
41.619062
21
27.326932
0
LINE
8
Layer 1
10
41.619062
20
27.326932
11
41.566760
21
27.148974
0
LINE
8
Layer 1
10
41.566760
20
27.148974
11
41.514007
21
26.979495
0
LINE
8
Layer 1
10
41.514007
20
26.979495
11
41.460749
21
26.818322
0
LINE
8
Layer 1
10
41.460749
20
26.818322
11
41.406933
21
26.665285
0
LINE
8
Layer 1
10
41.406933
20
26.665285
11
41.352506
21
26.520212
0
LINE
8
Layer 1
10
41.352506
20
26.520212
11
41.297414
21
26.382931
0
LINE
8
Layer 1
10
41.297414
20
26.382931
11
41.241606
21
26.253270
0
LINE
8
Layer 1
10
41.241606
20
26.253270
11
41.185027
21
26.131058
0
LINE
8
Layer 1
10
41.185027
20
26.131058
11
41.127626
21
26.016122
0
LINE
8
Layer 1
10
41.127626
20
26.016122
11
41.069346
21
25.908292
0
LINE
8
Layer 1
10
41.069346
20
25.908292
11
41.010138
21
25.807395
0
LINE
8
Layer 1
10
41.010138
20
25.807395
11
40.949945
21
25.713261
0
LINE
8
Layer 1
10
40.949945
20
25.713261
11
40.888718
21
25.625716
0
LINE
8
Layer 1
10
40.888718
20
25.625716
11
40.826401
21
25.544590
0
LINE
8
Layer 1
10
40.826401
20
25.544590
11
40.762943
21
25.469710
0
LINE
8
Layer 1
10
40.762943
20
25.469710
11
40.698287
21
25.400906
0
LINE
8
Layer 1
10
40.698287
20
25.400906
11
40.632385
21
25.338006
0
LINE
8
Layer 1
10
40.632385
20
25.338006
11
40.565181
21
25.280837
0
LINE
8
Layer 1
10
40.565181
20
25.280837
11
40.496622
21
25.229228
0
LINE
8
Layer 1
10
40.496622
20
25.229228
11
40.426653
21
25.183007
0
LINE
8
Layer 1
10
40.426653
20
25.183007
11
40.355226
21
25.142004
0
LINE
8
Layer 1
10
40.355226
20
25.142004
11
40.282283
21
25.106045
0
LINE
8
Layer 1
10
40.282283
20
25.106045
11
40.207774
21
25.074960
0
LINE
8
Layer 1
10
40.207774
20
25.074960
11
40.131643
21
25.048575
0
LINE
8
Layer 1
10
40.131643
20
25.048575
11
40.053840
21
25.026724
0
LINE
8
Layer 1
10
40.053840
20
25.026724
11
39.974311
21
25.009229
0
LINE
8
Layer 1
10
39.974311
20
25.009229
11
39.893000
21
24.995921
0
LINE
8
Layer 1
10
39.893000
20
24.995921
11
39.809857
21
24.986629
0
LINE
8
Layer 1
10
39.809857
20
24.986629
11
39.724828
21
24.981178
0
LINE
8
Layer 1
10
39.724828
20
24.981178
11
39.637860
21
24.979406
0
LINE
8
Layer 1
10
39.637860
20
24.979406
11
39.550137
21
24.980808
0
LINE
8
Layer 1
10
39.550137
20
24.980808
11
39.462804
21
24.985562
0
LINE
8
Layer 1
10
39.462804
20
24.985562
11
39.375756
21
24.994545
0
LINE
8
Layer 1
10
39.375756
20
24.994545
11
39.288877
21
25.008621
0
LINE
8
Layer 1
10
39.288877
20
25.008621
11
39.202062
21
25.028658
0
LINE
8
Layer 1
10
39.202062
20
25.028658
11
39.115202
21
25.055519
0
LINE
8
Layer 1
10
39.115202
20
25.055519
11
39.028189
21
25.090072
0
LINE
8
Layer 1
10
39.028189
20
25.090072
11
38.940908
21
25.133183
0
LINE
8
Layer 1
10
38.940908
20
25.133183
11
38.853255
21
25.185715
0
LINE
8
Layer 1
10
38.853255
20
25.185715
11
38.765114
21
25.248537
0
LINE
8
Layer 1
10
38.765114
20
25.248537
11
38.676383
21
25.322512
0
LINE
8
Layer 1
10
38.676383
20
25.322512
11
38.586949
21
25.408508
0
LINE
8
Layer 1
10
38.586949
20
25.408508
11
38.496705
21
25.507389
0
LINE
8
Layer 1
10
38.496705
20
25.507389
11
38.405538
21
25.620022
0
LINE
8
Layer 1
10
38.405538
20
25.620022
11
38.313339
21
25.747272
0
LINE
8
Layer 1
10
38.313339
20
25.747272
11
38.220002
21
25.890005
0
LINE
8
Layer 1
10
38.220002
20
25.890005
11
38.125416
21
26.049087
0
LINE
8
Layer 1
10
38.125416
20
26.049087
11
38.029470
21
26.225384
0
LINE
8
Layer 1
10
38.029470
20
26.225384
11
37.932056
21
26.419761
0
LINE
8
Layer 1
10
37.932056
20
26.419761
11
37.833065
21
26.633084
0
LINE
8
Layer 1
10
37.833065
20
26.633084
11
37.732386
21
26.866219
0
LINE
8
Layer 1
10
37.732386
20
26.866219
11
37.629913
21
27.120032
0
LINE
8
Layer 1
10
37.629913
20
27.120032
11
37.525532
21
27.395388
0
LINE
8
Layer 1
10
37.525532
20
27.395388
11
37.419138
21
27.693154
0
LINE
8
Layer 1
10
37.419138
20
27.693154
11
37.310619
21
28.014195
0
LINE
8
Layer 1
10
37.310619
20
28.014195
11
37.199865
21
28.359376
0
LINE
8
Layer 1
10
37.199865
20
28.359376
11
37.086766
21
28.729564
0
LINE
8
Layer 1
10
37.086766
20
28.729564
11
36.971217
21
29.125624
0
LINE
8
Layer 1
10
36.971217
20
29.125624
11
36.853105
21
29.548422
0
LINE
8
Layer 1
10
36.853105
20
29.548422
11
36.732323
21
29.998824
0
LINE
8
Layer 1
10
36.732323
20
29.998824
11
36.608757
21
30.477696
0
LINE
8
Layer 1
10
36.608757
20
30.477696
11
36.482305
21
30.985903
0
LINE
8
Layer 1
10
36.482305
20
30.985903
11
36.369257
21
31.453889
0
LINE
8
Layer 1
10
36.369257
20
31.453889
11
36.258124
21
31.942474
0
LINE
8
Layer 1
10
36.258124
20
31.942474
11
36.148245
21
32.449332
0
LINE
8
Layer 1
10
36.148245
20
32.449332
11
36.038956
21
32.972138
0
LINE
8
Layer 1
10
36.038956
20
32.972138
11
35.929593
21
33.508568
0
LINE
8
Layer 1
10
35.929593
20
33.508568
11
35.819495
21
34.056296
0
LINE
8
Layer 1
10
35.819495
20
34.056296
11
35.707994
21
34.612997
0
LINE
8
Layer 1
10
35.707994
20
34.612997
11
35.594432
21
35.176346
0
LINE
8
Layer 1
10
35.594432
20
35.176346
11
35.478145
21
35.744017
0
LINE
8
Layer 1
10
35.478145
20
35.744017
11
35.358469
21
36.313686
0
LINE
8
Layer 1
10
35.358469
20
36.313686
11
35.234739
21
36.883027
0
LINE
8
Layer 1
10
35.234739
20
36.883027
11
35.106295
21
37.449715
0
LINE
8
Layer 1
10
35.106295
20
37.449715
11
34.972472
21
38.011426
0
LINE
8
Layer 1
10
34.972472
20
38.011426
11
34.832605
21
38.565833
0
LINE
8
Layer 1
10
34.832605
20
38.565833
11
34.686034
21
39.110612
0
LINE
8
Layer 1
10
34.686034
20
39.110612
11
34.532097
21
39.643438
0
LINE
8
Layer 1
10
34.532097
20
39.643438
11
34.370127
21
40.161986
0
LINE
8
Layer 1
10
34.370127
20
40.161986
11
34.199460
21
40.663930
0
LINE
8
Layer 1
10
34.199460
20
40.663930
11
34.019435
21
41.146945
0
LINE
8
Layer 1
10
34.019435
20
41.146945
11
33.829390
21
41.608706
0
LINE
8
Layer 1
10
33.829390
20
41.608706
11
33.628661
21
42.046889
0
LINE
8
Layer 1
10
33.628661
20
42.046889
11
33.416582
21
42.459167
0
LINE
8
Layer 1
10
33.416582
20
42.459167
11
33.192493
21
42.843215
0
LINE
8
Layer 1
10
33.192493
20
42.843215
11
32.955731
21
43.196709
0
LINE
8
Layer 1
10
32.955731
20
43.196709
11
32.705631
21
43.517323
0
LINE
8
Layer 1
10
32.705631
20
43.517323
11
32.441532
21
43.802733
0
LINE
8
Layer 1
10
32.441532
20
43.802733
11
32.162770
21
44.050612
0
LINE
8
Layer 1
10
32.162770
20
44.050612
11
31.868678
21
44.258637
0
LINE
8
Layer 1
10
31.868678
20
44.258637
11
31.558597
21
44.424481
0
LINE
8
Layer 1
10
31.558597
20
44.424481
11
31.231863
21
44.545820
0
LINE
8
Layer 1
10
31.231863
20
44.545820
11
30.795002
21
44.620329
0
LINE
8
Layer 1
10
30.795002
20
44.620329
11
30.525784
21
44.645681
0
LINE
8
Layer 1
10
30.525784
20
44.645681
11
30.525800
21
44.645700
0
LINE
8
Layer 1
10
30.525800
20
44.645700
11
30.525800
21
44.645700
0
LINE
8
Layer 1
10
30.525800
20
44.645700
11
30.525800
21
44.645700
0
LINE
8
Layer 1
10
30.525800
20
44.645700
11
30.525800
21
44.645700
 0 
ENDSEC
 0 
EOF