  0
SECTION
  2
HEADER
  9
$ACADVER
  1
AC1014
  9
$HANDSEED
  5
FFFF
  9
$MEASUREMENT
 70
     1
  0
ENDSEC
  0
SECTION
  2
TABLES
  0
TABLE
  2
VPORT
  5
8
330
0
100
AcDbSymbolTable
 70
     4
  0
VPORT
  5
2E
330
8
100
AcDbSymbolTableRecord
100
AcDbViewportTableRecord
  2
*ACTIVE
 70
     0
 10
0.0
 20
0.0
 11
1.0
 21
1.0
 12
210.0
 22
148.5
 13
0.0
 23
0.0
 14
10.0
 24
10.0
 15
10.0
 25
10.0
 16
0.0
 26
0.0
 36
1.0
 17
0.0
 27
0.0
 37
0.0
 40
341.0
 41
1.24
 42
50.0
 43
0.0
 44
0.0
 50
0.0
 51
0.0
 71
     0
 72
   100
 73
     1
 74
     3
 75
     0
 76
     0
 77
     0
 78
     0
  0
ENDTAB
  0
TABLE
  2
LTYPE
  5
5
330
0
100
AcDbSymbolTable
 70
     1
  0
LTYPE
  5
14
330
5
100
AcDbSymbolTableRecord
100
AcDbLinetypeTableRecord
  2
BYBLOCK
 70
     0
  3

 72
    65
 73
     0
 40
0.0
  0
LTYPE
  5
15
330
5
100
AcDbSymbolTableRecord
100
AcDbLinetypeTableRecord
  2
BYLAYER
 70
     0
  3

 72
    65
 73
     0
 40
0.0
  0
LTYPE
  5
16
330
5
100
AcDbSymbolTableRecord
100
AcDbLinetypeTableRecord
  2
CONTINUOUS
 70
     0
  3
Solid line
 72
    65
 73
     0
 40
0.0
  0
ENDTAB
  0
TABLE
  2
LAYER
  5
2
100
AcDbSymbolTable
 70
1
  0
LAYER
  5
50
100
AcDbSymbolTableRecord
100
AcDbLayerTableRecord
  2
0
 70
0
  6
CONTINUOUS
  0
ENDTAB
  0
TABLE
  2
STYLE
  5
3
330
0
100
AcDbSymbolTable
 70
     1
  0
STYLE
  5
11
330
3
100
AcDbSymbolTableRecord
100
AcDbTextStyleTableRecord
  2
STANDARD
 70
     0
 40
0.0
 41
1.0
 50
0.0
 71
     0
 42
2.5
  3
txt
  4

  0
ENDTAB
  0
TABLE
  2
VIEW
  5
6
330
0
100
AcDbSymbolTable
 70
     0
  0
ENDTAB
  0
TABLE
  2
UCS
  5
7
330
0
100
AcDbSymbolTable
 70
     0
  0
ENDTAB
  0
TABLE
  2
APPID
  5
9
330
0
100
AcDbSymbolTable
 70
     2
  0
APPID
  5
12
330
9
100
AcDbSymbolTableRecord
100
AcDbRegAppTableRecord
  2
ACAD
 70
     0
  0
ENDTAB
  0
TABLE
  2
DIMSTYLE
  5
A
330
0
100
AcDbSymbolTable
 70
     1
  0
DIMSTYLE
105
27
330
A
100
AcDbSymbolTableRecord
100
AcDbDimStyleTableRecord
  2
ISO-25
 70
     0
  3

  4

  5

  6

  7

 40
1.0
 41
2.5
 42
0.625
 43
3.75
 44
1.25
 45
0.0
 46
0.0
 47
0.0
 48
0.0
140
2.5
141
2.5
142
0.0
143
0.03937007874016
144
1.0
145
0.0
146
1.0
147
0.625
 71
     0
 72
     0
 73
     0
 74
     0
 75
     0
 76
     0
 77
     1
 78
     8
170
     0
171
     3
172
     1
173
     0
174
     0
175
     0
176
     0
177
     0
178
     0
270
     2
271
     2
272
     2
273
     2
274
     3
340
11
275
     0
280
     0
281
     0
282
     0
283
     0
284
     8
285
     0
286
     0
287
     3
288
     0
  0
ENDTAB
  0
TABLE
  2
BLOCK_RECORD
  5
1
330
0
100
AcDbSymbolTable
 70
     1
  0
BLOCK_RECORD
  5
1F
330
1
100
AcDbSymbolTableRecord
100
AcDbBlockTableRecord
  2
*MODEL_SPACE
  0
BLOCK_RECORD
  5
1B
330
1
100
AcDbSymbolTableRecord
100
AcDbBlockTableRecord
  2
*PAPER_SPACE
  0
ENDTAB
  0
ENDSEC
  0
SECTION
  2
BLOCKS
  0
BLOCK
  5
20
330
1F
100
AcDbEntity
  8
0
100
AcDbBlockBegin
  2
*MODEL_SPACE
 70
     0
 10
0.0
 20
0.0
 30
0.0
  3
*MODEL_SPACE
  1

  0
ENDBLK
  5
21
330
1F
100
AcDbEntity
  8
0
100
AcDbBlockEnd
  0
BLOCK
  5
1C
330
1B
100
AcDbEntity
 67
     1
  8
0
100
AcDbBlockBegin
  2
*PAPER_SPACE
  1

  0
ENDBLK
  5
1D
330
1B
100
AcDbEntity
 67
     1
  8
0
100
AcDbBlockEnd
  0
ENDSEC
  0
SECTION
  2
ENTITIES
  0
LWPOLYLINE
  5
100
100
AcDbEntity
  8
0
 62
7
100
AcDbPolyline
 90
1024
 70
1
 10
29.369994
 20
60.557143
 30
0.0
 10
29.655544
 20
60.660479
 30
0.0
 10
29.941593
 20
60.762208
 30
0.0
 10
30.228135
 20
60.862328
 30
0.0
 10
30.515163
 20
60.960837
 30
0.0
 10
30.802670
 20
61.057736
 30
0.0
 10
31.090649
 20
61.153021
 30
0.0
 10
31.379093
 20
61.246693
 30
0.0
 10
31.667996
 20
61.338751
 30
0.0
 10
31.957350
 20
61.429192
 30
0.0
 10
32.247150
 20
61.518015
 30
0.0
 10
32.537387
 20
61.605220
 30
0.0
 10
32.828056
 20
61.690806
 30
0.0
 10
33.119149
 20
61.774770
 30
0.0
 10
33.410660
 20
61.857113
 30
0.0
 10
33.702582
 20
61.937832
 30
0.0
 10
33.994907
 20
62.016927
 30
0.0
 10
34.287629
 20
62.094396
 30
0.0
 10
34.580742
 20
62.170238
 30
0.0
 10
34.874237
 20
62.244452
 30
0.0
 10
35.168110
 20
62.317037
 30
0.0
 10
35.462352
 20
62.387991
 30
0.0
 10
35.756957
 20
62.457314
 30
0.0
 10
36.051918
 20
62.525003
 30
0.0
 10
36.347227
 20
62.591059
 30
0.0
 10
36.642880
 20
62.655479
 30
0.0
 10
36.938869
 20
62.718263
 30
0.0
 10
37.235185
 20
62.779410
 30
0.0
 10
37.531824
 20
62.838917
 30
0.0
 10
37.828777
 20
62.896785
 30
0.0
 10
38.126039
 20
62.953012
 30
0.0
 10
38.423601
 20
63.007596
 30
0.0
 10
38.721459
 20
63.060536
 30
0.0
 10
39.019604
 20
63.111832
 30
0.0
 10
39.318030
 20
63.161481
 30
0.0
 10
39.616730
 20
63.209483
 30
0.0
 10
39.915698
 20
63.255837
 30
0.0
 10
40.214925
 20
63.300542
 30
0.0
 10
40.514406
 20
63.343595
 30
0.0
 10
40.814134
 20
63.384997
 30
0.0
 10
41.114101
 20
63.424745
 30
0.0
 10
41.414301
 20
63.462839
 30
0.0
 10
41.714728
 20
63.499277
 30
0.0
 10
42.015374
 20
63.534059
 30
0.0
 10
42.316232
 20
63.567182
 30
0.0
 10
42.617296
 20
63.598647
 30
0.0
 10
42.918559
 20
63.628451
 30
0.0
 10
43.220014
 20
63.656594
 30
0.0
 10
43.521653
 20
63.683074
 30
0.0
 10
43.823471
 20
63.707890
 30
0.0
 10
44.125461
 20
63.731040
 30
0.0
 10
44.427616
 20
63.752525
 30
0.0
 10
44.729927
 20
63.772342
 30
0.0
 10
45.032390
 20
63.790490
 30
0.0
 10
45.334998
 20
63.806968
 30
0.0
 10
45.637742
 20
63.821775
 30
0.0
 10
45.940617
 20
63.834910
 30
0.0
 10
46.243615
 20
63.846372
 30
0.0
 10
46.546731
 20
63.856158
 30
0.0
 10
46.849955
 20
63.864269
 30
0.0
 10
47.153284
 20
63.870703
 30
0.0
 10
47.456708
 20
63.875458
 30
0.0
 10
47.760222
 20
63.878534
 30
0.0
 10
48.063819
 20
63.879930
 30
0.0
 10
48.367491
 20
63.879643
 30
0.0
 10
48.692442
 20
63.879942
 30
0.0
 10
49.017325
 20
63.878585
 30
0.0
 10
49.342133
 20
63.875574
 30
0.0
 10
49.666860
 20
63.870908
 30
0.0
 10
49.991500
 20
63.864590
 30
0.0
 10
50.316047
 20
63.856620
 30
0.0
 10
50.640494
 20
63.846999
 30
0.0
 10
50.964836
 20
63.835728
 30
0.0
 10
51.289065
 20
63.822808
 30
0.0
 10
51.613176
 20
63.808240
 30
0.0
 10
51.937163
 20
63.792026
 30
0.0
 10
52.261019
 20
63.774165
 30
0.0
 10
52.584739
 20
63.754660
 30
0.0
 10
52.908316
 20
63.733510
 30
0.0
 10
53.231743
 20
63.710718
 30
0.0
 10
53.555015
 20
63.686284
 30
0.0
 10
53.878125
 20
63.660209
 30
0.0
 10
54.201067
 20
63.632494
 30
0.0
 10
54.523836
 20
63.603141
 30
0.0
 10
54.846423
 20
63.572149
 30
0.0
 10
55.168825
 20
63.539520
 30
0.0
 10
55.491033
 20
63.505256
 30
0.0
 10
55.813043
 20
63.469356
 30
0.0
 10
56.134847
 20
63.431823
 30
0.0
 10
56.456440
 20
63.392657
 30
0.0
 10
56.777816
 20
63.351859
 30
0.0
 10
57.098968
 20
63.309430
 30
0.0
 10
57.419890
 20
63.265371
 30
0.0
 10
57.740576
 20
63.219683
 30
0.0
 10
58.061019
 20
63.172367
 30
0.0
 10
58.381214
 20
63.123424
 30
0.0
 10
58.701153
 20
63.072856
 30
0.0
 10
59.020832
 20
63.020662
 30
0.0
 10
59.340243
 20
62.966845
 30
0.0
 10
59.659382
 20
62.911404
 30
0.0
 10
59.978239
 20
62.854342
 30
0.0
 10
60.296812
 20
62.795659
 30
0.0
 10
60.615092
 20
62.735356
 30
0.0
 10
60.933074
 20
62.673433
 30
0.0
 10
61.250751
 20
62.609893
 30
0.0
 10
61.568118
 20
62.544736
 30
0.0
 10
61.885167
 20
62.477963
 30
0.0
 10
62.201893
 20
62.409575
 30
0.0
 10
62.518290
 20
62.339573
 30
0.0
 10
62.834351
 20
62.267959
 30
0.0
 10
63.150071
 20
62.194732
 30
0.0
 10
63.465443
 20
62.119894
 30
0.0
 10
63.780460
 20
62.043446
 30
0.0
 10
64.095117
 20
61.965389
 30
0.0
 10
64.409407
 20
61.885725
 30
0.0
 10
64.723324
 20
61.804453
 30
0.0
 10
65.036862
 20
61.721576
 30
0.0
 10
65.350014
 20
61.637093
 30
0.0
 10
65.662776
 20
61.551007
 30
0.0
 10
65.975139
 20
61.463317
 30
0.0
 10
66.287099
 20
61.374026
 30
0.0
 10
66.598648
 20
61.283134
 30
0.0
 10
66.909781
 20
61.190641
 30
0.0
 10
67.220492
 20
61.096550
 30
0.0
 10
67.530773
 20
61.000861
 30
0.0
 10
67.840620
 20
60.903574
 30
0.0
 10
68.150025
 20
60.804692
 30
0.0
 10
68.458983
 20
60.704215
 30
0.0
 10
68.767487
 20
60.602144
 30
0.0
 10
68.739130
 20
60.539725
 30
0.0
 10
68.710547
 20
60.477416
 30
0.0
 10
68.681747
 20
60.415217
 30
0.0
 10
68.652722
 20
60.353129
 30
0.0
 10
68.623480
 20
60.291152
 30
0.0
 10
68.594012
 20
60.229286
 30
0.0
 10
68.564320
 20
60.167534
 30
0.0
 10
68.534410
 20
60.105894
 30
0.0
 10
68.504282
 20
60.044368
 30
0.0
 10
68.473930
 20
59.982956
 30
0.0
 10
68.443360
 20
59.921658
 30
0.0
 10
68.412572
 20
59.860476
 30
0.0
 10
68.381560
 20
59.799410
 30
0.0
 10
68.350330
 20
59.738460
 30
0.0
 10
68.318882
 20
59.677626
 30
0.0
 10
68.287217
 20
59.616911
 30
0.0
 10
68.255335
 20
59.556314
 30
0.0
 10
68.223235
 20
59.495835
 30
0.0
 10
68.190917
 20
59.435476
 30
0.0
 10
68.158382
 20
59.375237
 30
0.0
 10
68.125630
 20
59.315118
 30
0.0
 10
68.092660
 20
59.255121
 30
0.0
 10
68.059480
 20
59.195244
 30
0.0
 10
68.026082
 20
59.135490
 30
0.0
 10
67.992467
 20
59.075859
 30
0.0
 10
67.958642
 20
59.016351
 30
0.0
 10
67.924600
 20
58.956966
 30
0.0
 10
67.890340
 20
58.897707
 30
0.0
 10
67.855870
 20
58.838572
 30
0.0
 10
67.821190
 20
58.779564
 30
0.0
 10
67.786292
 20
58.720681
 30
0.0
 10
67.751185
 20
58.661925
 30
0.0
 10
67.715867
 20
58.603297
 30
0.0
 10
67.680332
 20
58.544797
 30
0.0
 10
67.644587
 20
58.486425
 30
0.0
 10
67.608632
 20
58.428182
 30
0.0
 10
67.572467
 20
58.370069
 30
0.0
 10
67.536092
 20
58.312086
 30
0.0
 10
67.499507
 20
58.254234
 30
0.0
 10
67.462712
 20
58.196513
 30
0.0
 10
67.425707
 20
58.138924
 30
0.0
 10
67.388492
 20
58.081468
 30
0.0
 10
67.351067
 20
58.024145
 30
0.0
 10
67.313432
 20
57.966956
 30
0.0
 10
67.275587
 20
57.909901
 30
0.0
 10
67.237540
 20
57.852982
 30
0.0
 10
67.199282
 20
57.796197
 30
0.0
 10
67.160822
 20
57.739549
 30
0.0
 10
67.122152
 20
57.683037
 30
0.0
 10
67.083272
 20
57.626662
 30
0.0
 10
67.044190
 20
57.570425
 30
0.0
 10
67.004897
 20
57.514327
 30
0.0
 10
66.965402
 20
57.458367
 30
0.0
 10
66.925705
 20
57.402547
 30
0.0
 10
66.885797
 20
57.346867
 30
0.0
 10
66.845687
 20
57.291327
 30
0.0
 10
66.805375
 20
57.235929
 30
0.0
 10
66.764860
 20
57.180673
 30
0.0
 10
66.724142
 20
57.125559
 30
0.0
 10
66.683222
 20
57.070588
 30
0.0
 10
66.642100
 20
57.015761
 30
0.0
 10
66.600775
 20
56.961077
 30
0.0
 10
66.559247
 20
56.906539
 30
0.0
 10
66.517518
 20
56.852145
 30
0.0
 10
66.429856
 20
56.731228
 30
0.0
 10
66.341966
 20
56.610343
 30
0.0
 10
66.253871
 20
56.489480
 30
0.0
 10
66.165594
 20
56.368626
 30
0.0
 10
66.077161
 20
56.247771
 30
0.0
 10
65.988594
 20
56.126903
 30
0.0
 10
65.899917
 20
56.006012
 30
0.0
 10
65.811156
 20
55.885085
 30
0.0
 10
65.722332
 20
55.764111
 30
0.0
 10
65.633469
 20
55.643080
 30
0.0
 10
65.544594
 20
55.521979
 30
0.0
 10
65.455728
 20
55.400797
 30
0.0
 10
65.366895
 20
55.279523
 30
0.0
 10
65.278120
 20
55.158146
 30
0.0
 10
65.189427
 20
55.036654
 30
0.0
 10
65.100838
 20
54.915036
 30
0.0
 10
65.012379
 20
54.793281
 30
0.0
 10
64.924072
 20
54.671378
 30
0.0
 10
64.835943
 20
54.549314
 30
0.0
 10
64.748014
 20
54.427079
 30
0.0
 10
64.660309
 20
54.304661
 30
0.0
 10
64.572854
 20
54.182049
 30
0.0
 10
64.485670
 20
54.059232
 30
0.0
 10
64.398783
 20
53.936199
 30
0.0
 10
64.312215
 20
53.812937
 30
0.0
 10
64.225991
 20
53.689436
 30
0.0
 10
64.140135
 20
53.565684
 30
0.0
 10
64.054671
 20
53.441671
 30
0.0
 10
63.969622
 20
53.317384
 30
0.0
 10
63.885012
 20
53.192813
 30
0.0
 10
63.800865
 20
53.067945
 30
0.0
 10
63.717206
 20
52.942771
 30
0.0
 10
63.634057
 20
52.817278
 30
0.0
 10
63.551443
 20
52.691454
 30
0.0
 10
63.469388
 20
52.565290
 30
0.0
 10
63.387914
 20
52.438774
 30
0.0
 10
63.307048
 20
52.311892
 30
0.0
 10
63.226811
 20
52.184636
 30
0.0
 10
63.147228
 20
52.056994
 30
0.0
 10
63.068324
 20
51.928953
 30
0.0
 10
62.990121
 20
51.800503
 30
0.0
 10
62.912644
 20
51.671632
 30
0.0
 10
62.835916
 20
51.542330
 30
0.0
 10
62.759961
 20
51.412585
 30
0.0
 10
62.684804
 20
51.282385
 30
0.0
 10
62.610472
 20
51.151718
 30
0.0
 10
62.536980
 20
51.020576
 30
0.0
 10
62.464357
 20
50.888943
 30
0.0
 10
62.392627
 20
50.756812
 30
0.0
 10
62.321812
 20
50.624169
 30
0.0
 10
62.251942
 20
50.491004
 30
0.0
 10
62.183032
 20
50.357304
 30
0.0
 10
62.115112
 20
50.223059
 30
0.0
 10
62.048205
 20
50.088259
 30
0.0
 10
61.982332
 20
49.952890
 30
0.0
 10
61.917517
 20
49.816942
 30
0.0
 10
61.853790
 20
49.680403
 30
0.0
 10
61.791165
 20
49.543263
 30
0.0
 10
61.729672
 20
49.405509
 30
0.0
 10
61.669335
 20
49.267131
 30
0.0
 10
61.610175
 20
49.128117
 30
0.0
 10
61.552222
 20
48.988456
 30
0.0
 10
61.495492
 20
48.848136
 30
0.0
 10
61.440015
 20
48.707147
 30
0.0
 10
61.423590
 20
48.668927
 30
0.0
 10
61.407337
 20
48.630640
 30
0.0
 10
61.391257
 20
48.592285
 30
0.0
 10
61.375357
 20
48.553862
 30
0.0
 10
61.359630
 20
48.515372
 30
0.0
 10
61.344082
 20
48.476815
 30
0.0
 10
61.328715
 20
48.438197
 30
0.0
 10
61.313520
 20
48.399512
 30
0.0
 10
61.298505
 20
48.360767
 30
0.0
 10
61.283662
 20
48.321955
 30
0.0
 10
61.269000
 20
48.283082
 30
0.0
 10
61.254517
 20
48.244150
 30
0.0
 10
61.240207
 20
48.205150
 30
0.0
 10
61.226077
 20
48.166090
 30
0.0
 10
61.212127
 20
48.126970
 30
0.0
 10
61.198357
 20
48.087790
 30
0.0
 10
61.184760
 20
48.048557
 30
0.0
 10
61.171342
 20
48.009265
 30
0.0
 10
61.158105
 20
47.969912
 30
0.0
 10
61.145047
 20
47.930507
 30
0.0
 10
61.132170
 20
47.891042
 30
0.0
 10
61.119472
 20
47.851525
 30
0.0
 10
61.106947
 20
47.811947
 30
0.0
 10
61.094610
 20
47.772317
 30
0.0
 10
61.082445
 20
47.732635
 30
0.0
 10
61.070460
 20
47.692900
 30
0.0
 10
61.058655
 20
47.653112
 30
0.0
 10
61.047030
 20
47.613272
 30
0.0
 10
61.035585
 20
47.573380
 30
0.0
 10
61.024320
 20
47.533435
 30
0.0
 10
61.013235
 20
47.493445
 30
0.0
 10
61.002337
 20
47.453402
 30
0.0
 10
60.991620
 20
47.413315
 30
0.0
 10
60.981082
 20
47.373175
 30
0.0
 10
60.970725
 20
47.332990
 30
0.0
 10
60.960547
 20
47.292760
 30
0.0
 10
60.950557
 20
47.252477
 30
0.0
 10
60.940747
 20
47.212150
 30
0.0
 10
60.931117
 20
47.171777
 30
0.0
 10
60.921667
 20
47.131360
 30
0.0
 10
60.912405
 20
47.090905
 30
0.0
 10
60.903322
 20
47.050405
 30
0.0
 10
60.894420
 20
47.009860
 30
0.0
 10
60.885705
 20
46.969270
 30
0.0
 10
60.877170
 20
46.928642
 30
0.0
 10
60.868822
 20
46.887977
 30
0.0
 10
60.860655
 20
46.847267
 30
0.0
 10
60.852667
 20
46.806520
 30
0.0
 10
60.844867
 20
46.765735
 30
0.0
 10
60.837247
 20
46.724912
 30
0.0
 10
60.829822
 20
46.684052
 30
0.0
 10
60.822547
 20
46.643147
 30
0.0
 10
60.815497
 20
46.602212
 30
0.0
 10
60.808597
 20
46.561240
 30
0.0
 10
60.801922
 20
46.520230
 30
0.0
 10
60.795397
 20
46.479190
 30
0.0
 10
60.789097
 20
46.438112
 30
0.0
 10
60.782947
 20
46.396997
 30
0.0
 10
60.777022
 20
46.355852
 30
0.0
 10
60.771247
 20
46.314677
 30
0.0
 10
60.765697
 20
46.273472
 30
0.0
 10
60.760297
 20
46.232237
 30
0.0
 10
60.755047
 20
46.190965
 30
0.0
 10
60.750022
 20
46.149670
 30
0.0
 10
60.746422
 20
46.149338
 30
0.0
 10
60.742822
 20
46.149016
 30
0.0
 10
60.739222
 20
46.148705
 30
0.0
 10
60.735622
 20
46.148405
 30
0.0
 10
60.732022
 20
46.148114
 30
0.0
 10
60.728422
 20
46.147835
 30
0.0
 10
60.724822
 20
46.147566
 30
0.0
 10
60.721222
 20
46.147307
 30
0.0
 10
60.717622
 20
46.147060
 30
0.0
 10
60.714022
 20
46.146822
 30
0.0
 10
60.710422
 20
46.146596
 30
0.0
 10
60.706822
 20
46.146379
 30
0.0
 10
60.703222
 20
46.146173
 30
0.0
 10
60.699622
 20
46.145978
 30
0.0
 10
60.696022
 20
46.145794
 30
0.0
 10
60.692422
 20
46.145620
 30
0.0
 10
60.688822
 20
46.145456
 30
0.0
 10
60.685222
 20
46.145303
 30
0.0
 10
60.681622
 20
46.145161
 30
0.0
 10
60.678022
 20
46.145029
 30
0.0
 10
60.674422
 20
46.144908
 30
0.0
 10
60.670822
 20
46.144797
 30
0.0
 10
60.667222
 20
46.144697
 30
0.0
 10
60.663622
 20
46.144607
 30
0.0
 10
60.660022
 20
46.144529
 30
0.0
 10
60.656422
 20
46.144460
 30
0.0
 10
60.652822
 20
46.144402
 30
0.0
 10
60.649222
 20
46.144354
 30
0.0
 10
60.645622
 20
46.144317
 30
0.0
 10
60.642022
 20
46.144291
 30
0.0
 10
60.638422
 20
46.144275
 30
0.0
 10
60.634822
 20
46.144270
 30
0.0
 10
60.631222
 20
46.144275
 30
0.0
 10
60.627622
 20
46.144291
 30
0.0
 10
60.624022
 20
46.144317
 30
0.0
 10
60.620422
 20
46.144354
 30
0.0
 10
60.616822
 20
46.144402
 30
0.0
 10
60.613222
 20
46.144460
 30
0.0
 10
60.609622
 20
46.144529
 30
0.0
 10
60.606022
 20
46.144607
 30
0.0
 10
60.602422
 20
46.144697
 30
0.0
 10
60.598822
 20
46.144797
 30
0.0
 10
60.595222
 20
46.144908
 30
0.0
 10
60.591622
 20
46.145029
 30
0.0
 10
60.588022
 20
46.145161
 30
0.0
 10
60.584422
 20
46.145303
 30
0.0
 10
60.580822
 20
46.145456
 30
0.0
 10
60.577222
 20
46.145620
 30
0.0
 10
60.573622
 20
46.145794
 30
0.0
 10
60.570022
 20
46.145978
 30
0.0
 10
60.566422
 20
46.146173
 30
0.0
 10
60.562822
 20
46.146379
 30
0.0
 10
60.559222
 20
46.146596
 30
0.0
 10
60.555622
 20
46.146822
 30
0.0
 10
60.552022
 20
46.147060
 30
0.0
 10
60.548422
 20
46.147307
 30
0.0
 10
60.544822
 20
46.147566
 30
0.0
 10
60.541222
 20
46.147835
 30
0.0
 10
60.537622
 20
46.148114
 30
0.0
 10
60.534022
 20
46.148405
 30
0.0
 10
60.530422
 20
46.148705
 30
0.0
 10
60.526822
 20
46.149016
 30
0.0
 10
60.523222
 20
46.149338
 30
0.0
 10
60.519622
 20
46.149670
 30
0.0
 10
60.522322
 20
46.150870
 30
0.0
 10
60.525022
 20
46.152070
 30
0.0
 10
60.527722
 20
46.153270
 30
0.0
 10
60.530422
 20
46.154470
 30
0.0
 10
60.533122
 20
46.155670
 30
0.0
 10
60.535822
 20
46.156870
 30
0.0
 10
60.538522
 20
46.158070
 30
0.0
 10
60.541222
 20
46.159270
 30
0.0
 10
60.543922
 20
46.160470
 30
0.0
 10
60.546622
 20
46.161670
 30
0.0
 10
60.549322
 20
46.162870
 30
0.0
 10
60.552022
 20
46.164070
 30
0.0
 10
60.554722
 20
46.165270
 30
0.0
 10
60.557422
 20
46.166470
 30
0.0
 10
60.560122
 20
46.167670
 30
0.0
 10
60.562822
 20
46.168870
 30
0.0
 10
60.565522
 20
46.170070
 30
0.0
 10
60.568222
 20
46.171270
 30
0.0
 10
60.570922
 20
46.172470
 30
0.0
 10
60.573622
 20
46.173670
 30
0.0
 10
60.576322
 20
46.174870
 30
0.0
 10
60.579022
 20
46.176070
 30
0.0
 10
60.581722
 20
46.177270
 30
0.0
 10
60.584422
 20
46.178470
 30
0.0
 10
60.587122
 20
46.179670
 30
0.0
 10
60.589822
 20
46.180870
 30
0.0
 10
60.592522
 20
46.182070
 30
0.0
 10
60.595222
 20
46.183270
 30
0.0
 10
60.597922
 20
46.184470
 30
0.0
 10
60.600622
 20
46.185670
 30
0.0
 10
60.603322
 20
46.186870
 30
0.0
 10
60.606022
 20
46.188070
 30
0.0
 10
60.608722
 20
46.189270
 30
0.0
 10
60.611422
 20
46.190470
 30
0.0
 10
60.614122
 20
46.191670
 30
0.0
 10
60.616822
 20
46.192870
 30
0.0
 10
60.619522
 20
46.194070
 30
0.0
 10
60.622222
 20
46.195270
 30
0.0
 10
60.624922
 20
46.196470
 30
0.0
 10
60.627622
 20
46.197670
 30
0.0
 10
60.630322
 20
46.198870
 30
0.0
 10
60.633022
 20
46.200070
 30
0.0
 10
60.635722
 20
46.201270
 30
0.0
 10
60.638422
 20
46.202470
 30
0.0
 10
60.641122
 20
46.203670
 30
0.0
 10
60.643822
 20
46.204870
 30
0.0
 10
60.646522
 20
46.206070
 30
0.0
 10
60.649222
 20
46.207270
 30
0.0
 10
60.651922
 20
46.208470
 30
0.0
 10
60.654622
 20
46.209670
 30
0.0
 10
60.657322
 20
46.210870
 30
0.0
 10
60.660022
 20
46.212070
 30
0.0
 10
60.662722
 20
46.213270
 30
0.0
 10
60.665422
 20
46.214470
 30
0.0
 10
60.668122
 20
46.215670
 30
0.0
 10
60.670822
 20
46.216870
 30
0.0
 10
60.673522
 20
46.218070
 30
0.0
 10
60.676222
 20
46.219270
 30
0.0
 10
60.678922
 20
46.220470
 30
0.0
 10
60.681622
 20
46.221670
 30
0.0
 10
60.684322
 20
46.222870
 30
0.0
 10
60.687022
 20
46.224070
 30
0.0
 10
60.689722
 20
46.225270
 30
0.0
 10
60.692422
 20
46.226470
 30
0.0
 10
60.694522
 20
46.296782
 30
0.0
 10
60.696697
 20
46.367095
 30
0.0
 10
60.698872
 20
46.437407
 30
0.0
 10
60.701047
 20
46.507720
 30
0.0
 10
60.703222
 20
46.578032
 30
0.0
 10
60.705397
 20
46.648345
 30
0.0
 10
60.707572
 20
46.718657
 30
0.0
 10
60.709822
 20
46.788970
 30
0.0
 10
60.712072
 20
46.859282
 30
0.0
 10
60.714322
 20
46.929595
 30
0.0
 10
60.716572
 20
46.999907
 30
0.0
 10
60.718822
 20
47.070220
 30
0.0
 10
60.721072
 20
47.140532
 30
0.0
 10
60.723322
 20
47.210845
 30
0.0
 10
60.725497
 20
47.281157
 30
0.0
 10
60.727672
 20
47.351470
 30
0.0
 10
60.729847
 20
47.421782
 30
0.0
 10
60.732022
 20
47.492095
 30
0.0
 10
60.734197
 20
47.562407
 30
0.0
 10
60.736372
 20
47.632720
 30
0.0
 10
60.738472
 20
47.703032
 30
0.0
 10
60.740572
 20
47.773345
 30
0.0
 10
60.742672
 20
47.843657
 30
0.0
 10
60.744697
 20
47.913970
 30
0.0
 10
60.746722
 20
47.984282
 30
0.0
 10
60.748747
 20
48.054595
 30
0.0
 10
60.750697
 20
48.124907
 30
0.0
 10
60.752647
 20
48.195220
 30
0.0
 10
60.754522
 20
48.265532
 30
0.0
 10
60.756397
 20
48.335845
 30
0.0
 10
60.758197
 20
48.406157
 30
0.0
 10
60.759997
 20
48.476470
 30
0.0
 10
60.761722
 20
48.546782
 30
0.0
 10
60.763447
 20
48.617095
 30
0.0
 10
60.765097
 20
48.687407
 30
0.0
 10
60.766672
 20
48.757719
 30
0.0
 10
60.768247
 20
48.828032
 30
0.0
 10
60.769747
 20
48.898344
 30
0.0
 10
60.771172
 20
48.968657
 30
0.0
 10
60.772522
 20
49.038969
 30
0.0
 10
60.773797
 20
49.109282
 30
0.0
 10
60.775072
 20
49.179594
 30
0.0
 10
60.776272
 20
49.249907
 30
0.0
 10
60.777397
 20
49.320219
 30
0.0
 10
60.778447
 20
49.390532
 30
0.0
 10
60.779422
 20
49.460844
 30
0.0
 10
60.780322
 20
49.531157
 30
0.0
 10
60.781147
 20
49.601469
 30
0.0
 10
60.781897
 20
49.671782
 30
0.0
 10
60.782571
 20
49.742094
 30
0.0
 10
60.783163
 20
49.812407
 30
0.0
 10
60.783672
 20
49.882719
 30
0.0
 10
60.784096
 20
49.953032
 30
0.0
 10
60.784433
 20
50.023344
 30
0.0
 10
60.784681
 20
50.093657
 30
0.0
 10
60.784837
 20
50.163969
 30
0.0
 10
60.784900
 20
50.234282
 30
0.0
 10
60.784867
 20
50.304594
 30
0.0
 10
60.784737
 20
50.374907
 30
0.0
 10
60.784507
 20
50.445219
 30
0.0
 10
60.784176
 20
50.515532
 30
0.0
 10
60.783741
 20
50.585844
 30
0.0
 10
60.783200
 20
50.656157
 30
0.0
 10
60.782551
 20
50.726469
 30
0.0
 10
60.783601
 20
50.779022
 30
0.0
 10
60.784141
 20
50.831537
 30
0.0
 10
60.784138
 20
50.884014
 30
0.0
 10
60.783595
 20
50.936447
 30
0.0
 10
60.782545
 20
50.988834
 30
0.0
 10
60.780895
 20
51.041169
 30
0.0
 10
60.778720
 20
51.093444
 30
0.0
 10
60.776020
 20
51.145667
 30
0.0
 10
60.772795
 20
51.197822
 30
0.0
 10
60.769045
 20
51.249909
 30
0.0
 10
60.764770
 20
51.301929
 30
0.0
 10
60.759970
 20
51.353874
 30
0.0
 10
60.754645
 20
51.405736
 30
0.0
 10
60.748795
 20
51.457516
 30
0.0
 10
60.742420
 20
51.509206
 30
0.0
 10
60.735445
 20
51.560806
 30
0.0
 10
60.727945
 20
51.612316
 30
0.0
 10
60.719958
 20
51.663721
 30
0.0
 10
60.711453
 20
51.715029
 30
0.0
 10
60.702423
 20
51.766231
 30
0.0
 10
60.692875
 20
51.817321
 30
0.0
 10
60.682810
 20
51.868299
 30
0.0
 10
60.672220
 20
51.919156
 30
0.0
 10
60.661120
 20
51.969886
 30
0.0
 10
60.649503
 20
52.020496
 30
0.0
 10
60.637368
 20
52.070971
 30
0.0
 10
60.624723
 20
52.121311
 30
0.0
 10
60.611568
 20
52.171516
 30
0.0
 10
60.597903
 20
52.221579
 30
0.0
 10
60.583728
 20
52.271499
 30
0.0
 10
60.569043
 20
52.321269
 30
0.0
 10
60.553855
 20
52.370881
 30
0.0
 10
60.538158
 20
52.420336
 30
0.0
 10
60.521958
 20
52.469634
 30
0.0
 10
60.505255
 20
52.518766
 30
0.0
 10
60.488050
 20
52.567726
 30
0.0
 10
60.470343
 20
52.616514
 30
0.0
 10
60.452140
 20
52.665121
 30
0.0
 10
60.433435
 20
52.713549
 30
0.0
 10
60.414235
 20
52.761796
 30
0.0
 10
60.394540
 20
52.809849
 30
0.0
 10
60.374350
 20
52.857714
 30
0.0
 10
60.353665
 20
52.905376
 30
0.0
 10
60.332493
 20
52.952844
 30
0.0
 10
60.310825
 20
53.000101
 30
0.0
 10
60.288670
 20
53.047156
 30
0.0
 10
60.266028
 20
53.093994
 30
0.0
 10
60.242898
 20
53.140614
 30
0.0
 10
60.219280
 20
53.187016
 30
0.0
 10
60.195183
 20
53.233194
 30
0.0
 10
60.170598
 20
53.279146
 30
0.0
 10
60.145533
 20
53.324866
 30
0.0
 10
60.119988
 20
53.370346
 30
0.0
 10
60.093963
 20
53.415586
 30
0.0
 10
60.067458
 20
53.460586
 30
0.0
 10
60.040480
 20
53.505339
 30
0.0
 10
60.013023
 20
53.549836
 30
0.0
 10
59.985093
 20
53.594079
 30
0.0
 10
59.956690
 20
53.638066
 30
0.0
 10
59.927808
 20
53.681791
 30
0.0
 10
59.898460
 20
53.725246
 30
0.0
 10
59.868641
 20
53.768431
 30
0.0
 10
59.838348
 20
53.811339
 30
0.0
 10
59.807591
 20
53.853969
 30
0.0
 10
59.780433
 20
53.882874
 30
0.0
 10
59.753081
 20
53.911569
 30
0.0
 10
59.725526
 20
53.940046
 30
0.0
 10
59.697776
 20
53.968313
 30
0.0
 10
59.669831
 20
53.996363
 30
0.0
 10
59.641691
 20
54.024203
 30
0.0
 10
59.613356
 20
54.051826
 30
0.0
 10
59.584833
 20
54.079231
 30
0.0
 10
59.556123
 20
54.106418
 30
0.0
 10
59.527226
 20
54.133388
 30
0.0
 10
59.498133
 20
54.160141
 30
0.0
 10
59.468861
 20
54.186668
 30
0.0
 10
59.439401
 20
54.212978
 30
0.0
 10
59.409761
 20
54.239063
 30
0.0
 10
59.379933
 20
54.264931
 30
0.0
 10
59.349926
 20
54.290573
 30
0.0
 10
59.319738
 20
54.315991
 30
0.0
 10
59.289378
 20
54.341183
 30
0.0
 10
59.258838
 20
54.366151
 30
0.0
 10
59.228118
 20
54.390893
 30
0.0
 10
59.197226
 20
54.415403
 30
0.0
 10
59.166161
 20
54.439688
 30
0.0
 10
59.134923
 20
54.463741
 30
0.0
 10
59.103521
 20
54.487561
 30
0.0
 10
59.071946
 20
54.511148
 30
0.0
 10
59.040206
 20
54.534511
 30
0.0
 10
59.008293
 20
54.557633
 30
0.0
 10
58.976216
 20
54.580523
 30
0.0
 10
58.943981
 20
54.603181
 30
0.0
 10
58.911581
 20
54.625598
 30
0.0
 10
58.879016
 20
54.647783
 30
0.0
 10
58.846293
 20
54.669728
 30
0.0
 10
58.813413
 20
54.691441
 30
0.0
 10
58.780376
 20
54.712913
 30
0.0
 10
58.747181
 20
54.734146
 30
0.0
 10
58.713836
 20
54.755138
 30
0.0
 10
58.680333
 20
54.775883
 30
0.0
 10
58.646681
 20
54.796388
 30
0.0
 10
58.612878
 20
54.816653
 30
0.0
 10
58.578926
 20
54.836671
 30
0.0
 10
58.544823
 20
54.856441
 30
0.0
 10
58.510578
 20
54.875963
 30
0.0
 10
58.476183
 20
54.895238
 30
0.0
 10
58.441646
 20
54.914266
 30
0.0
 10
58.406966
 20
54.933046
 30
0.0
 10
58.372143
 20
54.951578
 30
0.0
 10
58.337178
 20
54.969863
 30
0.0
 10
58.302078
 20
54.987893
 30
0.0
 10
58.266836
 20
55.005668
 30
0.0
 10
58.231458
 20
55.023196
 30
0.0
 10
58.195946
 20
55.040468
 30
0.0
 10
58.160298
 20
55.057486
 30
0.0
 10
58.124523
 20
55.074248
 30
0.0
 10
58.088613
 20
55.090748
 30
0.0
 10
58.052576
 20
55.106993
 30
0.0
 10
58.016411
 20
55.122983
 30
0.0
 10
57.980118
 20
55.138711
 30
0.0
 10
57.943698
 20
55.154176
 30
0.0
 10
57.907151
 20
55.169386
 30
0.0
 10
57.870483
 20
55.184333
 30
0.0
 10
57.833696
 20
55.199018
 30
0.0
 10
57.796788
 20
55.213441
 30
0.0
 10
57.759761
 20
55.227593
 30
0.0
 10
57.722613
 20
55.241483
 30
0.0
 10
57.522263
 20
55.327045
 30
0.0
 10
57.321458
 20
55.411376
 30
0.0
 10
57.120205
 20
55.494473
 30
0.0
 10
56.918507
 20
55.576336
 30
0.0
 10
56.716372
 20
55.656962
 30
0.0
 10
56.513806
 20
55.736352
 30
0.0
 10
56.310813
 20
55.814503
 30
0.0
 10
56.107399
 20
55.891415
 30
0.0
 10
55.903572
 20
55.967086
 30
0.0
 10
55.699336
 20
56.041516
 30
0.0
 10
55.494696
 20
56.114701
 30
0.0
 10
55.289659
 20
56.186641
 30
0.0
 10
55.084230
 20
56.257336
 30
0.0
 10
54.878416
 20
56.326786
 30
0.0
 10
54.672221
 20
56.394985
 30
0.0
 10
54.465653
 20
56.461934
 30
0.0
 10
54.258715
 20
56.527633
 30
0.0
 10
54.051414
 20
56.592080
 30
0.0
 10
53.843757
 20
56.655273
 30
0.0
 10
53.635748
 20
56.717212
 30
0.0
 10
53.427393
 20
56.777895
 30
0.0
 10
53.218698
 20
56.837322
 30
0.0
 10
53.009669
 20
56.895489
 30
0.0
 10
52.800312
 20
56.952397
 30
0.0
 10
52.590632
 20
57.008044
 30
0.0
 10
52.380635
 20
57.062429
 30
0.0
 10
52.170327
 20
57.115551
 30
0.0
 10
51.959713
 20
57.167408
 30
0.0
 10
51.748799
 20
57.217999
 30
0.0
 10
51.537592
 20
57.267323
 30
0.0
 10
51.326096
 20
57.315378
 30
0.0
 10
51.114318
 20
57.362165
 30
0.0
 10
50.902263
 20
57.407680
 30
0.0
 10
50.689937
 20
57.451923
 30
0.0
 10
50.477346
 20
57.494893
 30
0.0
 10
50.264496
 20
57.536589
 30
0.0
 10
50.051391
 20
57.577008
 30
0.0
 10
49.838038
 20
57.616150
 30
0.0
 10
49.624443
 20
57.654014
 30
0.0
 10
49.410612
 20
57.690598
 30
0.0
 10
49.196549
 20
57.725901
 30
0.0
 10
48.982262
 20
57.759923
 30
0.0
 10
48.767755
 20
57.792661
 30
0.0
 10
48.553035
 20
57.824115
 30
0.0
 10
48.338107
 20
57.854282
 30
0.0
 10
48.122976
 20
57.883162
 30
0.0
 10
47.907650
 20
57.910754
 30
0.0
 10
47.692133
 20
57.937056
 30
0.0
 10
47.473806
 20
57.960227
 30
0.0
 10
47.257925
 20
57.983946
 30
0.0
 10
47.041870
 20
58.006372
 30
0.0
 10
46.825647
 20
58.027503
 30
0.0
 10
46.609263
 20
58.047339
 30
0.0
 10
46.392723
 20
58.065877
 30
0.0
 10
46.176032
 20
58.083117
 30
0.0
 10
45.959196
 20
58.099057
 30
0.0
 10
45.742221
 20
58.113697
 30
0.0
 10
45.525114
 20
58.127034
 30
0.0
 10
45.307878
 20
58.139068
 30
0.0
 10
45.090522
 20
58.149797
 30
0.0
 10
44.873049
 20
58.159221
 30
0.0
 10
44.655466
 20
58.167337
 30
0.0
 10
44.437778
 20
58.174147
 30
0.0
 10
44.219992
 20
58.179645
 30
0.0
 10
43.978387
 20
58.186417
 30
0.0
 10
43.736628
 20
58.192657
 30
0.0
 10
43.494724
 20
58.198342
 30
0.0
 10
43.252684
 20
58.203450
 30
0.0
 10
43.010519
 20
58.207950
 30
0.0
 10
42.768237
 20
58.211820
 30
0.0
 10
42.525850
 20
58.215030
 30
0.0
 10
42.283366
 20
58.217557
 30
0.0
 10
42.040796
 20
58.219380
 30
0.0
 10
41.798149
 20
58.220467
 30
0.0
 10
41.555435
 20
58.220800
 30
0.0
 10
41.312664
 20
58.220350
 30
0.0
 10
41.069845
 20
58.219090
 30
0.0
 10
40.826989
 20
58.216997
 30
0.0
 10
40.584106
 20
58.214050
 30
0.0
 10
40.341203
 20
58.210217
 30
0.0
 10
40.098293
 20
58.205477
 30
0.0
 10
39.855385
 20
58.199800
 30
0.0
 10
39.612488
 20
58.193162
 30
0.0
 10
39.369611
 20
58.185540
 30
0.0
 10
39.126766
 20
58.176908
 30
0.0
 10
38.883961
 20
58.167240
 30
0.0
 10
38.641207
 20
58.156512
 30
0.0
 10
38.398513
 20
58.144698
 30
0.0
 10
38.155890
 20
58.131774
 30
0.0
 10
37.913346
 20
58.117713
 30
0.0
 10
37.670891
 20
58.102490
 30
0.0
 10
37.428536
 20
58.086081
 30
0.0
 10
37.186291
 20
58.068459
 30
0.0
 10
36.944164
 20
58.049601
 30
0.0
 10
36.702166
 20
58.029480
 30
0.0
 10
36.460306
 20
58.008072
 30
0.0
 10
36.218594
 20
57.985351
 30
0.0
 10
35.977041
 20
57.961292
 30
0.0
 10
35.735656
 20
57.935869
 30
0.0
 10
35.494448
 20
57.909058
 30
0.0
 10
35.253428
 20
57.880833
 30
0.0
 10
35.012605
 20
57.851169
 30
0.0
 10
34.771989
 20
57.820041
 30
0.0
 10
34.531590
 20
57.787424
 30
0.0
 10
34.291418
 20
57.753291
 30
0.0
 10
34.051482
 20
57.717619
 30
0.0
 10
33.811791
 20
57.680382
 30
0.0
 10
33.572358
 20
57.641553
 30
0.0
 10
33.333189
 20
57.601110
 30
0.0
 10
33.094297
 20
57.559025
 30
0.0
 10
32.855689
 20
57.515274
 30
0.0
 10
32.617377
 20
57.469831
 30
0.0
 10
32.379369
 20
57.422672
 30
0.0
 10
32.141676
 20
57.373771
 30
0.0
 10
31.904308
 20
57.323103
 30
0.0
 10
31.667274
 20
57.270643
 30
0.0
 10
31.430584
 20
57.216366
 30
0.0
 10
31.194247
 20
57.160245
 30
0.0
 10
30.958274
 20
57.102257
 30
0.0
 10
30.722675
 20
57.042375
 30
0.0
 10
30.487458
 20
56.980575
 30
0.0
 10
30.252636
 20
56.916831
 30
0.0
 10
30.018215
 20
56.851119
 30
0.0
 10
29.784207
 20
56.783412
 30
0.0
 10
29.550621
 20
56.713685
 30
0.0
 10
29.317467
 20
56.641914
 30
0.0
 10
29.084755
 20
56.568073
 30
0.0
 10
28.852495
 20
56.492136
 30
0.0
 10
28.711771
 20
56.444009
 30
0.0
 10
28.570872
 20
56.395929
 30
0.0
 10
28.429830
 20
56.347854
 30
0.0
 10
28.288680
 20
56.299749
 30
0.0
 10
28.147454
 20
56.251561
 30
0.0
 10
28.006186
 20
56.203261
 30
0.0
 10
27.864910
 20
56.154804
 30
0.0
 10
27.723657
 20
56.106151
 30
0.0
 10
27.582462
 20
56.057259
 30
0.0
 10
27.441358
 20
56.008089
 30
0.0
 10
27.300379
 20
55.958596
 30
0.0
 10
27.159557
 20
55.908744
 30
0.0
 10
27.018926
 20
55.858494
 30
0.0
 10
26.878519
 20
55.807801
 30
0.0
 10
26.738369
 20
55.756629
 30
0.0
 10
26.598511
 20
55.704931
 30
0.0
 10
26.458976
 20
55.652671
 30
0.0
 10
26.319799
 20
55.599804
 30
0.0
 10
26.181012
 20
55.546299
 30
0.0
 10
26.042650
 20
55.492104
 30
0.0
 10
25.904745
 20
55.437181
 30
0.0
 10
25.767330
 20
55.381494
 30
0.0
 10
25.630440
 20
55.325004
 30
0.0
 10
25.494106
 20
55.267659
 30
0.0
 10
25.358364
 20
55.209429
 30
0.0
 10
25.223245
 20
55.150269
 30
0.0
 10
25.088783
 20
55.090141
 30
0.0
 10
24.955011
 20
55.029001
 30
0.0
 10
24.821963
 20
54.966811
 30
0.0
 10
24.689673
 20
54.903526
 30
0.0
 10
24.558172
 20
54.839109
 30
0.0
 10
24.427495
 20
54.773521
 30
0.0
 10
24.297676
 20
54.706719
 30
0.0
 10
24.168746
 20
54.638664
 30
0.0
 10
24.040740
 20
54.569311
 30
0.0
 10
23.913691
 20
54.498624
 30
0.0
 10
23.787632
 20
54.426556
 30
0.0
 10
23.662596
 20
54.353071
 30
0.0
 10
23.538617
 20
54.278132
 30
0.0
 10
23.415728
 20
54.201691
 30
0.0
 10
23.293963
 20
54.123711
 30
0.0
 10
23.173354
 20
54.044151
 30
0.0
 10
23.053934
 20
53.962971
 30
0.0
 10
22.935739
 20
53.880129
 30
0.0
 10
22.818800
 20
53.795585
 30
0.0
 10
22.703150
 20
53.709299
 30
0.0
 10
22.588825
 20
53.621228
 30
0.0
 10
22.475855
 20
53.531335
 30
0.0
 10
22.364275
 20
53.439576
 30
0.0
 10
22.254119
 20
53.345912
 30
0.0
 10
22.145418
 20
53.250302
 30
0.0
 10
22.038207
 20
53.152706
 30
0.0
 10
21.932520
 20
53.053082
 30
0.0
 10
21.828388
 20
52.951390
 30
0.0
 10
21.725847
 20
52.847590
 30
0.0
 10
21.624927
 20
52.741640
 30
0.0
 10
21.525665
 20
52.633500
 30
0.0
 10
21.428091
 20
52.523130
 30
0.0
 10
21.332241
 20
52.410488
 30
0.0
 10
21.238147
 20
52.295534
 30
0.0
 10
21.145842
 20
52.178228
 30
0.0
 10
21.055360
 20
52.058528
 30
0.0
 10
20.966733
 20
51.936394
 30
0.0
 10
20.879996
 20
51.811778
 30
0.0
 10
20.740309
 20
51.811778
 30
0.0
 10
20.600621
 20
51.811778
 30
0.0
 10
20.460934
 20
51.811778
 30
0.0
 10
20.321246
 20
51.811778
 30
0.0
 10
20.181559
 20
51.811778
 30
0.0
 10
20.041871
 20
51.811778
 30
0.0
 10
19.902184
 20
51.811778
 30
0.0
 10
19.762496
 20
51.811778
 30
0.0
 10
19.622809
 20
51.811778
 30
0.0
 10
19.483121
 20
51.811778
 30
0.0
 10
19.343434
 20
51.811778
 30
0.0
 10
19.203746
 20
51.811778
 30
0.0
 10
19.064059
 20
51.811778
 30
0.0
 10
18.924371
 20
51.811778
 30
0.0
 10
18.784684
 20
51.811778
 30
0.0
 10
18.644996
 20
51.811778
 30
0.0
 10
18.505309
 20
51.811778
 30
0.0
 10
18.365622
 20
51.811778
 30
0.0
 10
18.225934
 20
51.811778
 30
0.0
 10
18.086247
 20
51.811778
 30
0.0
 10
17.946559
 20
51.811778
 30
0.0
 10
17.806872
 20
51.811778
 30
0.0
 10
17.667184
 20
51.811778
 30
0.0
 10
17.527497
 20
51.811778
 30
0.0
 10
17.387809
 20
51.811778
 30
0.0
 10
17.248122
 20
51.811778
 30
0.0
 10
17.108434
 20
51.811778
 30
0.0
 10
16.968747
 20
51.811778
 30
0.0
 10
16.829059
 20
51.811778
 30
0.0
 10
16.689372
 20
51.811778
 30
0.0
 10
16.549684
 20
51.811778
 30
0.0
 10
16.409997
 20
51.811778
 30
0.0
 10
16.270309
 20
51.811778
 30
0.0
 10
16.130622
 20
51.811778
 30
0.0
 10
15.990934
 20
51.811778
 30
0.0
 10
15.851247
 20
51.811778
 30
0.0
 10
15.711560
 20
51.811778
 30
0.0
 10
15.571872
 20
51.811778
 30
0.0
 10
15.432185
 20
51.811778
 30
0.0
 10
15.292497
 20
51.811778
 30
0.0
 10
15.152810
 20
51.811778
 30
0.0
 10
15.013122
 20
51.811778
 30
0.0
 10
14.873435
 20
51.811778
 30
0.0
 10
14.733747
 20
51.811778
 30
0.0
 10
14.594060
 20
51.811778
 30
0.0
 10
14.454372
 20
51.811778
 30
0.0
 10
14.314685
 20
51.811778
 30
0.0
 10
14.174997
 20
51.811778
 30
0.0
 10
14.035310
 20
51.811778
 30
0.0
 10
13.895622
 20
51.811778
 30
0.0
 10
13.755935
 20
51.811778
 30
0.0
 10
13.616247
 20
51.811778
 30
0.0
 10
13.476560
 20
51.811778
 30
0.0
 10
13.336872
 20
51.811778
 30
0.0
 10
13.197185
 20
51.811778
 30
0.0
 10
13.057498
 20
51.811778
 30
0.0
 10
12.917810
 20
51.811778
 30
0.0
 10
12.778123
 20
51.811778
 30
0.0
 10
12.638435
 20
51.811778
 30
0.0
 10
12.498748
 20
51.811778
 30
0.0
 10
12.359060
 20
51.811778
 30
0.0
 10
12.219373
 20
51.811778
 30
0.0
 10
12.079685
 20
51.811778
 30
0.0
 10
11.939998
 20
51.811778
 30
0.0
 10
12.044296
 20
51.907192
 30
0.0
 10
12.148505
 20
52.001126
 30
0.0
 10
12.252640
 20
52.093608
 30
0.0
 10
12.356716
 20
52.184668
 30
0.0
 10
12.460749
 20
52.274335
 30
0.0
 10
12.564752
 20
52.362640
 30
0.0
 10
12.668742
 20
52.449612
 30
0.0
 10
12.772733
 20
52.535279
 30
0.0
 10
12.876742
 20
52.619672
 30
0.0
 10
12.980781
 20
52.702821
 30
0.0
 10
13.084867
 20
52.784753
 30
0.0
 10
13.189016
 20
52.865500
 30
0.0
 10
13.293241
 20
52.945091
 30
0.0
 10
13.397559
 20
53.023555
 30
0.0
 10
13.501984
 20
53.100922
 30
0.0
 10
13.606532
 20
53.177220
 30
0.0
 10
13.711216
 20
53.252481
 30
0.0
 10
13.816054
 20
53.326731
 30
0.0
 10
13.921059
 20
53.400006
 30
0.0
 10
14.026248
 20
53.472328
 30
0.0
 10
14.131634
 20
53.543728
 30
0.0
 10
14.237233
 20
53.614243
 30
0.0
 10
14.343060
 20
53.683896
 30
0.0
 10
14.449131
 20
53.752716
 30
0.0
 10
14.555460
 20
53.820733
 30
0.0
 10
14.662063
 20
53.887978
 30
0.0
 10
14.768954
 20
53.954481
 30
0.0
 10
14.876150
 20
54.020271
 30
0.0
 10
14.983664
 20
54.085371
 30
0.0
 10
15.091511
 20
54.149818
 30
0.0
 10
15.199709
 20
54.213643
 30
0.0
 10
15.308270
 20
54.276868
 30
0.0
 10
15.417211
 20
54.339531
 30
0.0
 10
15.526546
 20
54.401653
 30
0.0
 10
15.636291
 20
54.463273
 30
0.0
 10
15.746460
 20
54.524413
 30
0.0
 10
15.857070
 20
54.585103
 30
0.0
 10
15.968134
 20
54.645373
 30
0.0
 10
16.079668
 20
54.705253
 30
0.0
 10
16.191688
 20
54.764773
 30
0.0
 10
16.304207
 20
54.823963
 30
0.0
 10
16.417243
 20
54.882853
 30
0.0
 10
16.530808
 20
54.941473
 30
0.0
 10
16.644919
 20
54.999853
 30
0.0
 10
16.759591
 20
55.058023
 30
0.0
 10
16.874839
 20
55.116005
 30
0.0
 10
16.990678
 20
55.173838
 30
0.0
 10
17.107122
 20
55.231543
 30
0.0
 10
17.224188
 20
55.289158
 30
0.0
 10
17.341890
 20
55.346705
 30
0.0
 10
17.460244
 20
55.404223
 30
0.0
 10
17.579264
 20
55.461733
 30
0.0
 10
17.698966
 20
55.519265
 30
0.0
 10
17.819364
 20
55.576850
 30
0.0
 10
17.940475
 20
55.634518
 30
0.0
 10
18.062312
 20
55.692298
 30
0.0
 10
18.184892
 20
55.750220
 30
0.0
 10
18.308229
 20
55.808315
 30
0.0
 10
18.432337
 20
55.866613
 30
0.0
 10
18.557234
 20
55.925143
 30
0.0
 10
18.682933
 20
55.983928
 30
0.0
 10
18.809450
 20
56.043005
 30
0.0
 10
18.936799
 20
56.102398
 30
0.0
 10
19.064996
 20
56.162143
 30
0.0
 10
19.221802
 20
56.240300
 30
0.0
 10
19.378750
 20
56.318161
 30
0.0
 10
19.535840
 20
56.395724
 30
0.0
 10
19.693071
 20
56.472989
 30
0.0
 10
19.850444
 20
56.549956
 30
0.0
 10
20.007958
 20
56.626625
 30
0.0
 10
20.165611
 20
56.702996
 30
0.0
 10
20.323405
 20
56.779069
 30
0.0
 10
20.481339
 20
56.854842
 30
0.0
 10
20.639411
 20
56.930317
 30
0.0
 10
20.797622
 20
57.005493
 30
0.0
 10
20.955972
 20
57.080370
 30
0.0
 10
21.114459
 20
57.154947
 30
0.0
 10
21.273083
 20
57.229225
 30
0.0
 10
21.431844
 20
57.303203
 30
0.0
 10
21.590742
 20
57.376880
 30
0.0
 10
21.749777
 20
57.450258
 30
0.0
 10
21.908946
 20
57.523336
 30
0.0
 10
22.068251
 20
57.596113
 30
0.0
 10
22.227691
 20
57.668589
 30
0.0
 10
22.387265
 20
57.740765
 30
0.0
 10
22.546973
 20
57.812639
 30
0.0
 10
22.706814
 20
57.884213
 30
0.0
 10
22.866789
 20
57.955485
 30
0.0
 10
23.026896
 20
58.026455
 30
0.0
 10
23.187136
 20
58.097124
 30
0.0
 10
23.347507
 20
58.167491
 30
0.0
 10
23.508010
 20
58.237556
 30
0.0
 10
23.668643
 20
58.307318
 30
0.0
 10
23.829407
 20
58.376778
 30
0.0
 10
23.990302
 20
58.445935
 30
0.0
 10
24.151325
 20
58.514790
 30
0.0
 10
24.312478
 20
58.583341
 30
0.0
 10
24.473761
 20
58.651590
 30
0.0
 10
24.635171
 20
58.719535
 30
0.0
 10
24.796709
 20
58.787176
 30
0.0
 10
24.958375
 20
58.854513
 30
0.0
 10
25.120168
 20
58.921546
 30
0.0
 10
25.282087
 20
58.988276
 30
0.0
 10
25.444133
 20
59.054701
 30
0.0
 10
25.606305
 20
59.120822
 30
0.0
 10
25.768602
 20
59.186638
 30
0.0
 10
25.931024
 20
59.252149
 30
0.0
 10
26.093571
 20
59.317356
 30
0.0
 10
26.256241
 20
59.382256
 30
0.0
 10
26.419035
 20
59.446852
 30
0.0
 10
26.581953
 20
59.511142
 30
0.0
 10
26.744993
 20
59.575126
 30
0.0
 10
26.908156
 20
59.638803
 30
0.0
 10
27.071441
 20
59.702175
 30
0.0
 10
27.234847
 20
59.765241
 30
0.0
 10
27.398375
 20
59.828001
 30
0.0
 10
27.562023
 20
59.890453
 30
0.0
 10
27.725791
 20
59.952599
 30
0.0
 10
27.889679
 20
60.014438
 30
0.0
 10
28.053687
 20
60.075969
 30
0.0
 10
28.217813
 20
60.137193
 30
0.0
 10
28.382059
 20
60.198110
 30
0.0
 10
28.546422
 20
60.258719
 30
0.0
 10
28.710903
 20
60.319020
 30
0.0
 10
28.875501
 20
60.379012
 30
0.0
 10
29.040216
 20
60.438696
 30
0.0
 10
29.205047
 20
60.498072
 30
0.0
  0
LWPOLYLINE
  5
101
100
AcDbEntity
  8
0
 62
7
100
AcDbPolyline
 90
256
 70
1
 10
9.854998
 20
49.299645
 30
0.0
 10
10.015779
 20
49.299645
 30
0.0
 10
10.176561
 20
49.299645
 30
0.0
 10
10.337342
 20
49.299645
 30
0.0
 10
10.498123
 20
49.299645
 30
0.0
 10
10.658904
 20
49.299645
 30
0.0
 10
10.819685
 20
49.299645
 30
0.0
 10
10.980467
 20
49.299645
 30
0.0
 10
11.141248
 20
49.299645
 30
0.0
 10
11.302029
 20
49.299645
 30
0.0
 10
11.462810
 20
49.299645
 30
0.0
 10
11.623592
 20
49.299645
 30
0.0
 10
11.784373
 20
49.299645
 30
0.0
 10
11.945154
 20
49.299645
 30
0.0
 10
12.105935
 20
49.299645
 30
0.0
 10
12.266716
 20
49.299645
 30
0.0
 10
12.427498
 20
49.299645
 30
0.0
 10
12.588279
 20
49.299645
 30
0.0
 10
12.749060
 20
49.299645
 30
0.0
 10
12.909841
 20
49.299645
 30
0.0
 10
13.070623
 20
49.299645
 30
0.0
 10
13.231404
 20
49.299645
 30
0.0
 10
13.392185
 20
49.299645
 30
0.0
 10
13.552966
 20
49.299645
 30
0.0
 10
13.713747
 20
49.299645
 30
0.0
 10
13.874529
 20
49.299645
 30
0.0
 10
14.035310
 20
49.299645
 30
0.0
 10
14.196091
 20
49.299645
 30
0.0
 10
14.356872
 20
49.299645
 30
0.0
 10
14.517654
 20
49.299645
 30
0.0
 10
14.678435
 20
49.299645
 30
0.0
 10
14.839216
 20
49.299645
 30
0.0
 10
14.999997
 20
49.299645
 30
0.0
 10
15.160778
 20
49.299645
 30
0.0
 10
15.321560
 20
49.299645
 30
0.0
 10
15.482341
 20
49.299645
 30
0.0
 10
15.643122
 20
49.299645
 30
0.0
 10
15.803903
 20
49.299645
 30
0.0
 10
15.964685
 20
49.299645
 30
0.0
 10
16.125466
 20
49.299645
 30
0.0
 10
16.286247
 20
49.299645
 30
0.0
 10
16.447028
 20
49.299645
 30
0.0
 10
16.607809
 20
49.299645
 30
0.0
 10
16.768591
 20
49.299645
 30
0.0
 10
16.929372
 20
49.299645
 30
0.0
 10
17.090153
 20
49.299645
 30
0.0
 10
17.250934
 20
49.299645
 30
0.0
 10
17.411715
 20
49.299645
 30
0.0
 10
17.572497
 20
49.299645
 30
0.0
 10
17.733278
 20
49.299645
 30
0.0
 10
17.894059
 20
49.299645
 30
0.0
 10
18.054840
 20
49.299645
 30
0.0
 10
18.215622
 20
49.299645
 30
0.0
 10
18.376403
 20
49.299645
 30
0.0
 10
18.537184
 20
49.299645
 30
0.0
 10
18.697965
 20
49.299645
 30
0.0
 10
18.858746
 20
49.299645
 30
0.0
 10
19.019528
 20
49.299645
 30
0.0
 10
19.180309
 20
49.299645
 30
0.0
 10
19.341090
 20
49.299645
 30
0.0
 10
19.501871
 20
49.299645
 30
0.0
 10
19.662653
 20
49.299645
 30
0.0
 10
19.823434
 20
49.299645
 30
0.0
 10
19.984215
 20
49.299645
 30
0.0
 10
20.144996
 20
49.299645
 30
0.0
 10
20.138696
 20
49.270110
 30
0.0
 10
20.132396
 20
49.240561
 30
0.0
 10
20.126096
 20
49.211003
 30
0.0
 10
20.119871
 20
49.181438
 30
0.0
 10
20.113646
 20
49.151858
 30
0.0
 10
20.107421
 20
49.122271
 30
0.0
 10
20.101271
 20
49.092676
 30
0.0
 10
20.095121
 20
49.063073
 30
0.0
 10
20.088971
 20
49.033463
 30
0.0
 10
20.082821
 20
49.003846
 30
0.0
 10
20.076746
 20
48.974221
 30
0.0
 10
20.070671
 20
48.944588
 30
0.0
 10
20.064596
 20
48.914948
 30
0.0
 10
20.058596
 20
48.885301
 30
0.0
 10
20.052596
 20
48.855646
 30
0.0
 10
20.046596
 20
48.825983
 30
0.0
 10
20.040596
 20
48.796321
 30
0.0
 10
20.034671
 20
48.766651
 30
0.0
 10
20.028746
 20
48.736973
 30
0.0
 10
20.022821
 20
48.707296
 30
0.0
 10
20.016971
 20
48.677611
 30
0.0
 10
20.011121
 20
48.647918
 30
0.0
 10
20.005271
 20
48.618226
 30
0.0
 10
19.999496
 20
48.588533
 30
0.0
 10
19.993721
 20
48.558833
 30
0.0
 10
19.987946
 20
48.529133
 30
0.0
 10
19.982171
 20
48.499433
 30
0.0
 10
19.976471
 20
48.469733
 30
0.0
 10
19.970771
 20
48.440026
 30
0.0
 10
19.965071
 20
48.410318
 30
0.0
 10
19.959446
 20
48.380611
 30
0.0
 10
19.953821
 20
48.350903
 30
0.0
 10
19.948196
 20
48.321196
 30
0.0
 10
19.942571
 20
48.291488
 30
0.0
 10
19.937021
 20
48.261781
 30
0.0
 10
19.931471
 20
48.232073
 30
0.0
 10
19.925921
 20
48.202373
 30
0.0
 10
19.920446
 20
48.172673
 30
0.0
 10
19.914971
 20
48.142973
 30
0.0
 10
19.909496
 20
48.113273
 30
0.0
 10
19.904096
 20
48.083581
 30
0.0
 10
19.898696
 20
48.053888
 30
0.0
 10
19.893296
 20
48.024196
 30
0.0
 10
19.887896
 20
47.994511
 30
0.0
 10
19.882571
 20
47.964833
 30
0.0
 10
19.877246
 20
47.935156
 30
0.0
 10
19.871921
 20
47.905486
 30
0.0
 10
19.866671
 20
47.875823
 30
0.0
 10
19.861421
 20
47.846161
 30
0.0
 10
19.856171
 20
47.816506
 30
0.0
 10
19.850921
 20
47.786858
 30
0.0
 10
19.845746
 20
47.757218
 30
0.0
 10
19.840571
 20
47.727586
 30
0.0
 10
19.835396
 20
47.697961
 30
0.0
 10
19.830296
 20
47.668343
 30
0.0
 10
19.825196
 20
47.638733
 30
0.0
 10
19.820096
 20
47.609131
 30
0.0
 10
19.814996
 20
47.579536
 30
0.0
 10
19.809971
 20
47.549948
 30
0.0
 10
19.804946
 20
47.520368
 30
0.0
 10
19.799921
 20
47.490803
 30
0.0
 10
19.794971
 20
47.461246
 30
0.0
 10
19.790021
 20
47.431696
 30
0.0
 10
19.785071
 20
47.402161
 30
0.0
 10
19.611324
 20
47.402161
 30
0.0
 10
19.437653
 20
47.402161
 30
0.0
 10
19.263980
 20
47.402161
 30
0.0
 10
19.090309
 20
47.402161
 30
0.0
 10
18.916637
 20
47.402161
 30
0.0
 10
18.742965
 20
47.402161
 30
0.0
 10
18.569293
 20
47.402161
 30
0.0
 10
18.395622
 20
47.402161
 30
0.0
 10
18.221949
 20
47.402161
 30
0.0
 10
18.048278
 20
47.402161
 30
0.0
 10
17.874606
 20
47.402161
 30
0.0
 10
17.700934
 20
47.402161
 30
0.0
 10
17.527262
 20
47.402161
 30
0.0
 10
17.353590
 20
47.402161
 30
0.0
 10
17.179918
 20
47.402161
 30
0.0
 10
17.006247
 20
47.402161
 30
0.0
 10
16.832575
 20
47.402161
 30
0.0
 10
16.658903
 20
47.402161
 30
0.0
 10
16.485231
 20
47.402161
 30
0.0
 10
16.311559
 20
47.402161
 30
0.0
 10
16.137887
 20
47.402161
 30
0.0
 10
15.964216
 20
47.402161
 30
0.0
 10
15.790544
 20
47.402161
 30
0.0
 10
15.616872
 20
47.402161
 30
0.0
 10
15.443200
 20
47.402161
 30
0.0
 10
15.269528
 20
47.402161
 30
0.0
 10
15.095856
 20
47.402161
 30
0.0
 10
14.922185
 20
47.402161
 30
0.0
 10
14.748512
 20
47.402161
 30
0.0
 10
14.574841
 20
47.402161
 30
0.0
 10
14.401169
 20
47.402161
 30
0.0
 10
14.227497
 20
47.402161
 30
0.0
 10
14.053825
 20
47.402161
 30
0.0
 10
13.880154
 20
47.402161
 30
0.0
 10
13.706481
 20
47.402161
 30
0.0
 10
13.532810
 20
47.402161
 30
0.0
 10
13.359138
 20
47.402161
 30
0.0
 10
13.185466
 20
47.402161
 30
0.0
 10
13.011794
 20
47.402161
 30
0.0
 10
12.838123
 20
47.402161
 30
0.0
 10
12.664450
 20
47.402161
 30
0.0
 10
12.490779
 20
47.402161
 30
0.0
 10
12.317107
 20
47.402161
 30
0.0
 10
12.143435
 20
47.402161
 30
0.0
 10
11.969763
 20
47.402161
 30
0.0
 10
11.796092
 20
47.402161
 30
0.0
 10
11.622420
 20
47.402161
 30
0.0
 10
11.448748
 20
47.402161
 30
0.0
 10
11.275076
 20
47.402161
 30
0.0
 10
11.101404
 20
47.402161
 30
0.0
 10
10.927732
 20
47.402161
 30
0.0
 10
10.754060
 20
47.402161
 30
0.0
 10
10.580388
 20
47.402161
 30
0.0
 10
10.406717
 20
47.402161
 30
0.0
 10
10.233045
 20
47.402161
 30
0.0
 10
10.059373
 20
47.402161
 30
0.0
 10
9.885701
 20
47.402161
 30
0.0
 10
9.712029
 20
47.402161
 30
0.0
 10
9.538357
 20
47.402161
 30
0.0
 10
9.364686
 20
47.402161
 30
0.0
 10
9.191014
 20
47.402161
 30
0.0
 10
9.017342
 20
47.402161
 30
0.0
 10
8.843670
 20
47.402161
 30
0.0
 10
8.669998
 20
47.402161
 30
0.0
 10
8.686513
 20
47.433016
 30
0.0
 10
8.703096
 20
47.463833
 30
0.0
 10
8.719738
 20
47.494613
 30
0.0
 10
8.736448
 20
47.525356
 30
0.0
 10
8.753218
 20
47.556061
 30
0.0
 10
8.770056
 20
47.586728
 30
0.0
 10
8.786961
 20
47.617366
 30
0.0
 10
8.803926
 20
47.647966
 30
0.0
 10
8.820958
 20
47.678528
 30
0.0
 10
8.838051
 20
47.709053
 30
0.0
 10
8.855211
 20
47.739541
 30
0.0
 10
8.872438
 20
47.769991
 30
0.0
 10
8.889726
 20
47.800403
 30
0.0
 10
8.907081
 20
47.830778
 30
0.0
 10
8.924496
 20
47.861116
 30
0.0
 10
8.941978
 20
47.891416
 30
0.0
 10
8.959521
 20
47.921678
 30
0.0
 10
8.977131
 20
47.951903
 30
0.0
 10
8.994801
 20
47.982091
 30
0.0
 10
9.012538
 20
48.012241
 30
0.0
 10
9.030336
 20
48.042353
 30
0.0
 10
9.048201
 20
48.072428
 30
0.0
 10
9.066126
 20
48.102458
 30
0.0
 10
9.084118
 20
48.132451
 30
0.0
 10
9.102171
 20
48.162406
 30
0.0
 10
9.120283
 20
48.192323
 30
0.0
 10
9.138463
 20
48.222203
 30
0.0
 10
9.156703
 20
48.252046
 30
0.0
 10
9.175011
 20
48.281851
 30
0.0
 10
9.193378
 20
48.311611
 30
0.0
 10
9.211813
 20
48.341333
 30
0.0
 10
9.230308
 20
48.371018
 30
0.0
 10
9.248863
 20
48.400666
 30
0.0
 10
9.267486
 20
48.430276
 30
0.0
 10
9.286168
 20
48.459841
 30
0.0
 10
9.304918
 20
48.489368
 30
0.0
 10
9.323728
 20
48.518858
 30
0.0
 10
9.342598
 20
48.548303
 30
0.0
 10
9.361528
 20
48.577711
 30
0.0
 10
9.380526
 20
48.607081
 30
0.0
 10
9.399583
 20
48.636406
 30
0.0
 10
9.418701
 20
48.665693
 30
0.0
 10
9.437886
 20
48.694943
 30
0.0
 10
9.457131
 20
48.724148
 30
0.0
 10
9.476436
 20
48.753316
 30
0.0
 10
9.495808
 20
48.782438
 30
0.0
 10
9.515241
 20
48.811523
 30
0.0
 10
9.534733
 20
48.840571
 30
0.0
 10
9.554286
 20
48.869573
 30
0.0
 10
9.573906
 20
48.898538
 30
0.0
 10
9.593586
 20
48.927458
 30
0.0
 10
9.613326
 20
48.956341
 30
0.0
 10
9.633126
 20
48.985178
 30
0.0
 10
9.652986
 20
49.013978
 30
0.0
 10
9.672913
 20
49.042733
 30
0.0
 10
9.692901
 20
49.071451
 30
0.0
 10
9.712948
 20
49.100123
 30
0.0
 10
9.733056
 20
49.128758
 30
0.0
 10
9.753223
 20
49.157348
 30
0.0
 10
9.773458
 20
49.185893
 30
0.0
 10
9.793753
 20
49.214401
 30
0.0
 10
9.814108
 20
49.242863
 30
0.0
 10
9.834523
 20
49.271280
 30
0.0
  0
LWPOLYLINE
  5
102
100
AcDbEntity
  8
0
 62
7
100
AcDbPolyline
 90
1856
 70
1
 10
8.827498
 20
37.202148
 30
0.0
 10
8.762083
 20
37.316781
 30
0.0
 10
8.698221
 20
37.431552
 30
0.0
 10
8.635903
 20
37.546466
 30
0.0
 10
8.575138
 20
37.661522
 30
0.0
 10
8.515926
 20
37.776723
 30
0.0
 10
8.458266
 20
37.892070
 30
0.0
 10
8.402166
 20
38.007565
 30
0.0
 10
8.347618
 20
38.123211
 30
0.0
 10
8.294631
 20
38.239010
 30
0.0
 10
8.243203
 20
38.354962
 30
0.0
 10
8.193343
 20
38.471070
 30
0.0
 10
8.145051
 20
38.587336
 30
0.0
 10
8.098318
 20
38.703762
 30
0.0
 10
8.053161
 20
38.820349
 30
0.0
 10
8.009571
 20
38.937100
 30
0.0
 10
7.967556
 20
39.054015
 30
0.0
 10
7.927116
 20
39.171098
 30
0.0
 10
7.888251
 20
39.288350
 30
0.0
 10
7.850969
 20
39.405773
 30
0.0
 10
7.815261
 20
39.523368
 30
0.0
 10
7.781136
 20
39.641138
 30
0.0
 10
7.748601
 20
39.759084
 30
0.0
 10
7.717649
 20
39.877208
 30
0.0
 10
7.688286
 20
39.995513
 30
0.0
 10
7.660514
 20
40.114000
 30
0.0
 10
7.634331
 20
40.232670
 30
0.0
 10
7.609746
 20
40.351526
 30
0.0
 10
7.586751
 20
40.470570
 30
0.0
 10
7.565354
 20
40.589803
 30
0.0
 10
7.545561
 20
40.709227
 30
0.0
 10
7.527366
 20
40.828845
 30
0.0
 10
7.510776
 20
40.948658
 30
0.0
 10
7.495789
 20
41.068667
 30
0.0
 10
7.482409
 20
41.188876
 30
0.0
 10
7.470638
 20
41.309284
 30
0.0
 10
7.460477
 20
41.429896
 30
0.0
 10
7.451928
 20
41.550711
 30
0.0
 10
7.444991
 20
41.671734
 30
0.0
 10
7.439673
 20
41.792964
 30
0.0
 10
7.435976
 20
41.914404
 30
0.0
 10
7.433898
 20
42.036055
 30
0.0
 10
7.433440
 20
42.157920
 30
0.0
 10
7.434603
 20
42.280001
 30
0.0
 10
7.437393
 20
42.402300
 30
0.0
 10
7.441810
 20
42.524817
 30
0.0
 10
7.447855
 20
42.647555
 30
0.0
 10
7.455534
 20
42.770516
 30
0.0
 10
7.464847
 20
42.893703
 30
0.0
 10
7.475795
 20
43.017116
 30
0.0
 10
7.488379
 20
43.140758
 30
0.0
 10
7.502602
 20
43.264630
 30
0.0
 10
7.518465
 20
43.388734
 30
0.0
 10
7.535970
 20
43.513073
 30
0.0
 10
7.555117
 20
43.637647
 30
0.0
 10
7.575915
 20
43.762459
 30
0.0
 10
7.598362
 20
43.887511
 30
0.0
 10
7.622460
 20
44.012804
 30
0.0
 10
7.648207
 20
44.138341
 30
0.0
 10
7.675612
 20
44.264123
 30
0.0
 10
7.704667
 20
44.390153
 30
0.0
 10
7.735380
 20
44.516431
 30
0.0
 10
7.767757
 20
44.642961
 30
0.0
 10
7.801792
 20
44.769743
 30
0.0
 10
7.837499
 20
44.896780
 30
0.0
 10
8.025819
 20
44.896780
 30
0.0
 10
8.214139
 20
44.896780
 30
0.0
 10
8.402459
 20
44.896780
 30
0.0
 10
8.590780
 20
44.896780
 30
0.0
 10
8.779100
 20
44.896780
 30
0.0
 10
8.967420
 20
44.896780
 30
0.0
 10
9.155740
 20
44.896780
 30
0.0
 10
9.344061
 20
44.896780
 30
0.0
 10
9.532381
 20
44.896780
 30
0.0
 10
9.720701
 20
44.896780
 30
0.0
 10
9.909021
 20
44.896780
 30
0.0
 10
10.097342
 20
44.896780
 30
0.0
 10
10.285662
 20
44.896780
 30
0.0
 10
10.473983
 20
44.896780
 30
0.0
 10
10.662302
 20
44.896780
 30
0.0
 10
10.850623
 20
44.896780
 30
0.0
 10
11.038943
 20
44.896780
 30
0.0
 10
11.227263
 20
44.896780
 30
0.0
 10
11.415584
 20
44.896780
 30
0.0
 10
11.603904
 20
44.896780
 30
0.0
 10
11.792225
 20
44.896780
 30
0.0
 10
11.980545
 20
44.896780
 30
0.0
 10
12.168865
 20
44.896780
 30
0.0
 10
12.357185
 20
44.896780
 30
0.0
 10
12.545506
 20
44.896780
 30
0.0
 10
12.733825
 20
44.896780
 30
0.0
 10
12.922146
 20
44.896780
 30
0.0
 10
13.110466
 20
44.896780
 30
0.0
 10
13.298787
 20
44.896780
 30
0.0
 10
13.487107
 20
44.896780
 30
0.0
 10
13.675427
 20
44.896780
 30
0.0
 10
13.863747
 20
44.896780
 30
0.0
 10
14.052068
 20
44.896780
 30
0.0
 10
14.240388
 20
44.896780
 30
0.0
 10
14.428708
 20
44.896780
 30
0.0
 10
14.617029
 20
44.896780
 30
0.0
 10
14.805349
 20
44.896780
 30
0.0
 10
14.993669
 20
44.896780
 30
0.0
 10
15.181989
 20
44.896780
 30
0.0
 10
15.370310
 20
44.896780
 30
0.0
 10
15.558630
 20
44.896780
 30
0.0
 10
15.746950
 20
44.896780
 30
0.0
 10
15.935270
 20
44.896780
 30
0.0
 10
16.123591
 20
44.896780
 30
0.0
 10
16.311911
 20
44.896780
 30
0.0
 10
16.500231
 20
44.896780
 30
0.0
 10
16.688551
 20
44.896780
 30
0.0
 10
16.876872
 20
44.896780
 30
0.0
 10
17.065192
 20
44.896780
 30
0.0
 10
17.253512
 20
44.896780
 30
0.0
 10
17.441832
 20
44.896780
 30
0.0
 10
17.630153
 20
44.896780
 30
0.0
 10
17.818473
 20
44.896780
 30
0.0
 10
18.006793
 20
44.896780
 30
0.0
 10
18.195114
 20
44.896780
 30
0.0
 10
18.383434
 20
44.896780
 30
0.0
 10
18.571755
 20
44.896780
 30
0.0
 10
18.760074
 20
44.896780
 30
0.0
 10
18.948395
 20
44.896780
 30
0.0
 10
19.136715
 20
44.896780
 30
0.0
 10
19.325036
 20
44.896780
 30
0.0
 10
19.513355
 20
44.896780
 30
0.0
 10
19.701676
 20
44.896780
 30
0.0
 10
19.889996
 20
44.896780
 30
0.0
 10
19.905941
 20
44.827045
 30
0.0
 10
19.922651
 20
44.758097
 30
0.0
 10
19.940119
 20
44.689915
 30
0.0
 10
19.958336
 20
44.622497
 30
0.0
 10
19.977304
 20
44.555822
 30
0.0
 10
19.997021
 20
44.489882
 30
0.0
 10
20.017474
 20
44.424670
 30
0.0
 10
20.038669
 20
44.360170
 30
0.0
 10
20.060599
 20
44.296367
 30
0.0
 10
20.083264
 20
44.233255
 30
0.0
 10
20.106656
 20
44.170817
 30
0.0
 10
20.130776
 20
44.109047
 30
0.0
 10
20.155616
 20
44.047930
 30
0.0
 10
20.181176
 20
43.987457
 30
0.0
 10
20.207449
 20
43.927607
 30
0.0
 10
20.234434
 20
43.868380
 30
0.0
 10
20.262124
 20
43.809760
 30
0.0
 10
20.290519
 20
43.751732
 30
0.0
 10
20.319611
 20
43.694290
 30
0.0
 10
20.349401
 20
43.637417
 30
0.0
 10
20.379889
 20
43.581100
 30
0.0
 10
20.411066
 20
43.525337
 30
0.0
 10
20.442926
 20
43.470107
 30
0.0
 10
20.475476
 20
43.415402
 30
0.0
 10
20.508701
 20
43.361207
 30
0.0
 10
20.542601
 20
43.307515
 30
0.0
 10
20.577176
 20
43.254310
 30
0.0
 10
20.612419
 20
43.201585
 30
0.0
 10
20.648329
 20
43.149325
 30
0.0
 10
20.684899
 20
43.097515
 30
0.0
 10
20.722129
 20
43.046147
 30
0.0
 10
20.760019
 20
42.995215
 30
0.0
 10
20.798554
 20
42.944695
 30
0.0
 10
20.837741
 20
42.894587
 30
0.0
 10
20.877574
 20
42.844870
 30
0.0
 10
20.918044
 20
42.795535
 30
0.0
 10
20.959151
 20
42.746575
 30
0.0
 10
21.000896
 20
42.697975
 30
0.0
 10
21.043271
 20
42.649720
 30
0.0
 10
21.086276
 20
42.601802
 30
0.0
 10
21.129904
 20
42.554208
 30
0.0
 10
21.174154
 20
42.506928
 30
0.0
 10
21.219019
 20
42.459948
 30
0.0
 10
21.264499
 20
42.413260
 30
0.0
 10
21.310586
 20
42.366850
 30
0.0
 10
21.357281
 20
42.320703
 30
0.0
 10
21.404576
 20
42.274810
 30
0.0
 10
21.452471
 20
42.229158
 30
0.0
 10
21.500966
 20
42.183738
 30
0.0
 10
21.550053
 20
42.138535
 30
0.0
 10
21.599726
 20
42.093543
 30
0.0
 10
21.649983
 20
42.048745
 30
0.0
 10
21.700826
 20
42.004128
 30
0.0
 10
21.752246
 20
41.959683
 30
0.0
 10
21.804243
 20
41.915403
 30
0.0
 10
21.856811
 20
41.871265
 30
0.0
 10
21.909948
 20
41.827270
 30
0.0
 10
21.963648
 20
41.783395
 30
0.0
 10
22.017911
 20
41.739640
 30
0.0
 10
22.072728
 20
41.695983
 30
0.0
 10
22.128101
 20
41.652415
 30
0.0
 10
22.184021
 20
41.608923
 30
0.0
 10
22.240488
 20
41.565498
 30
0.0
 10
22.297503
 20
41.522125
 30
0.0
 10
22.374461
 20
41.461900
 30
0.0
 10
22.452043
 20
41.402853
 30
0.0
 10
22.530240
 20
41.344968
 30
0.0
 10
22.609037
 20
41.288230
 30
0.0
 10
22.688425
 20
41.232618
 30
0.0
 10
22.768390
 20
41.178115
 30
0.0
 10
22.848922
 20
41.124708
 30
0.0
 10
22.930008
 20
41.072373
 30
0.0
 10
23.011637
 20
41.021095
 30
0.0
 10
23.093795
 20
40.970860
 30
0.0
 10
23.176473
 20
40.921645
 30
0.0
 10
23.259659
 20
40.873435
 30
0.0
 10
23.343338
 20
40.826215
 30
0.0
 10
23.427501
 20
40.779963
 30
0.0
 10
23.512136
 20
40.734663
 30
0.0
 10
23.597230
 20
40.690300
 30
0.0
 10
23.682771
 20
40.646853
 30
0.0
 10
23.768749
 20
40.604305
 30
0.0
 10
23.855150
 20
40.562643
 30
0.0
 10
23.941964
 20
40.521843
 30
0.0
 10
24.029178
 20
40.481890
 30
0.0
 10
24.116780
 20
40.442770
 30
0.0
 10
24.204760
 20
40.404460
 30
0.0
 10
24.293104
 20
40.366945
 30
0.0
 10
24.381800
 20
40.330210
 30
0.0
 10
24.470838
 20
40.294233
 30
0.0
 10
24.560206
 20
40.258998
 30
0.0
 10
24.649890
 20
40.224490
 30
0.0
 10
24.739880
 20
40.190688
 30
0.0
 10
24.830164
 20
40.157575
 30
0.0
 10
24.920730
 20
40.125138
 30
0.0
 10
25.011565
 20
40.093353
 30
0.0
 10
25.102660
 20
40.062205
 30
0.0
 10
25.194000
 20
40.031673
 30
0.0
 10
25.285574
 20
40.001748
 30
0.0
 10
25.377372
 20
39.972408
 30
0.0
 10
25.469379
 20
39.943630
 30
0.0
 10
25.561587
 20
39.915408
 30
0.0
 10
25.653981
 20
39.887711
 30
0.0
 10
25.746550
 20
39.860531
 30
0.0
 10
25.839283
 20
39.833853
 30
0.0
 10
25.932168
 20
39.807648
 30
0.0
 10
26.025192
 20
39.781908
 30
0.0
 10
26.118345
 20
39.756611
 30
0.0
 10
26.211612
 20
39.731741
 30
0.0
 10
26.304985
 20
39.707283
 30
0.0
 10
26.398449
 20
39.683216
 30
0.0
 10
26.491995
 20
39.659523
 30
0.0
 10
26.585609
 20
39.636191
 30
0.0
 10
26.679279
 20
39.613196
 30
0.0
 10
26.772995
 20
39.590523
 30
0.0
 10
26.866744
 20
39.568151
 30
0.0
 10
26.960514
 20
39.546071
 30
0.0
 10
27.054293
 20
39.524261
 30
0.0
 10
27.148070
 20
39.502698
 30
0.0
 10
27.241833
 20
39.481368
 30
0.0
 10
27.335570
 20
39.460263
 30
0.0
 10
27.429269
 20
39.439353
 30
0.0
 10
27.522918
 20
39.418623
 30
0.0
 10
27.616505
 20
39.398058
 30
0.0
 10
27.710020
 20
39.377643
 30
0.0
 10
27.803448
 20
39.357356
 30
0.0
 10
27.896780
 20
39.337181
 30
0.0
 10
27.990002
 20
39.317103
 30
0.0
 10
28.416622
 20
39.231722
 30
0.0
 10
28.843581
 20
39.148496
 30
0.0
 10
29.270869
 20
39.067350
 30
0.0
 10
29.698473
 20
38.988211
 30
0.0
 10
30.126384
 20
38.911004
 30
0.0
 10
30.554588
 20
38.835653
 30
0.0
 10
30.983075
 20
38.762085
 30
0.0
 10
31.411832
 20
38.690220
 30
0.0
 10
31.840850
 20
38.619990
 30
0.0
 10
32.270116
 20
38.551320
 30
0.0
 10
32.699618
 20
38.484135
 30
0.0
 10
33.129345
 20
38.418360
 30
0.0
 10
33.559286
 20
38.353920
 30
0.0
 10
33.989429
 20
38.290733
 30
0.0
 10
34.419762
 20
38.228730
 30
0.0
 10
34.850274
 20
38.167838
 30
0.0
 10
35.280954
 20
38.107980
 30
0.0
 10
35.711790
 20
38.049090
 30
0.0
 10
36.142771
 20
37.991085
 30
0.0
 10
36.573884
 20
37.933890
 30
0.0
 10
37.005119
 20
37.877430
 30
0.0
 10
37.436464
 20
37.821638
 30
0.0
 10
37.867908
 20
37.766430
 30
0.0
 10
38.299439
 20
37.711733
 30
0.0
 10
38.731045
 20
37.657478
 30
0.0
 10
39.162715
 20
37.603583
 30
0.0
 10
39.594438
 20
37.549980
 30
0.0
 10
40.026202
 20
37.496588
 30
0.0
 10
40.457995
 20
37.443338
 30
0.0
 10
40.889806
 20
37.390148
 30
0.0
 10
41.321624
 20
37.336950
 30
0.0
 10
41.753437
 20
37.283670
 30
0.0
 10
42.185234
 20
37.230226
 30
0.0
 10
42.617002
 20
37.176548
 30
0.0
 10
43.048731
 20
37.122563
 30
0.0
 10
43.480409
 20
37.068196
 30
0.0
 10
43.912025
 20
37.013371
 30
0.0
 10
44.343566
 20
36.958013
 30
0.0
 10
44.775022
 20
36.902048
 30
0.0
 10
45.206381
 20
36.845401
 30
0.0
 10
45.637632
 20
36.787996
 30
0.0
 10
46.068762
 20
36.729758
 30
0.0
 10
46.499761
 20
36.670613
 30
0.0
 10
46.930617
 20
36.610493
 30
0.0
 10
47.361319
 20
36.549316
 30
0.0
 10
47.791854
 20
36.487006
 30
0.0
 10
48.222212
 20
36.423496
 30
0.0
 10
48.652381
 20
36.358703
 30
0.0
 10
49.082350
 20
36.292561
 30
0.0
 10
49.512106
 20
36.224986
 30
0.0
 10
49.941639
 20
36.155911
 30
0.0
 10
50.370937
 20
36.085253
 30
0.0
 10
50.799989
 20
36.012946
 30
0.0
 10
51.228782
 20
35.938913
 30
0.0
 10
51.657307
 20
35.863075
 30
0.0
 10
52.085549
 20
35.785359
 30
0.0
 10
52.513500
 20
35.705693
 30
0.0
 10
52.941147
 20
35.624000
 30
0.0
 10
53.368477
 20
35.540206
 30
0.0
 10
53.795481
 20
35.454237
 30
0.0
 10
54.222147
 20
35.366018
 30
0.0
 10
54.648462
 20
35.275473
 30
0.0
 10
55.074416
 20
35.182530
 30
0.0
 10
55.499990
 20
35.087148
 30
0.0
 10
55.601091
 20
35.068113
 30
0.0
 10
55.702082
 20
35.048598
 30
0.0
 10
55.802962
 20
35.028603
 30
0.0
 10
55.903729
 20
35.008128
 30
0.0
 10
56.004380
 20
34.987181
 30
0.0
 10
56.104915
 20
34.965753
 30
0.0
 10
56.205332
 20
34.943853
 30
0.0
 10
56.305629
 20
34.921473
 30
0.0
 10
56.405804
 20
34.898621
 30
0.0
 10
56.505856
 20
34.875296
 30
0.0
 10
56.605784
 20
34.851491
 30
0.0
 10
56.705585
 20
34.827213
 30
0.0
 10
56.805258
 20
34.802463
 30
0.0
 10
56.904801
 20
34.777241
 30
0.0
 10
57.004213
 20
34.751546
 30
0.0
 10
57.103491
 20
34.725386
 30
0.0
 10
57.202635
 20
34.698753
 30
0.0
 10
57.301642
 20
34.671648
 30
0.0
 10
57.400511
 20
34.644078
 30
0.0
 10
57.499241
 20
34.616036
 30
0.0
 10
57.597829
 20
34.587528
 30
0.0
 10
57.696274
 20
34.558556
 30
0.0
 10
57.794575
 20
34.529111
 30
0.0
 10
57.892730
 20
34.499201
 30
0.0
 10
57.990736
 20
34.468826
 30
0.0
 10
58.088593
 20
34.437986
 30
0.0
 10
58.186299
 20
34.406681
 30
0.0
 10
58.283851
 20
34.374911
 30
0.0
 10
58.381249
 20
34.342676
 30
0.0
 10
58.478491
 20
34.309983
 30
0.0
 10
58.575575
 20
34.276826
 30
0.0
 10
58.672500
 20
34.243211
 30
0.0
 10
58.769263
 20
34.209131
 30
0.0
 10
58.865864
 20
34.174593
 30
0.0
 10
58.962300
 20
34.139591
 30
0.0
 10
59.058570
 20
34.104131
 30
0.0
 10
59.154672
 20
34.068213
 30
0.0
 10
59.250605
 20
34.031838
 30
0.0
 10
59.346367
 20
33.995006
 30
0.0
 10
59.441957
 20
33.957716
 30
0.0
 10
59.537371
 20
33.919968
 30
0.0
 10
59.632610
 20
33.881763
 30
0.0
 10
59.727671
 20
33.843108
 30
0.0
 10
59.822553
 20
33.803996
 30
0.0
 10
59.917253
 20
33.764426
 30
0.0
 10
60.011772
 20
33.724406
 30
0.0
 10
60.106105
 20
33.683936
 30
0.0
 10
60.200254
 20
33.643008
 30
0.0
 10
60.294214
 20
33.601631
 30
0.0
 10
60.387985
 20
33.559803
 30
0.0
 10
60.481565
 20
33.517526
 30
0.0
 10
60.574953
 20
33.474798
 30
0.0
 10
60.668147
 20
33.431621
 30
0.0
 10
60.761145
 20
33.387993
 30
0.0
 10
60.853945
 20
33.343916
 30
0.0
 10
60.946546
 20
33.299388
 30
0.0
 10
61.038946
 20
33.254419
 30
0.0
 10
61.131145
 20
33.208999
 30
0.0
 10
61.223138
 20
33.163136
 30
0.0
 10
61.314926
 20
33.116824
 30
0.0
 10
61.406507
 20
33.070069
 30
0.0
 10
61.497879
 20
33.022871
 30
0.0
 10
61.589040
 20
32.975231
 30
0.0
 10
61.679988
 20
32.927141
 30
0.0
 10
61.768342
 20
32.877514
 30
0.0
 10
61.856135
 20
32.827061
 30
0.0
 10
61.943363
 20
32.775784
 30
0.0
 10
62.030020
 20
32.723689
 30
0.0
 10
62.116103
 20
32.670776
 30
0.0
 10
62.201606
 20
32.617061
 30
0.0
 10
62.286523
 20
32.562544
 30
0.0
 10
62.370852
 20
32.507224
 30
0.0
 10
62.454585
 20
32.451116
 30
0.0
 10
62.537718
 20
32.394221
 30
0.0
 10
62.620247
 20
32.336546
 30
0.0
 10
62.702165
 20
32.278091
 30
0.0
 10
62.783471
 20
32.218864
 30
0.0
 10
62.864156
 20
32.158871
 30
0.0
 10
62.944217
 20
32.098121
 30
0.0
 10
63.023649
 20
32.036614
 30
0.0
 10
63.102447
 20
31.974356
 30
0.0
 10
63.180606
 20
31.911356
 30
0.0
 10
63.258121
 20
31.847614
 30
0.0
 10
63.334987
 20
31.783144
 30
0.0
 10
63.411199
 20
31.717939
 30
0.0
 10
63.486752
 20
31.652014
 30
0.0
 10
63.561640
 20
31.585369
 30
0.0
 10
63.635860
 20
31.518011
 30
0.0
 10
63.709405
 20
31.449949
 30
0.0
 10
63.782275
 20
31.381181
 30
0.0
 10
63.854462
 20
31.311716
 30
0.0
 10
63.925960
 20
31.241561
 30
0.0
 10
63.996767
 20
31.170716
 30
0.0
 10
64.066870
 20
31.099189
 30
0.0
 10
64.136275
 20
31.026986
 30
0.0
 10
64.204967
 20
30.954116
 30
0.0
 10
64.272947
 20
30.880579
 30
0.0
 10
64.340215
 20
30.806381
 30
0.0
 10
64.406755
 20
30.731531
 30
0.0
 10
64.472567
 20
30.656030
 30
0.0
 10
64.537652
 20
30.579885
 30
0.0
 10
64.601995
 20
30.503100
 30
0.0
 10
64.665595
 20
30.425682
 30
0.0
 10
64.728452
 20
30.347635
 30
0.0
 10
64.790552
 20
30.268965
 30
0.0
 10
64.851895
 20
30.189676
 30
0.0
 10
64.912480
 20
30.109775
 30
0.0
 10
64.972300
 20
30.029266
 30
0.0
 10
65.031347
 20
29.948155
 30
0.0
 10
65.089615
 20
29.866447
 30
0.0
 10
65.147102
 20
29.784148
 30
0.0
 10
65.203802
 20
29.701262
 30
0.0
 10
65.259707
 20
29.617794
 30
0.0
 10
65.314817
 20
29.533752
 30
0.0
 10
65.369124
 20
29.449138
 30
0.0
 10
65.422629
 20
29.363959
 30
0.0
 10
65.475324
 20
29.278220
 30
0.0
 10
65.527202
 20
29.191927
 30
0.0
 10
65.578254
 20
29.105083
 30
0.0
 10
65.628482
 20
29.017696
 30
0.0
 10
65.677877
 20
28.929769
 30
0.0
 10
65.726439
 20
28.841308
 30
0.0
 10
65.774162
 20
28.752319
 30
0.0
 10
65.821037
 20
28.662808
 30
0.0
 10
65.867064
 20
28.572778
 30
0.0
 10
65.912237
 20
28.482235
 30
0.0
 10
65.956547
 20
28.391185
 30
0.0
 10
65.999987
 20
28.299634
 30
0.0
 10
66.045879
 20
28.184875
 30
0.0
 10
66.090399
 20
28.069717
 30
0.0
 10
66.133539
 20
27.954171
 30
0.0
 10
66.175299
 20
27.838248
 30
0.0
 10
66.215679
 20
27.721961
 30
0.0
 10
66.254687
 20
27.605322
 30
0.0
 10
66.292314
 20
27.488343
 30
0.0
 10
66.328562
 20
27.371036
 30
0.0
 10
66.363429
 20
27.253413
 30
0.0
 10
66.396917
 20
27.135485
 30
0.0
 10
66.429024
 20
27.017267
 30
0.0
 10
66.459752
 20
26.898767
 30
0.0
 10
66.489099
 20
26.780000
 30
0.0
 10
66.517067
 20
26.660978
 30
0.0
 10
66.543654
 20
26.541711
 30
0.0
 10
66.568862
 20
26.422213
 30
0.0
 10
66.592682
 20
26.302494
 30
0.0
 10
66.615122
 20
26.182569
 30
0.0
 10
66.636182
 20
26.062447
 30
0.0
 10
66.655862
 20
25.942142
 30
0.0
 10
66.674154
 20
25.821666
 30
0.0
 10
66.691067
 20
25.701029
 30
0.0
 10
66.706599
 20
25.580245
 30
0.0
 10
66.720744
 20
25.459326
 30
0.0
 10
66.733509
 20
25.338283
 30
0.0
 10
66.744894
 20
25.217129
 30
0.0
 10
66.754892
 20
25.095876
 30
0.0
 10
66.763509
 20
24.974535
 30
0.0
 10
66.770709
 20
24.853119
 30
0.0
 10
66.776559
 20
24.731639
 30
0.0
 10
66.780984
 20
24.610108
 30
0.0
 10
66.784059
 20
24.488539
 30
0.0
 10
66.785784
 20
24.366942
 30
0.0
 10
66.786091
 20
24.245329
 30
0.0
 10
66.785041
 20
24.123715
 30
0.0
 10
66.782566
 20
24.002108
 30
0.0
 10
66.778741
 20
23.880523
 30
0.0
 10
66.773491
 20
23.758971
 30
0.0
 10
66.766891
 20
23.637464
 30
0.0
 10
66.758881
 20
23.516014
 30
0.0
 10
66.749483
 20
23.394632
 30
0.0
 10
66.738698
 20
23.273333
 30
0.0
 10
66.726526
 20
23.152126
 30
0.0
 10
66.712966
 20
23.031025
 30
0.0
 10
66.698018
 20
22.910041
 30
0.0
 10
66.681683
 20
22.789186
 30
0.0
 10
66.663961
 20
22.668473
 30
0.0
 10
66.644851
 20
22.547913
 30
0.0
 10
66.624353
 20
22.427518
 30
0.0
 10
66.602461
 20
22.307301
 30
0.0
 10
66.579181
 20
22.187274
 30
0.0
 10
66.554513
 20
22.067448
 30
0.0
 10
66.528459
 20
21.947835
 30
0.0
 10
66.501009
 20
21.828448
 30
0.0
 10
66.472171
 20
21.709299
 30
0.0
 10
66.441939
 20
21.590399
 30
0.0
 10
66.410319
 20
21.471761
 30
0.0
 10
66.377311
 20
21.353397
 30
0.0
 10
66.342909
 20
21.235319
 30
0.0
 10
66.307119
 20
21.117538
 30
0.0
 10
66.269934
 20
21.000067
 30
0.0
 10
66.231354
 20
20.882919
 30
0.0
 10
66.191386
 20
20.766104
 30
0.0
 10
66.150024
 20
20.649635
 30
0.0
 10
66.110904
 20
20.547202
 30
0.0
 10
66.071124
 20
20.445061
 30
0.0
 10
66.030691
 20
20.343217
 30
0.0
 10
65.989606
 20
20.241670
 30
0.0
 10
65.947869
 20
20.140426
 30
0.0
 10
65.905479
 20
20.039487
 30
0.0
 10
65.862444
 20
19.938856
 30
0.0
 10
65.818764
 20
19.838535
 30
0.0
 10
65.774439
 20
19.738527
 30
0.0
 10
65.729469
 20
19.638836
 30
0.0
 10
65.683861
 20
19.539465
 30
0.0
 10
65.637616
 20
19.440416
 30
0.0
 10
65.590734
 20
19.341692
 30
0.0
 10
65.543214
 20
19.243296
 30
0.0
 10
65.495064
 20
19.145232
 30
0.0
 10
65.446284
 20
19.047502
 30
0.0
 10
65.396874
 20
18.950109
 30
0.0
 10
65.346834
 20
18.853056
 30
0.0
 10
65.296171
 20
18.756346
 30
0.0
 10
65.244886
 20
18.659982
 30
0.0
 10
65.192979
 20
18.563967
 30
0.0
 10
65.140456
 20
18.468304
 30
0.0
 10
65.087311
 20
18.372995
 30
0.0
 10
65.033551
 20
18.278044
 30
0.0
 10
64.979176
 20
18.183454
 30
0.0
 10
64.924194
 20
18.089228
 30
0.0
 10
64.868596
 20
17.995368
 30
0.0
 10
64.812391
 20
17.901877
 30
0.0
 10
64.755579
 20
17.808759
 30
0.0
 10
64.698166
 20
17.716017
 30
0.0
 10
64.640154
 20
17.623652
 30
0.0
 10
64.581534
 20
17.531669
 30
0.0
 10
64.522321
 20
17.440070
 30
0.0
 10
64.462509
 20
17.348859
 30
0.0
 10
64.402104
 20
17.258037
 30
0.0
 10
64.341106
 20
17.167609
 30
0.0
 10
64.279516
 20
17.077576
 30
0.0
 10
64.217334
 20
16.987942
 30
0.0
 10
64.154566
 20
16.898710
 30
0.0
 10
64.091214
 20
16.809883
 30
0.0
 10
64.027276
 20
16.721464
 30
0.0
 10
63.962761
 20
16.633456
 30
0.0
 10
63.897661
 20
16.545861
 30
0.0
 10
63.831984
 20
16.458682
 30
0.0
 10
63.765729
 20
16.371924
 30
0.0
 10
63.698904
 20
16.285588
 30
0.0
 10
63.631509
 20
16.199677
 30
0.0
 10
63.563544
 20
16.114195
 30
0.0
 10
63.495009
 20
16.029143
 30
0.0
 10
63.425904
 20
15.944527
 30
0.0
 10
63.356237
 20
15.860347
 30
0.0
 10
63.286007
 20
15.776607
 30
0.0
 10
63.215214
 20
15.693311
 30
0.0
 10
63.143867
 20
15.610460
 30
0.0
 10
63.071964
 20
15.528059
 30
0.0
 10
62.999507
 20
15.446110
 30
0.0
 10
62.926494
 20
15.364615
 30
0.0
 10
62.852927
 20
15.283578
 30
0.0
 10
62.778812
 20
15.203002
 30
0.0
 10
62.704149
 20
15.122890
 30
0.0
 10
62.628940
 20
15.043244
 30
0.0
 10
62.553187
 20
14.964068
 30
0.0
 10
62.476893
 20
14.885364
 30
0.0
 10
62.400058
 20
14.807136
 30
0.0
 10
62.317813
 20
14.724107
 30
0.0
 10
62.235294
 20
14.641364
 30
0.0
 10
62.152503
 20
14.558910
 30
0.0
 10
62.069440
 20
14.476742
 30
0.0
 10
61.986105
 20
14.394862
 30
0.0
 10
61.902501
 20
14.313272
 30
0.0
 10
61.818627
 20
14.231970
 30
0.0
 10
61.734484
 20
14.150960
 30
0.0
 10
61.650073
 20
14.070240
 30
0.0
 10
61.565395
 20
13.989812
 30
0.0
 10
61.480451
 20
13.909676
 30
0.0
 10
61.395241
 20
13.829832
 30
0.0
 10
61.309766
 20
13.750283
 30
0.0
 10
61.224027
 20
13.671027
 30
0.0
 10
61.138025
 20
13.592066
 30
0.0
 10
61.051760
 20
13.513400
 30
0.0
 10
60.965234
 20
13.435030
 30
0.0
 10
60.878446
 20
13.356957
 30
0.0
 10
60.791398
 20
13.279180
 30
0.0
 10
60.704092
 20
13.201702
 30
0.0
 10
60.616525
 20
13.124523
 30
0.0
 10
60.528702
 20
13.047642
 30
0.0
 10
60.440621
 20
12.971061
 30
0.0
 10
60.352284
 20
12.894780
 30
0.0
 10
60.263692
 20
12.818800
 30
0.0
 10
60.174844
 20
12.743122
 30
0.0
 10
60.085743
 20
12.667747
 30
0.0
 10
59.996389
 20
12.592674
 30
0.0
 10
59.906782
 20
12.517906
 30
0.0
 10
59.816924
 20
12.443439
 30
0.0
 10
59.726814
 20
12.369279
 30
0.0
 10
59.636455
 20
12.295426
 30
0.0
 10
59.545846
 20
12.221874
 30
0.0
 10
59.454989
 20
12.148629
 30
0.0
 10
59.363883
 20
12.075691
 30
0.0
 10
59.272531
 20
12.003061
 30
0.0
 10
59.180933
 20
11.930747
 30
0.0
 10
59.089089
 20
11.858739
 30
0.0
 10
58.997001
 20
11.787039
 30
0.0
 10
58.904669
 20
11.715647
 30
0.0
 10
58.812093
 20
11.644569
 30
0.0
 10
58.719276
 20
11.573807
 30
0.0
 10
58.626217
 20
11.503352
 30
0.0
 10
58.532917
 20
11.433212
 30
0.0
 10
58.439377
 20
11.363387
 30
0.0
 10
58.345599
 20
11.293877
 30
0.0
 10
58.251581
 20
11.224682
 30
0.0
 10
58.157325
 20
11.155802
 30
0.0
 10
58.062834
 20
11.087237
 30
0.0
 10
57.968106
 20
11.018987
 30
0.0
 10
57.873142
 20
10.951059
 30
0.0
 10
57.777945
 20
10.883447
 30
0.0
 10
57.682512
 20
10.816149
 30
0.0
 10
57.586848
 20
10.749174
 30
0.0
 10
57.490951
 20
10.682522
 30
0.0
 10
57.394823
 20
10.616184
 30
0.0
 10
57.298464
 20
10.550169
 30
0.0
 10
57.201875
 20
10.484477
 30
0.0
 10
57.105058
 20
10.419107
 30
0.0
 10
57.008011
 20
10.354059
 30
0.0
 10
56.910738
 20
10.289342
 30
0.0
 10
56.813237
 20
10.224947
 30
0.0
 10
56.715511
 20
10.160874
 30
0.0
 10
56.617559
 20
10.097132
 30
0.0
 10
56.381560
 20
9.941643
 30
0.0
 10
56.144870
 20
9.787299
 30
0.0
 10
55.907492
 20
9.634102
 30
0.0
 10
55.669432
 20
9.482055
 30
0.0
 10
55.430692
 20
9.331158
 30
0.0
 10
55.191278
 20
9.181415
 30
0.0
 10
54.951193
 20
9.032827
 30
0.0
 10
54.710442
 20
8.885395
 30
0.0
 10
54.469030
 20
8.739124
 30
0.0
 10
54.226960
 20
8.594012
 30
0.0
 10
53.984237
 20
8.450064
 30
0.0
 10
53.740865
 20
8.307281
 30
0.0
 10
53.496848
 20
8.165665
 30
0.0
 10
53.252191
 20
8.025217
 30
0.0
 10
53.006899
 20
7.885942
 30
0.0
 10
52.760974
 20
7.747838
 30
0.0
 10
52.514422
 20
7.610910
 30
0.0
 10
52.267246
 20
7.475159
 30
0.0
 10
52.019452
 20
7.340585
 30
0.0
 10
51.771043
 20
7.207194
 30
0.0
 10
51.522023
 20
7.074985
 30
0.0
 10
51.272398
 20
6.943961
 30
0.0
 10
51.022170
 20
6.814124
 30
0.0
 10
50.771345
 20
6.685475
 30
0.0
 10
50.519928
 20
6.558018
 30
0.0
 10
50.267921
 20
6.431753
 30
0.0
 10
50.015329
 20
6.306683
 30
0.0
 10
49.762158
 20
6.182810
 30
0.0
 10
49.508409
 20
6.060135
 30
0.0
 10
49.254090
 20
5.938661
 30
0.0
 10
48.999202
 20
5.818390
 30
0.0
 10
48.743752
 20
5.699323
 30
0.0
 10
48.487742
 20
5.581464
 30
0.0
 10
48.231178
 20
5.464812
 30
0.0
 10
47.974063
 20
5.349372
 30
0.0
 10
47.716403
 20
5.235144
 30
0.0
 10
47.458199
 20
5.122130
 30
0.0
 10
47.199459
 20
5.010334
 30
0.0
 10
46.940186
 20
4.899755
 30
0.0
 10
46.680383
 20
4.790398
 30
0.0
 10
46.420056
 20
4.682263
 30
0.0
 10
46.159209
 20
4.575352
 30
0.0
 10
45.897845
 20
4.469668
 30
0.0
 10
45.635970
 20
4.365211
 30
0.0
 10
45.373586
 20
4.261987
 30
0.0
 10
45.110700
 20
4.159993
 30
0.0
 10
44.847314
 20
4.059235
 30
0.0
 10
44.583434
 20
3.959714
 30
0.0
 10
44.319064
 20
3.861430
 30
0.0
 10
44.054206
 20
3.764387
 30
0.0
 10
43.788868
 20
3.668586
 30
0.0
 10
43.523052
 20
3.574029
 30
0.0
 10
43.256762
 20
3.480719
 30
0.0
 10
42.990003
 20
3.388658
 30
0.0
 10
42.722780
 20
3.297846
 30
0.0
 10
42.455097
 20
3.208286
 30
0.0
 10
42.186956
 20
3.119981
 30
0.0
 10
41.918364
 20
3.032933
 30
0.0
 10
41.649324
 20
2.947142
 30
0.0
 10
41.379842
 20
2.862612
 30
0.0
 10
41.109920
 20
2.779344
 30
0.0
 10
40.839563
 20
2.697341
 30
0.0
 10
40.568776
 20
2.616603
 30
0.0
 10
40.297562
 20
2.537133
 30
0.0
 10
39.891043
 20
2.425236
 30
0.0
 10
39.483966
 20
2.315850
 30
0.0
 10
39.076346
 20
2.208975
 30
0.0
 10
38.668193
 20
2.104613
 30
0.0
 10
38.259518
 20
2.002764
 30
0.0
 10
37.850333
 20
1.903429
 30
0.0
 10
37.440651
 20
1.806610
 30
0.0
 10
37.030481
 20
1.712307
 30
0.0
 10
36.619837
 20
1.620520
 30
0.0
 10
36.208729
 20
1.531251
 30
0.0
 10
35.797171
 20
1.444501
 30
0.0
 10
35.385171
 20
1.360271
 30
0.0
 10
34.972744
 20
1.278562
 30
0.0
 10
34.559899
 20
1.199373
 30
0.0
 10
34.146649
 20
1.122707
 30
0.0
 10
33.733005
 20
1.048562
 30
0.0
 10
33.318979
 20
0.976945
 30
0.0
 10
32.904583
 20
0.907855
 30
0.0
 10
32.489828
 20
0.841285
 30
0.0
 10
32.074726
 20
0.777242
 30
0.0
 10
31.659288
 20
0.715727
 30
0.0
 10
31.243526
 20
0.656740
 30
0.0
 10
30.827451
 20
0.600287
 30
0.0
 10
30.411075
 20
0.546362
 30
0.0
 10
29.994411
 20
0.494972
 30
0.0
 10
29.577468
 20
0.446110
 30
0.0
 10
29.160260
 20
0.399782
 30
0.0
 10
28.742797
 20
0.355990
 30
0.0
 10
28.325092
 20
0.314732
 30
0.0
 10
27.907154
 20
0.276010
 30
0.0
 10
27.488998
 20
0.239822
 30
0.0
 10
27.070633
 20
0.206170
 30
0.0
 10
26.652072
 20
0.175060
 30
0.0
 10
26.233326
 20
0.146492
 30
0.0
 10
25.814407
 20
0.120460
 30
0.0
 10
25.395327
 20
0.096970
 30
0.0
 10
24.976096
 20
0.076022
 30
0.0
 10
24.556727
 20
0.057617
 30
0.0
 10
24.137231
 20
0.041755
 30
0.0
 10
23.717620
 20
0.028442
 30
0.0
 10
23.297905
 20
0.017672
 30
0.0
 10
22.878098
 20
0.009452
 30
0.0
 10
22.458212
 20
0.003752
 30
0.0
 10
22.038255
 20
0.000602
 30
0.0
 10
21.618243
 20
0.000024
 30
0.0
 10
21.198184
 20
0.001974
 30
0.0
 10
20.778091
 20
0.006474
 30
0.0
 10
20.357977
 20
0.013524
 30
0.0
 10
19.937852
 20
0.023154
 30
0.0
 10
19.517726
 20
0.035334
 30
0.0
 10
19.097614
 20
0.050071
 30
0.0
 10
18.677525
 20
0.067366
 30
0.0
 10
18.257473
 20
0.087211
 30
0.0
 10
17.837468
 20
0.109614
 30
0.0
 10
17.417521
 20
0.134574
 30
0.0
 10
16.997646
 20
0.162099
 30
0.0
 10
16.577851
 20
0.192181
 30
0.0
 10
16.158151
 20
0.224829
 30
0.0
 10
15.738557
 20
0.260034
 30
0.0
 10
15.319079
 20
0.297804
 30
0.0
 10
14.899729
 20
0.338139
 30
0.0
 10
14.480520
 20
0.381031
 30
0.0
 10
14.061462
 20
0.426496
 30
0.0
 10
13.642567
 20
0.474526
 30
0.0
 10
13.425427
 20
0.499231
 30
0.0
 10
13.208382
 20
0.524604
 30
0.0
 10
12.991432
 20
0.550651
 30
0.0
 10
12.774580
 20
0.577374
 30
0.0
 10
12.557826
 20
0.604764
 30
0.0
 10
12.341173
 20
0.632829
 30
0.0
 10
12.124621
 20
0.661569
 30
0.0
 10
11.908175
 20
0.690976
 30
0.0
 10
11.691832
 20
0.721059
 30
0.0
 10
11.475596
 20
0.751809
 30
0.0
 10
11.259467
 20
0.783234
 30
0.0
 10
11.043449
 20
0.815326
 30
0.0
 10
10.827542
 20
0.848086
 30
0.0
 10
10.611749
 20
0.881521
 30
0.0
 10
10.396069
 20
0.915624
 30
0.0
 10
10.180505
 20
0.950394
 30
0.0
 10
9.965058
 20
0.985831
 30
0.0
 10
9.749731
 20
1.021936
 30
0.0
 10
9.534524
 20
1.058709
 30
0.0
 10
9.319440
 20
1.096149
 30
0.0
 10
9.104479
 20
1.134256
 30
0.0
 10
8.889643
 20
1.173031
 30
0.0
 10
8.674933
 20
1.212474
 30
0.0
 10
8.460352
 20
1.252584
 30
0.0
 10
8.245901
 20
1.293361
 30
0.0
 10
8.031581
 20
1.334806
 30
0.0
 10
7.817394
 20
1.376911
 30
0.0
 10
7.603342
 20
1.419684
 30
0.0
 10
7.389425
 20
1.463116
 30
0.0
 10
7.175647
 20
1.507216
 30
0.0
 10
6.962007
 20
1.551984
 30
0.0
 10
6.748438
 20
1.597558
 30
0.0
 10
6.535081
 20
1.643649
 30
0.0
 10
6.321868
 20
1.690404
 30
0.0
 10
6.108800
 20
1.737820
 30
0.0
 10
5.895880
 20
1.785900
 30
0.0
 10
5.683107
 20
1.834641
 30
0.0
 10
5.470484
 20
1.884043
 30
0.0
 10
5.258013
 20
1.934108
 30
0.0
 10
5.045695
 20
1.984833
 30
0.0
 10
4.833532
 20
2.036218
 30
0.0
 10
4.621525
 20
2.088264
 30
0.0
 10
4.409675
 20
2.140970
 30
0.0
 10
4.197985
 20
2.194335
 30
0.0
 10
3.986455
 20
2.248360
 30
0.0
 10
3.775088
 20
2.303043
 30
0.0
 10
3.563884
 20
2.358386
 30
0.0
 10
3.352846
 20
2.414387
 30
0.0
 10
3.141975
 20
2.471046
 30
0.0
 10
2.931273
 20
2.528361
 30
0.0
 10
2.720741
 20
2.586335
 30
0.0
 10
2.510380
 20
2.644965
 30
0.0
 10
2.300192
 20
2.704253
 30
0.0
 10
2.090179
 20
2.764196
 30
0.0
 10
1.880343
 20
2.824796
 30
0.0
 10
1.670684
 20
2.886050
 30
0.0
 10
1.461204
 20
2.947961
 30
0.0
 10
1.251906
 20
3.010526
 30
0.0
 10
1.042790
 20
3.073746
 30
0.0
 10
0.833857
 20
3.137621
 30
0.0
 10
0.625111
 20
3.202148
 30
0.0
 10
0.416551
 20
3.267331
 30
0.0
 10
0.208181
 20
3.333166
 30
0.0
 10
0.000000
 20
3.399654
 30
0.0
 10
0.019911
 20
3.451472
 30
0.0
 10
0.040120
 20
3.503154
 30
0.0
 10
0.060627
 20
3.554702
 30
0.0
 10
0.081431
 20
3.606114
 30
0.0
 10
0.102532
 20
3.657399
 30
0.0
 10
0.123927
 20
3.708542
 30
0.0
 10
0.145618
 20
3.759549
 30
0.0
 10
0.167603
 20
3.810414
 30
0.0
 10
0.189881
 20
3.861144
 30
0.0
 10
0.212451
 20
3.911732
 30
0.0
 10
0.235314
 20
3.962177
 30
0.0
 10
0.258467
 20
4.012471
 30
0.0
 10
0.281911
 20
4.062624
 30
0.0
 10
0.305644
 20
4.112634
 30
0.0
 10
0.329666
 20
4.162494
 30
0.0
 10
0.353976
 20
4.212204
 30
0.0
 10
0.378574
 20
4.261764
 30
0.0
 10
0.403458
 20
4.311174
 30
0.0
 10
0.428627
 20
4.360434
 30
0.0
 10
0.454082
 20
4.409536
 30
0.0
 10
0.479822
 20
4.458489
 30
0.0
 10
0.505844
 20
4.507284
 30
0.0
 10
0.532150
 20
4.555921
 30
0.0
 10
0.558738
 20
4.604401
 30
0.0
 10
0.585607
 20
4.652716
 30
0.0
 10
0.612757
 20
4.700874
 30
0.0
 10
0.640186
 20
4.748866
 30
0.0
 10
0.667895
 20
4.796701
 30
0.0
 10
0.695882
 20
4.844371
 30
0.0
 10
0.724147
 20
4.891876
 30
0.0
 10
0.752688
 20
4.939209
 30
0.0
 10
0.781505
 20
4.986376
 30
0.0
 10
0.810599
 20
5.033371
 30
0.0
 10
0.839966
 20
5.080201
 30
0.0
 10
0.869608
 20
5.126859
 30
0.0
 10
0.899522
 20
5.173344
 30
0.0
 10
0.929710
 20
5.219649
 30
0.0
 10
0.960169
 20
5.265781
 30
0.0
 10
0.990899
 20
5.311734
 30
0.0
 10
1.021898
 20
5.357514
 30
0.0
 10
1.053167
 20
5.403114
 30
0.0
 10
1.084705
 20
5.448534
 30
0.0
 10
1.116511
 20
5.493774
 30
0.0
 10
1.148584
 20
5.538826
 30
0.0
 10
1.180923
 20
5.583699
 30
0.0
 10
1.213528
 20
5.628384
 30
0.0
 10
1.246398
 20
5.672881
 30
0.0
 10
1.279532
 20
5.717191
 30
0.0
 10
1.312930
 20
5.761314
 30
0.0
 10
1.346590
 20
5.805249
 30
0.0
 10
1.380512
 20
5.848989
 30
0.0
 10
1.414696
 20
5.892534
 30
0.0
 10
1.449140
 20
5.935891
 30
0.0
 10
1.483843
 20
5.979054
 30
0.0
 10
1.518806
 20
6.022021
 30
0.0
 10
1.554026
 20
6.064786
 30
0.0
 10
1.589504
 20
6.107356
 30
0.0
 10
1.625239
 20
6.149724
 30
0.0
 10
1.661230
 20
6.191889
 30
0.0
 10
1.697476
 20
6.233851
 30
0.0
 10
1.733977
 20
6.275611
 30
0.0
 10
1.770732
 20
6.317169
 30
0.0
 10
1.807739
 20
6.358524
 30
0.0
 10
1.845000
 20
6.399654
 30
0.0
 10
1.920440
 20
6.485256
 30
0.0
 10
1.996285
 20
6.570507
 30
0.0
 10
2.072520
 20
6.655418
 30
0.0
 10
2.149130
 20
6.740000
 30
0.0
 10
2.226104
 20
6.824267
 30
0.0
 10
2.303426
 20
6.908229
 30
0.0
 10
2.381083
 20
6.991897
 30
0.0
 10
2.459062
 20
7.075283
 30
0.0
 10
2.537348
 20
7.158399
 30
0.0
 10
2.615928
 20
7.241255
 30
0.0
 10
2.694789
 20
7.323864
 30
0.0
 10
2.773916
 20
7.406237
 30
0.0
 10
2.853295
 20
7.488386
 30
0.0
 10
2.932913
 20
7.570321
 30
0.0
 10
3.012757
 20
7.652055
 30
0.0
 10
3.092812
 20
7.733599
 30
0.0
 10
3.173065
 20
7.814964
 30
0.0
 10
3.253502
 20
7.896162
 30
0.0
 10
3.334109
 20
7.977205
 30
0.0
 10
3.414872
 20
8.058103
 30
0.0
 10
3.495779
 20
8.138869
 30
0.0
 10
3.576815
 20
8.219515
 30
0.0
 10
3.657965
 20
8.300050
 30
0.0
 10
3.739218
 20
8.380488
 30
0.0
 10
3.820559
 20
8.460839
 30
0.0
 10
3.901973
 20
8.541115
 30
0.0
 10
3.983448
 20
8.621328
 30
0.0
 10
4.064970
 20
8.701489
 30
0.0
 10
4.146525
 20
8.781609
 30
0.0
 10
4.228099
 20
8.861700
 30
0.0
 10
4.309678
 20
8.941773
 30
0.0
 10
4.391249
 20
9.021841
 30
0.0
 10
4.472798
 20
9.101914
 30
0.0
 10
4.554312
 20
9.182004
 30
0.0
 10
4.635776
 20
9.262122
 30
0.0
 10
4.717177
 20
9.342280
 30
0.0
 10
4.798501
 20
9.422490
 30
0.0
 10
4.879734
 20
9.502764
 30
0.0
 10
4.960863
 20
9.583111
 30
0.0
 10
5.041874
 20
9.663544
 30
0.0
 10
5.122753
 20
9.744075
 30
0.0
 10
5.203487
 20
9.824715
 30
0.0
 10
5.284061
 20
9.905476
 30
0.0
 10
5.364462
 20
9.986369
 30
0.0
 10
5.444676
 20
10.067405
 30
0.0
 10
5.524690
 20
10.148595
 30
0.0
 10
5.604490
 20
10.229953
 30
0.0
 10
5.684061
 20
10.311489
 30
0.0
 10
5.763391
 20
10.393214
 30
0.0
 10
5.842466
 20
10.475140
 30
0.0
 10
5.921271
 20
10.557279
 30
0.0
 10
5.999794
 20
10.639641
 30
0.0
 10
6.078020
 20
10.722239
 30
0.0
 10
6.155935
 20
10.805084
 30
0.0
 10
6.233526
 20
10.888188
 30
0.0
 10
6.310780
 20
10.971562
 30
0.0
 10
6.387682
 20
11.055217
 30
0.0
 10
6.464219
 20
11.139165
 30
0.0
 10
6.540376
 20
11.223418
 30
0.0
 10
6.616141
 20
11.307987
 30
0.0
 10
6.691500
 20
11.392883
 30
0.0
 10
6.766438
 20
11.478119
 30
0.0
 10
6.840942
 20
11.563705
 30
0.0
 10
6.914999
 20
11.649653
 30
0.0
 10
6.980645
 20
11.722620
 30
0.0
 10
7.045599
 20
11.796120
 30
0.0
 10
7.109858
 20
11.870153
 30
0.0
 10
7.173419
 20
11.944710
 30
0.0
 10
7.236279
 20
12.019786
 30
0.0
 10
7.298437
 20
12.095378
 30
0.0
 10
7.359889
 20
12.171481
 30
0.0
 10
7.420633
 20
12.248087
 30
0.0
 10
7.480667
 20
12.325193
 30
0.0
 10
7.539987
 20
12.402793
 30
0.0
 10
7.598592
 20
12.480883
 30
0.0
 10
7.656477
 20
12.559457
 30
0.0
 10
7.713642
 20
12.638510
 30
0.0
 10
7.770087
 20
12.718037
 30
0.0
 10
7.825805
 20
12.798032
 30
0.0
 10
7.880795
 20
12.878491
 30
0.0
 10
7.935057
 20
12.959408
 30
0.0
 10
7.988584
 20
13.040779
 30
0.0
 10
8.041377
 20
13.122598
 30
0.0
 10
8.093427
 20
13.204859
 30
0.0
 10
8.144742
 20
13.287558
 30
0.0
 10
8.195314
 20
13.370690
 30
0.0
 10
8.245137
 20
13.454249
 30
0.0
 10
8.294209
 20
13.538231
 30
0.0
 10
8.342532
 20
13.622629
 30
0.0
 10
8.390104
 20
13.707440
 30
0.0
 10
8.436919
 20
13.792658
 30
0.0
 10
8.482977
 20
13.878277
 30
0.0
 10
8.528277
 20
13.964293
 30
0.0
 10
8.572812
 20
14.050701
 30
0.0
 10
8.616582
 20
14.137494
 30
0.0
 10
8.659587
 20
14.224668
 30
0.0
 10
8.701819
 20
14.312219
 30
0.0
 10
8.743279
 20
14.400141
 30
0.0
 10
8.783959
 20
14.488428
 30
0.0
 10
8.823867
 20
14.577075
 30
0.0
 10
8.862987
 20
14.666078
 30
0.0
 10
8.901327
 20
14.755431
 30
0.0
 10
8.938879
 20
14.845129
 30
0.0
 10
8.975644
 20
14.935167
 30
0.0
 10
9.011622
 20
15.025540
 30
0.0
 10
9.046804
 20
15.116242
 30
0.0
 10
9.081192
 20
15.207269
 30
0.0
 10
9.114777
 20
15.298615
 30
0.0
 10
9.147559
 20
15.390275
 30
0.0
 10
9.179539
 20
15.482244
 30
0.0
 10
9.210717
 20
15.574517
 30
0.0
 10
9.241084
 20
15.667089
 30
0.0
 10
9.270642
 20
15.759954
 30
0.0
 10
9.299389
 20
15.853108
 30
0.0
 10
9.327319
 20
15.946545
 30
0.0
 10
9.354432
 20
16.040260
 30
0.0
 10
9.380719
 20
16.134247
 30
0.0
 10
9.406182
 20
16.228504
 30
0.0
 10
9.430819
 20
16.323022
 30
0.0
 10
9.454632
 20
16.417798
 30
0.0
 10
9.477612
 20
16.512826
 30
0.0
 10
9.499759
 20
16.608100
 30
0.0
 10
9.521067
 20
16.703618
 30
0.0
 10
9.541542
 20
16.799372
 30
0.0
 10
9.561177
 20
16.895358
 30
0.0
 10
9.579964
 20
16.991571
 30
0.0
 10
9.597904
 20
17.088004
 30
0.0
 10
9.614997
 20
17.184655
 30
0.0
 10
9.618372
 20
17.126657
 30
0.0
 10
9.621447
 20
17.068682
 30
0.0
 10
9.624222
 20
17.010730
 30
0.0
 10
9.626697
 20
16.952792
 30
0.0
 10
9.628947
 20
16.894877
 30
0.0
 10
9.630897
 20
16.836977
 30
0.0
 10
9.632622
 20
16.779100
 30
0.0
 10
9.634122
 20
16.721237
 30
0.0
 10
9.635322
 20
16.663390
 30
0.0
 10
9.636297
 20
16.605557
 30
0.0
 10
9.637122
 20
16.547740
 30
0.0
 10
9.637713
 20
16.489937
 30
0.0
 10
9.638108
 20
16.432150
 30
0.0
 10
9.638316
 20
16.374377
 30
0.0
 10
9.638346
 20
16.316612
 30
0.0
 10
9.638208
 20
16.258862
 30
0.0
 10
9.637909
 20
16.201120
 30
0.0
 10
9.637461
 20
16.143392
 30
0.0
 10
9.636873
 20
16.085672
 30
0.0
 10
9.636153
 20
16.027960
 30
0.0
 10
9.635328
 20
15.970255
 30
0.0
 10
9.634353
 20
15.912557
 30
0.0
 10
9.633303
 20
15.854867
 30
0.0
 10
9.632178
 20
15.797185
 30
0.0
 10
9.630903
 20
15.739510
 30
0.0
 10
9.629553
 20
15.681842
 30
0.0
 10
9.628203
 20
15.624175
 30
0.0
 10
9.626778
 20
15.566515
 30
0.0
 10
9.625278
 20
15.508855
 30
0.0
 10
9.623778
 20
15.451195
 30
0.0
 10
9.622203
 20
15.393535
 30
0.0
 10
9.620628
 20
15.335875
 30
0.0
 10
9.619053
 20
15.278215
 30
0.0
 10
9.617478
 20
15.220555
 30
0.0
 10
9.615903
 20
15.162895
 30
0.0
 10
9.614328
 20
15.105235
 30
0.0
 10
9.612828
 20
15.047575
 30
0.0
 10
9.611328
 20
14.989907
 30
0.0
 10
9.609903
 20
14.932240
 30
0.0
 10
9.608478
 20
14.874565
 30
0.0
 10
9.607128
 20
14.816882
 30
0.0
 10
9.605853
 20
14.759192
 30
0.0
 10
9.604653
 20
14.701502
 30
0.0
 10
9.603528
 20
14.643797
 30
0.0
 10
9.602553
 20
14.586085
 30
0.0
 10
9.601653
 20
14.528365
 30
0.0
 10
9.600903
 20
14.470638
 30
0.0
 10
9.600264
 20
14.412895
 30
0.0
 10
9.599763
 20
14.355145
 30
0.0
 10
9.599409
 20
14.297380
 30
0.0
 10
9.599210
 20
14.239608
 30
0.0
 10
9.599176
 20
14.181820
 30
0.0
 10
9.599317
 20
14.124018
 30
0.0
 10
9.599642
 20
14.066200
 30
0.0
 10
9.600159
 20
14.008368
 30
0.0
 10
9.600879
 20
13.950520
 30
0.0
 10
9.601779
 20
13.892658
 30
0.0
 10
9.602904
 20
13.834780
 30
0.0
 10
9.604254
 20
13.776880
 30
0.0
 10
9.605904
 20
13.718965
 30
0.0
 10
9.607779
 20
13.661028
 30
0.0
 10
9.609879
 20
13.603075
 30
0.0
 10
9.612279
 20
13.545100
 30
0.0
 10
9.614979
 20
13.487103
 30
0.0
 10
9.617679
 20
13.429128
 30
0.0
 10
9.620229
 20
13.371220
 30
0.0
 10
9.622629
 20
13.313373
 30
0.0
 10
9.624879
 20
13.255585
 30
0.0
 10
9.626979
 20
13.197858
 30
0.0
 10
9.628929
 20
13.140190
 30
0.0
 10
9.630729
 20
13.082583
 30
0.0
 10
9.632379
 20
13.025028
 30
0.0
 10
9.633954
 20
12.967533
 30
0.0
 10
9.635379
 20
12.910090
 30
0.0
 10
9.636729
 20
12.852700
 30
0.0
 10
9.637929
 20
12.795363
 30
0.0
 10
9.639054
 20
12.738070
 30
0.0
 10
9.640104
 20
12.680830
 30
0.0
 10
9.641079
 20
12.623635
 30
0.0
 10
9.641979
 20
12.566485
 30
0.0
 10
9.642804
 20
12.509380
 30
0.0
 10
9.643539
 20
12.452313
 30
0.0
 10
9.644217
 20
12.395290
 30
0.0
 10
9.644842
 20
12.338305
 30
0.0
 10
9.645422
 20
12.281358
 30
0.0
 10
9.645963
 20
12.224448
 30
0.0
 10
9.646472
 20
12.167575
 30
0.0
 10
9.646955
 20
12.110740
 30
0.0
 10
9.647419
 20
12.053935
 30
0.0
 10
9.647870
 20
11.997160
 30
0.0
 10
9.648315
 20
11.940416
 30
0.0
 10
9.648760
 20
11.883701
 30
0.0
 10
9.649212
 20
11.827016
 30
0.0
 10
9.649678
 20
11.770353
 30
0.0
 10
9.650163
 20
11.713721
 30
0.0
 10
9.650676
 20
11.657111
 30
0.0
 10
9.651221
 20
11.600523
 30
0.0
 10
9.651805
 20
11.543951
 30
0.0
 10
9.652435
 20
11.487401
 30
0.0
 10
9.653118
 20
11.430866
 30
0.0
 10
9.653860
 20
11.374346
 30
0.0
 10
9.654685
 20
11.317841
 30
0.0
 10
9.655585
 20
11.261351
 30
0.0
 10
9.656560
 20
11.204876
 30
0.0
 10
9.657610
 20
11.148408
 30
0.0
 10
9.658735
 20
11.091956
 30
0.0
 10
9.659935
 20
11.035511
 30
0.0
 10
9.661285
 20
10.979073
 30
0.0
 10
9.662710
 20
10.922636
 30
0.0
 10
9.664285
 20
10.866206
 30
0.0
 10
9.666010
 20
10.809776
 30
0.0
 10
9.667810
 20
10.753353
 30
0.0
 10
9.669760
 20
10.696923
 30
0.0
 10
9.671860
 20
10.640493
 30
0.0
 10
9.674110
 20
10.584063
 30
0.0
 10
9.676510
 20
10.527626
 30
0.0
 10
9.679060
 20
10.471188
 30
0.0
 10
9.681835
 20
10.414743
 30
0.0
 10
9.684760
 20
10.358291
 30
0.0
 10
9.687835
 20
10.301823
 30
0.0
 10
9.691135
 20
10.245348
 30
0.0
 10
9.694660
 20
10.188858
 30
0.0
 10
9.698335
 20
10.132361
 30
0.0
 10
9.702235
 20
10.075841
 30
0.0
 10
9.706360
 20
10.019306
 30
0.0
 10
9.710710
 20
9.962756
 30
0.0
 10
9.715285
 20
9.906183
 30
0.0
 10
9.720085
 20
9.849596
 30
0.0
 10
10.087031
 20
9.676483
 30
0.0
 10
10.455166
 20
9.506403
 30
0.0
 10
10.824472
 20
9.339358
 30
0.0
 10
11.194931
 20
9.175354
 30
0.0
 10
11.566521
 20
9.014392
 30
0.0
 10
11.939227
 20
8.856477
 30
0.0
 10
12.313027
 20
8.701612
 30
0.0
 10
12.687904
 20
8.549801
 30
0.0
 10
13.063838
 20
8.401048
 30
0.0
 10
13.440810
 20
8.255356
 30
0.0
 10
13.818803
 20
8.112730
 30
0.0
 10
14.197795
 20
7.973171
 30
0.0
 10
14.577770
 20
7.836685
 30
0.0
 10
14.958707
 20
7.703274
 30
0.0
 10
15.340588
 20
7.572944
 30
0.0
 10
15.723394
 20
7.445696
 30
0.0
 10
16.107106
 20
7.321535
 30
0.0
 10
16.491706
 20
7.200464
 30
0.0
 10
16.877173
 20
7.082486
 30
0.0
 10
17.263489
 20
6.967607
 30
0.0
 10
17.650636
 20
6.855829
 30
0.0
 10
18.038595
 20
6.747155
 30
0.0
 10
18.427346
 20
6.641590
 30
0.0
 10
18.816871
 20
6.539137
 30
0.0
 10
19.207150
 20
6.439800
 30
0.0
 10
19.598165
 20
6.343582
 30
0.0
 10
19.989898
 20
6.250488
 30
0.0
 10
20.382328
 20
6.160519
 30
0.0
 10
20.775436
 20
6.073681
 30
0.0
 10
21.169206
 20
5.989977
 30
0.0
 10
21.563616
 20
5.909410
 30
0.0
 10
21.958649
 20
5.831985
 30
0.0
 10
22.354285
 20
5.757705
 30
0.0
 10
22.750506
 20
5.686575
 30
0.0
 10
23.147292
 20
5.618595
 30
0.0
 10
23.544625
 20
5.553772
 30
0.0
 10
23.942486
 20
5.492107
 30
0.0
 10
24.340855
 20
5.433607
 30
0.0
 10
24.739714
 20
5.378272
 30
0.0
 10
25.139044
 20
5.326110
 30
0.0
 10
25.538826
 20
5.277120
 30
0.0
 10
25.939042
 20
5.231302
 30
0.0
 10
26.339672
 20
5.188672
 30
0.0
 10
26.740697
 20
5.149222
 30
0.0
 10
27.142098
 20
5.112960
 30
0.0
 10
27.543857
 20
5.079892
 30
0.0
 10
27.945954
 20
5.050020
 30
0.0
 10
28.348371
 20
5.023342
 30
0.0
 10
28.751089
 20
4.999867
 30
0.0
 10
29.154088
 20
4.979602
 30
0.0
 10
29.557351
 20
4.962547
 30
0.0
 10
29.960857
 20
4.948710
 30
0.0
 10
30.364589
 20
4.938082
 30
0.0
 10
30.768527
 20
4.930657
 30
0.0
 10
31.172651
 20
4.926457
 30
0.0
 10
31.576945
 20
4.925482
 30
0.0
 10
31.981387
 20
4.927732
 30
0.0
 10
32.385961
 20
4.933282
 30
0.0
 10
32.790646
 20
4.942042
 30
0.0
 10
33.195423
 20
4.954042
 30
0.0
 10
33.600273
 20
4.969290
 30
0.0
 10
34.005180
 20
4.987785
 30
0.0
 10
34.410122
 20
5.009535
 30
0.0
 10
34.815080
 20
5.034540
 30
0.0
 10
34.976086
 20
5.044207
 30
0.0
 10
35.137007
 20
5.054692
 30
0.0
 10
35.297840
 20
5.066002
 30
0.0
 10
35.458582
 20
5.078137
 30
0.0
 10
35.619230
 20
5.091090
 30
0.0
 10
35.779781
 20
5.104867
 30
0.0
 10
35.940232
 20
5.119462
 30
0.0
 10
36.100579
 20
5.134875
 30
0.0
 10
36.260821
 20
5.151112
 30
0.0
 10
36.420952
 20
5.168167
 30
0.0
 10
36.580972
 20
5.186040
 30
0.0
 10
36.740876
 20
5.204722
 30
0.0
 10
36.900661
 20
5.224222
 30
0.0
 10
37.060325
 20
5.244540
 30
0.0
 10
37.219864
 20
5.265667
 30
0.0
 10
37.379274
 20
5.287612
 30
0.0
 10
37.538554
 20
5.310375
 30
0.0
 10
37.697700
 20
5.333947
 30
0.0
 10
37.856709
 20
5.358330
 30
0.0
 10
38.015577
 20
5.383522
 30
0.0
 10
38.174302
 20
5.409525
 30
0.0
 10
38.332881
 20
5.436337
 30
0.0
 10
38.491310
 20
5.463960
 30
0.0
 10
38.649586
 20
5.492392
 30
0.0
 10
38.807707
 20
5.521635
 30
0.0
 10
38.965669
 20
5.551680
 30
0.0
 10
39.123469
 20
5.582535
 30
0.0
 10
39.281105
 20
5.614192
 30
0.0
 10
39.438572
 20
5.646652
 30
0.0
 10
39.595868
 20
5.679922
 30
0.0
 10
39.752990
 20
5.713995
 30
0.0
 10
39.909934
 20
5.748870
 30
0.0
 10
40.066698
 20
5.784547
 30
0.0
 10
40.223278
 20
5.821027
 30
0.0
 10
40.379673
 20
5.858302
 30
0.0
 10
40.535878
 20
5.896380
 30
0.0
 10
40.691889
 20
5.935260
 30
0.0
 10
40.847705
 20
5.974935
 30
0.0
 10
41.003322
 20
6.015405
 30
0.0
 10
41.158738
 20
6.056677
 30
0.0
 10
41.313947
 20
6.098745
 30
0.0
 10
41.468949
 20
6.141607
 30
0.0
 10
41.623740
 20
6.185265
 30
0.0
 10
41.778316
 20
6.229717
 30
0.0
 10
41.932675
 20
6.274965
 30
0.0
 10
42.086813
 20
6.321007
 30
0.0
 10
42.240728
 20
6.367837
 30
0.0
 10
42.394416
 20
6.415462
 30
0.0
 10
42.547875
 20
6.463875
 30
0.0
 10
42.701099
 20
6.513082
 30
0.0
 10
42.854089
 20
6.563077
 30
0.0
 10
43.006840
 20
6.613860
 30
0.0
 10
43.159348
 20
6.665429
 30
0.0
 10
43.311611
 20
6.717787
 30
0.0
 10
43.463627
 20
6.770932
 30
0.0
 10
43.615390
 20
6.824864
 30
0.0
 10
43.766899
 20
6.879584
 30
0.0
 10
43.918150
 20
6.935084
 30
0.0
 10
44.069141
 20
6.991372
 30
0.0
 10
44.219869
 20
7.048439
 30
0.0
 10
44.370329
 20
7.106294
 30
0.0
 10
44.520520
 20
7.164929
 30
0.0
 10
44.670437
 20
7.224344
 30
0.0
 10
44.820079
 20
7.284539
 30
0.0
 10
44.933942
 20
7.330499
 30
0.0
 10
45.047487
 20
7.377149
 30
0.0
 10
45.160711
 20
7.424482
 30
0.0
 10
45.273610
 20
7.472489
 30
0.0
 10
45.386183
 20
7.521179
 30
0.0
 10
45.498426
 20
7.570552
 30
0.0
 10
45.610335
 20
7.620599
 30
0.0
 10
45.721910
 20
7.671322
 30
0.0
 10
45.833145
 20
7.722712
 30
0.0
 10
45.944040
 20
7.774777
 30
0.0
 10
46.054590
 20
7.827509
 30
0.0
 10
46.164793
 20
7.880909
 30
0.0
 10
46.274646
 20
7.934969
 30
0.0
 10
46.384145
 20
7.989697
 30
0.0
 10
46.493289
 20
8.045084
 30
0.0
 10
46.602074
 20
8.101132
 30
0.0
 10
46.710497
 20
8.157832
 30
0.0
 10
46.818555
 20
8.215192
 30
0.0
 10
46.926246
 20
8.273204
 30
0.0
 10
47.033567
 20
8.331869
 30
0.0
 10
47.140514
 20
8.391179
 30
0.0
 10
47.247086
 20
8.451142
 30
0.0
 10
47.353277
 20
8.511749
 30
0.0
 10
47.459088
 20
8.573002
 30
0.0
 10
47.564513
 20
8.634892
 30
0.0
 10
47.669551
 20
8.697427
 30
0.0
 10
47.774198
 20
8.760599
 30
0.0
 10
47.878451
 20
8.824409
 30
0.0
 10
47.982308
 20
8.888849
 30
0.0
 10
48.085766
 20
8.953927
 30
0.0
 10
48.188821
 20
9.019634
 30
0.0
 10
48.291472
 20
9.085972
 30
0.0
 10
48.393714
 20
9.152932
 30
0.0
 10
48.495546
 20
9.220522
 30
0.0
 10
48.596963
 20
9.288734
 30
0.0
 10
48.697965
 20
9.357569
 30
0.0
 10
48.798546
 20
9.427019
 30
0.0
 10
48.898705
 20
9.497091
 30
0.0
 10
48.998439
 20
9.567779
 30
0.0
 10
49.097744
 20
9.639081
 30
0.0
 10
49.196619
 20
9.710991
 30
0.0
 10
49.295058
 20
9.783516
 30
0.0
 10
49.393062
 20
9.856649
 30
0.0
 10
49.490625
 20
9.930389
 30
0.0
 10
49.587746
 20
10.004729
 30
0.0
 10
49.684422
 20
10.079669
 30
0.0
 10
49.780648
 20
10.155213
 30
0.0
 10
49.876423
 20
10.231357
 30
0.0
 10
49.971744
 20
10.308098
 30
0.0
 10
50.066608
 20
10.385434
 30
0.0
 10
50.161012
 20
10.463363
 30
0.0
 10
50.254953
 20
10.541883
 30
0.0
 10
50.348427
 20
10.620993
 30
0.0
 10
50.441434
 20
10.700691
 30
0.0
 10
50.533968
 20
10.780974
 30
0.0
 10
50.626028
 20
10.861841
 30
0.0
 10
50.717611
 20
10.943291
 30
0.0
 10
50.808713
 20
11.025320
 30
0.0
 10
50.899332
 20
11.107927
 30
0.0
 10
50.989465
 20
11.191111
 30
0.0
 10
51.079109
 20
11.274869
 30
0.0
 10
51.168260
 20
11.359199
 30
0.0
 10
51.256918
 20
11.444101
 30
0.0
 10
51.345077
 20
11.529571
 30
0.0
 10
51.418202
 20
11.600768
 30
0.0
 10
51.490570
 20
11.672626
 30
0.0
 10
51.562172
 20
11.745143
 30
0.0
 10
51.633002
 20
11.818306
 30
0.0
 10
51.703060
 20
11.892113
 30
0.0
 10
51.772337
 20
11.966558
 30
0.0
 10
51.840842
 20
12.041636
 30
0.0
 10
51.908560
 20
12.117338
 30
0.0
 10
51.975490
 20
12.193659
 30
0.0
 10
52.041632
 20
12.270591
 30
0.0
 10
52.106980
 20
12.348128
 30
0.0
 10
52.171532
 20
12.426264
 30
0.0
 10
52.235282
 20
12.504992
 30
0.0
 10
52.298230
 20
12.584306
 30
0.0
 10
52.360375
 20
12.664200
 30
0.0
 10
52.421702
 20
12.744666
 30
0.0
 10
52.482220
 20
12.825699
 30
0.0
 10
52.541920
 20
12.907292
 30
0.0
 10
52.600802
 20
12.989438
 30
0.0
 10
52.658860
 20
13.072132
 30
0.0
 10
52.716085
 20
13.155367
 30
0.0
 10
52.772477
 20
13.239136
 30
0.0
 10
52.828037
 20
13.323432
 30
0.0
 10
52.882757
 20
13.408250
 30
0.0
 10
52.936637
 20
13.493583
 30
0.0
 10
52.989677
 20
13.579425
 30
0.0
 10
53.041862
 20
13.665768
 30
0.0
 10
53.093200
 20
13.752608
 30
0.0
 10
53.143682
 20
13.839936
 30
0.0
 10
53.193302
 20
13.927747
 30
0.0
 10
53.242067
 20
14.016035
 30
0.0
 10
53.289962
 20
14.104792
 30
0.0
 10
53.336987
 20
14.194014
 30
0.0
 10
53.383142
 20
14.283691
 30
0.0
 10
53.428419
 20
14.373819
 30
0.0
 10
53.472819
 20
14.464392
 30
0.0
 10
53.516334
 20
14.555402
 30
0.0
 10
53.558964
 20
14.646843
 30
0.0
 10
53.600702
 20
14.738709
 30
0.0
 10
53.641547
 20
14.830994
 30
0.0
 10
53.681499
 20
14.923690
 30
0.0
 10
53.720552
 20
15.016792
 30
0.0
 10
53.758697
 20
15.110292
 30
0.0
 10
53.795942
 20
15.204186
 30
0.0
 10
53.832272
 20
15.298465
 30
0.0
 10
53.867687
 20
15.393124
 30
0.0
 10
53.902187
 20
15.488156
 30
0.0
 10
53.935764
 20
15.583556
 30
0.0
 10
53.968419
 20
15.679315
 30
0.0
 10
54.000144
 20
15.775428
 30
0.0
 10
54.030947
 20
15.871889
 30
0.0
 10
54.060812
 20
15.968691
 30
0.0
 10
54.089739
 20
16.065827
 30
0.0
 10
54.117722
 20
16.163291
 30
0.0
 10
54.144767
 20
16.261078
 30
0.0
 10
54.170859
 20
16.359179
 30
0.0
 10
54.195999
 20
16.457589
 30
0.0
 10
54.220187
 20
16.556302
 30
0.0
 10
54.243414
 20
16.655310
 30
0.0
 10
54.265682
 20
16.754608
 30
0.0
 10
54.286982
 20
16.854189
 30
0.0
 10
54.307314
 20
16.954046
 30
0.0
 10
54.326672
 20
17.054174
 30
0.0
 10
54.345054
 20
17.154565
 30
0.0
 10
54.360804
 20
17.240055
 30
0.0
 10
54.375729
 20
17.325630
 30
0.0
 10
54.389822
 20
17.411283
 30
0.0
 10
54.403082
 20
17.497010
 30
0.0
 10
54.415517
 20
17.582804
 30
0.0
 10
54.427127
 20
17.668660
 30
0.0
 10
54.437904
 20
17.754572
 30
0.0
 10
54.447857
 20
17.840534
 30
0.0
 10
54.456984
 20
17.926539
 30
0.0
 10
54.465287
 20
18.012584
 30
0.0
 10
54.472787
 20
18.098661
 30
0.0
 10
54.479462
 20
18.184764
 30
0.0
 10
54.485312
 20
18.270888
 30
0.0
 10
54.490337
 20
18.357028
 30
0.0
 10
54.494537
 20
18.443176
 30
0.0
 10
54.497912
 20
18.529329
 30
0.0
 10
54.500462
 20
18.615478
 30
0.0
 10
54.502187
 20
18.701619
 30
0.0
 10
54.503087
 20
18.787747
 30
0.0
 10
54.503178
 20
18.873854
 30
0.0
 10
54.502451
 20
18.959936
 30
0.0
 10
54.500876
 20
19.045986
 30
0.0
 10
54.498551
 20
19.131999
 30
0.0
 10
54.495401
 20
19.217969
 30
0.0
 10
54.491426
 20
19.303890
 30
0.0
 10
54.486626
 20
19.389756
 30
0.0
 10
54.481001
 20
19.475561
 30
0.0
 10
54.474551
 20
19.561301
 30
0.0
 10
54.467276
 20
19.646967
 30
0.0
 10
54.459221
 20
19.732556
 30
0.0
 10
54.450356
 20
19.818061
 30
0.0
 10
54.440681
 20
19.903476
 30
0.0
 10
54.430196
 20
19.988796
 30
0.0
 10
54.418908
 20
20.074014
 30
0.0
 10
54.406811
 20
20.159125
 30
0.0
 10
54.393903
 20
20.244123
 30
0.0
 10
54.380193
 20
20.329003
 30
0.0
 10
54.365673
 20
20.413757
 30
0.0
 10
54.350351
 20
20.498381
 30
0.0
 10
54.334226
 20
20.582869
 30
0.0
 10
54.317291
 20
20.667215
 30
0.0
 10
54.299553
 20
20.751413
 30
0.0
 10
54.281013
 20
20.835457
 30
0.0
 10
54.261678
 20
20.919342
 30
0.0
 10
54.241541
 20
21.003061
 30
0.0
 10
54.220601
 20
21.086609
 30
0.0
 10
54.198858
 20
21.169980
 30
0.0
 10
54.176321
 20
21.253168
 30
0.0
 10
54.152988
 20
21.336168
 30
0.0
 10
54.128853
 20
21.418973
 30
0.0
 10
54.103923
 20
21.501577
 30
0.0
 10
54.078198
 20
21.583976
 30
0.0
 10
54.051678
 20
21.666163
 30
0.0
 10
54.024363
 20
21.748132
 30
0.0
 10
53.996253
 20
21.829878
 30
0.0
 10
53.967348
 20
21.911393
 30
0.0
 10
53.937648
 20
21.992674
 30
0.0
 10
53.907161
 20
22.073714
 30
0.0
 10
53.875878
 20
22.154507
 30
0.0
 10
53.843808
 20
22.235047
 30
0.0
 10
53.810951
 20
22.315329
 30
0.0
 10
53.777298
 20
22.395346
 30
0.0
 10
53.742858
 20
22.475093
 30
0.0
 10
53.707631
 20
22.554564
 30
0.0
 10
53.676483
 20
22.615299
 30
0.0
 10
53.644706
 20
22.675637
 30
0.0
 10
53.612313
 20
22.735577
 30
0.0
 10
53.579306
 20
22.795112
 30
0.0
 10
53.545691
 20
22.854242
 30
0.0
 10
53.511468
 20
22.912959
 30
0.0
 10
53.476638
 20
22.971264
 30
0.0
 10
53.441216
 20
23.029149
 30
0.0
 10
53.405201
 20
23.086614
 30
0.0
 10
53.368593
 20
23.143652
 30
0.0
 10
53.331401
 20
23.200254
 30
0.0
 10
53.293631
 20
23.256422
 30
0.0
 10
53.255283
 20
23.312154
 30
0.0
 10
53.216359
 20
23.367444
 30
0.0
 10
53.176864
 20
23.422284
 30
0.0
 10
53.136806
 20
23.476674
 30
0.0
 10
53.096194
 20
23.530614
 30
0.0
 10
53.055019
 20
23.584097
 30
0.0
 10
53.013296
 20
23.637114
 30
0.0
 10
52.971026
 20
23.689667
 30
0.0
 10
52.928209
 20
23.741747
 30
0.0
 10
52.884851
 20
23.793354
 30
0.0
 10
52.840961
 20
23.844482
 30
0.0
 10
52.796539
 20
23.895129
 30
0.0
 10
52.751591
 20
23.945289
 30
0.0
 10
52.706119
 20
23.994961
 30
0.0
 10
52.660129
 20
24.044139
 30
0.0
 10
52.613629
 20
24.092814
 30
0.0
 10
52.566619
 20
24.140986
 30
0.0
 10
52.519099
 20
24.188656
 30
0.0
 10
52.471084
 20
24.235816
 30
0.0
 10
52.422566
 20
24.282459
 30
0.0
 10
52.373554
 20
24.328584
 30
0.0
 10
52.324054
 20
24.374184
 30
0.0
 10
52.274074
 20
24.419259
 30
0.0
 10
52.223614
 20
24.463801
 30
0.0
 10
52.172674
 20
24.507811
 30
0.0
 10
52.121261
 20
24.551281
 30
0.0
 10
52.069384
 20
24.594211
 30
0.0
 10
52.017041
 20
24.636594
 30
0.0
 10
51.964241
 20
24.678429
 30
0.0
 10
51.910984
 20
24.719709
 30
0.0
 10
51.857276
 20
24.760434
 30
0.0
 10
51.803119
 20
24.800596
 30
0.0
 10
51.748519
 20
24.840189
 30
0.0
 10
51.693484
 20
24.879211
 30
0.0
 10
51.638014
 20
24.917664
 30
0.0
 10
51.582116
 20
24.955531
 30
0.0
 10
51.525791
 20
24.992821
 30
0.0
 10
51.469046
 20
25.029526
 30
0.0
 10
51.411881
 20
25.065639
 30
0.0
 10
51.354304
 20
25.101159
 30
0.0
 10
51.296314
 20
25.136079
 30
0.0
 10
51.237919
 20
25.170399
 30
0.0
 10
51.179126
 20
25.204111
 30
0.0
 10
51.119936
 20
25.237209
 30
0.0
 10
51.060356
 20
25.269699
 30
0.0
 10
51.000386
 20
25.301566
 30
0.0
 10
50.940034
 20
25.332811
 30
0.0
 10
50.879299
 20
25.363434
 30
0.0
 10
50.818189
 20
25.393426
 30
0.0
 10
50.756704
 20
25.422781
 30
0.0
 10
50.694851
 20
25.451499
 30
0.0
 10
50.632639
 20
25.479579
 30
0.0
 10
50.553621
 20
25.512991
 30
0.0
 10
50.474490
 20
25.546111
 30
0.0
 10
50.395249
 20
25.578946
 30
0.0
 10
50.315896
 20
25.611489
 30
0.0
 10
50.236434
 20
25.643739
 30
0.0
 10
50.156862
 20
25.675704
 30
0.0
 10
50.077182
 20
25.707376
 30
0.0
 10
49.997395
 20
25.738756
 30
0.0
 10
49.917501
 20
25.769844
 30
0.0
 10
49.837502
 20
25.800639
 30
0.0
 10
49.757397
 20
25.831149
 30
0.0
 10
49.677188
 20
25.861366
 30
0.0
 10
49.596876
 20
25.891291
 30
0.0
 10
49.516460
 20
25.920924
 30
0.0
 10
49.435943
 20
25.950264
 30
0.0
 10
49.355325
 20
25.979311
 30
0.0
 10
49.274607
 20
26.008066
 30
0.0
 10
49.193790
 20
26.036529
 30
0.0
 10
49.112873
 20
26.064699
 30
0.0
 10
49.031860
 20
26.092569
 30
0.0
 10
48.950749
 20
26.120146
 30
0.0
 10
48.869541
 20
26.147431
 30
0.0
 10
48.788239
 20
26.174424
 30
0.0
 10
48.706841
 20
26.201116
 30
0.0
 10
48.625351
 20
26.227516
 30
0.0
 10
48.543766
 20
26.253624
 30
0.0
 10
48.462090
 20
26.279431
 30
0.0
 10
48.380323
 20
26.304946
 30
0.0
 10
48.298465
 20
26.330161
 30
0.0
 10
48.216517
 20
26.355084
 30
0.0
 10
48.134480
 20
26.379714
 30
0.0
 10
48.052355
 20
26.404044
 30
0.0
 10
47.970143
 20
26.428074
 30
0.0
 10
47.887844
 20
26.451811
 30
0.0
 10
47.805460
 20
26.475249
 30
0.0
 10
47.722991
 20
26.498386
 30
0.0
 10
47.640437
 20
26.521231
 30
0.0
 10
47.557800
 20
26.543776
 30
0.0
 10
47.475081
 20
26.566021
 30
0.0
 10
47.392280
 20
26.587966
 30
0.0
 10
47.309398
 20
26.609619
 30
0.0
 10
47.226436
 20
26.630971
 30
0.0
 10
47.143395
 20
26.652023
 30
0.0
 10
47.060275
 20
26.672776
 30
0.0
 10
46.977077
 20
26.693228
 30
0.0
 10
46.893803
 20
26.713381
 30
0.0
 10
46.810453
 20
26.733233
 30
0.0
 10
46.727027
 20
26.752786
 30
0.0
 10
46.643528
 20
26.772038
 30
0.0
 10
46.559954
 20
26.790991
 30
0.0
 10
46.476307
 20
26.809643
 30
0.0
 10
46.392588
 20
26.827996
 30
0.0
 10
46.308799
 20
26.846041
 30
0.0
 10
46.224939
 20
26.863786
 30
0.0
 10
46.141009
 20
26.881231
 30
0.0
 10
46.057010
 20
26.898376
 30
0.0
 10
45.972943
 20
26.915213
 30
0.0
 10
45.888810
 20
26.931751
 30
0.0
 10
45.804609
 20
26.947981
 30
0.0
 10
45.720343
 20
26.963911
 30
0.0
 10
45.636012
 20
26.979541
 30
0.0
 10
45.551618
 20
26.994863
 30
0.0
 10
45.467160
 20
27.009886
 30
0.0
 10
45.382640
 20
27.024601
 30
0.0
 10
45.186062
 20
27.063556
 30
0.0
 10
44.989377
 20
27.101686
 30
0.0
 10
44.792586
 20
27.139006
 30
0.0
 10
44.595693
 20
27.175538
 30
0.0
 10
44.398699
 20
27.211306
 30
0.0
 10
44.201608
 20
27.246323
 30
0.0
 10
44.004422
 20
27.280613
 30
0.0
 10
43.807142
 20
27.314198
 30
0.0
 10
43.609772
 20
27.347093
 30
0.0
 10
43.412313
 20
27.379313
 30
0.0
 10
43.214769
 20
27.410888
 30
0.0
 10
43.017141
 20
27.441833
 30
0.0
 10
42.819432
 20
27.472163
 30
0.0
 10
42.621644
 20
27.501901
 30
0.0
 10
42.423781
 20
27.531068
 30
0.0
 10
42.225844
 20
27.559681
 30
0.0
 10
42.027835
 20
27.587761
 30
0.0
 10
41.829757
 20
27.615331
 30
0.0
 10
41.631612
 20
27.642406
 30
0.0
 10
41.433404
 20
27.669008
 30
0.0
 10
41.235133
 20
27.695153
 30
0.0
 10
41.036803
 20
27.720863
 30
0.0
 10
40.838416
 20
27.746161
 30
0.0
 10
40.639975
 20
27.771061
 30
0.0
 10
40.441481
 20
27.795586
 30
0.0
 10
40.242937
 20
27.819751
 30
0.0
 10
40.044347
 20
27.843578
 30
0.0
 10
39.845711
 20
27.867091
 30
0.0
 10
39.647033
 20
27.890303
 30
0.0
 10
39.448314
 20
27.913238
 30
0.0
 10
39.249558
 20
27.935918
 30
0.0
 10
39.050766
 20
27.958358
 30
0.0
 10
38.851941
 20
27.980573
 30
0.0
 10
38.653086
 20
28.002593
 30
0.0
 10
38.454203
 20
28.024433
 30
0.0
 10
38.255294
 20
28.046108
 30
0.0
 10
38.056362
 20
28.067641
 30
0.0
 10
37.857408
 20
28.089053
 30
0.0
 10
37.658436
 20
28.110361
 30
0.0
 10
37.459448
 20
28.131586
 30
0.0
 10
37.260446
 20
28.152751
 30
0.0
 10
37.061434
 20
28.173871
 30
0.0
 10
36.862411
 20
28.194968
 30
0.0
 10
36.663382
 20
28.216058
 30
0.0
 10
36.464350
 20
28.237163
 30
0.0
 10
36.265315
 20
28.258306
 30
0.0
 10
36.066282
 20
28.279501
 30
0.0
 10
35.867252
 20
28.300771
 30
0.0
 10
35.668226
 20
28.322138
 30
0.0
 10
35.469209
 20
28.343611
 30
0.0
 10
35.270202
 20
28.365218
 30
0.0
 10
35.071208
 20
28.386983
 30
0.0
 10
34.872228
 20
28.408913
 30
0.0
 10
34.673267
 20
28.431038
 30
0.0
 10
34.474325
 20
28.453373
 30
0.0
 10
34.275406
 20
28.475941
 30
0.0
 10
34.076511
 20
28.498756
 30
0.0
 10
33.877644
 20
28.521841
 30
0.0
 10
33.678805
 20
28.545211
 30
0.0
 10
33.480000
 20
28.568896
 30
0.0
 10
33.281228
 20
28.592903
 30
0.0
 10
33.082492
 20
28.617263
 30
0.0
 10
32.883797
 20
28.641991
 30
0.0
 10
32.685142
 20
28.667101
 30
0.0
 10
32.520254
 20
28.686848
 30
0.0
 10
32.355357
 20
28.706716
 30
0.0
 10
32.190452
 20
28.726711
 30
0.0
 10
32.025541
 20
28.746833
 30
0.0
 10
31.860627
 20
28.767083
 30
0.0
 10
31.695710
 20
28.787461
 30
0.0
 10
31.530792
 20
28.807973
 30
0.0
 10
31.365875
 20
28.828613
 30
0.0
 10
31.200961
 20
28.849388
 30
0.0
 10
31.036052
 20
28.870298
 30
0.0
 10
30.871148
 20
28.891351
 30
0.0
 10
30.706252
 20
28.912546
 30
0.0
 10
30.541367
 20
28.933876
 30
0.0
 10
30.376492
 20
28.955348
 30
0.0
 10
30.211630
 20
28.976971
 30
0.0
 10
30.046784
 20
28.998736
 30
0.0
 10
29.881953
 20
29.020651
 30
0.0
 10
29.717141
 20
29.042716
 30
0.0
 10
29.552349
 20
29.064931
 30
0.0
 10
29.387578
 20
29.087303
 30
0.0
 10
29.222831
 20
29.109833
 30
0.0
 10
29.058109
 20
29.132513
 30
0.0
 10
28.893414
 20
29.155351
 30
0.0
 10
28.728747
 20
29.178353
 30
0.0
 10
28.564110
 20
29.201513
 30
0.0
 10
28.399505
 20
29.224838
 30
0.0
 10
28.234934
 20
29.248328
 30
0.0
 10
28.070398
 20
29.271991
 30
0.0
 10
27.905900
 20
29.295818
 30
0.0
 10
27.741440
 20
29.319818
 30
0.0
 10
27.577021
 20
29.343990
 30
0.0
 10
27.412643
 20
29.368335
 30
0.0
 10
27.248310
 20
29.392860
 30
0.0
 10
27.084023
 20
29.417558
 30
0.0
 10
26.919782
 20
29.442435
 30
0.0
 10
26.755592
 20
29.467493
 30
0.0
 10
26.591451
 20
29.492738
 30
0.0
 10
26.427363
 20
29.518163
 30
0.0
 10
26.263330
 20
29.543775
 30
0.0
 10
26.099352
 20
29.569575
 30
0.0
 10
25.935433
 20
29.595563
 30
0.0
 10
25.771572
 20
29.621745
 30
0.0
 10
25.607773
 20
29.648123
 30
0.0
 10
25.444036
 20
29.674688
 30
0.0
 10
25.280365
 20
29.701455
 30
0.0
 10
25.116759
 20
29.728418
 30
0.0
 10
24.953221
 20
29.755583
 30
0.0
 10
24.789754
 20
29.782943
 30
0.0
 10
24.626356
 20
29.810513
 30
0.0
 10
24.463033
 20
29.838285
 30
0.0
 10
24.299785
 20
29.866268
 30
0.0
 10
24.136612
 20
29.894453
 30
0.0
 10
23.973519
 20
29.922848
 30
0.0
 10
23.810505
 20
29.951460
 30
0.0
 10
23.647573
 20
29.980283
 30
0.0
 10
23.484724
 20
30.009323
 30
0.0
 10
23.321960
 20
30.038580
 30
0.0
 10
23.159284
 20
30.068055
 30
0.0
 10
22.996696
 20
30.097748
 30
0.0
 10
22.834198
 20
30.127665
 30
0.0
 10
22.671792
 20
30.157808
 30
0.0
 10
22.509480
 20
30.188175
 30
0.0
 10
22.347264
 20
30.218768
 30
0.0
 10
22.185144
 20
30.249593
 30
0.0
 10
22.062768
 20
30.270158
 30
0.0
 10
21.940471
 20
30.291120
 30
0.0
 10
21.818252
 20
30.312480
 30
0.0
 10
21.696113
 20
30.334238
 30
0.0
 10
21.574055
 20
30.356393
 30
0.0
 10
21.452079
 20
30.378945
 30
0.0
 10
21.330186
 20
30.401895
 30
0.0
 10
21.208376
 20
30.425235
 30
0.0
 10
21.086651
 20
30.448973
 30
0.0
 10
20.965012
 20
30.473108
 30
0.0
 10
20.843459
 20
30.497640
 30
0.0
 10
20.721994
 20
30.522563
 30
0.0
 10
20.600617
 20
30.547883
 30
0.0
 10
20.479330
 20
30.573600
 30
0.0
 10
20.358133
 20
30.599715
 30
0.0
 10
20.237027
 20
30.626220
 30
0.0
 10
20.116014
 20
30.653123
 30
0.0
 10
19.995094
 20
30.680415
 30
0.0
 10
19.874269
 20
30.708105
 30
0.0
 10
19.753538
 20
30.736185
 30
0.0
 10
19.632904
 20
30.764655
 30
0.0
 10
19.512367
 20
30.793523
 30
0.0
 10
19.391927
 20
30.822780
 30
0.0
 10
19.271588
 20
30.852435
 30
0.0
 10
19.151347
 20
30.882480
 30
0.0
 10
19.031208
 20
30.912915
 30
0.0
 10
18.911171
 20
30.943740
 30
0.0
 10
18.791236
 20
30.974955
 30
0.0
 10
18.671405
 20
31.006560
 30
0.0
 10
18.551679
 20
31.038555
 30
0.0
 10
18.432060
 20
31.070948
 30
0.0
 10
18.312546
 20
31.103730
 30
0.0
 10
18.193140
 20
31.136903
 30
0.0
 10
18.073842
 20
31.170458
 30
0.0
 10
17.954655
 20
31.204410
 30
0.0
 10
17.835577
 20
31.238745
 30
0.0
 10
17.716611
 20
31.273470
 30
0.0
 10
17.597757
 20
31.308585
 30
0.0
 10
17.479017
 20
31.344090
 30
0.0
 10
17.360391
 20
31.379978
 30
0.0
 10
17.241881
 20
31.416255
 30
0.0
 10
17.123486
 20
31.452923
 30
0.0
 10
17.005209
 20
31.489980
 30
0.0
 10
16.887050
 20
31.527420
 30
0.0
 10
16.769010
 20
31.565250
 30
0.0
 10
16.651090
 20
31.603463
 30
0.0
 10
16.533291
 20
31.642065
 30
0.0
 10
16.415614
 20
31.681050
 30
0.0
 10
16.298059
 20
31.720425
 30
0.0
 10
16.180630
 20
31.760183
 30
0.0
 10
16.063324
 20
31.800323
 30
0.0
 10
15.946145
 20
31.840853
 30
0.0
 10
15.829091
 20
31.881765
 30
0.0
 10
15.712166
 20
31.923060
 30
0.0
 10
15.595370
 20
31.964737
 30
0.0
 10
15.478702
 20
32.006805
 30
0.0
 10
15.362165
 20
32.049255
 30
0.0
 10
15.245761
 20
32.092087
 30
0.0
 10
15.129488
 20
32.135302
 30
0.0
 10
15.013349
 20
32.178900
 30
0.0
 10
14.897344
 20
32.222880
 30
0.0
 10
14.781475
 20
32.267242
 30
0.0
 10
14.665742
 20
32.311987
 30
0.0
 10
14.550146
 20
32.357115
 30
0.0
 10
14.440957
 20
32.405842
 30
0.0
 10
14.332283
 20
32.455522
 30
0.0
 10
14.224128
 20
32.506147
 30
0.0
 10
14.116500
 20
32.557717
 30
0.0
 10
14.009401
 20
32.610225
 30
0.0
 10
13.902840
 20
32.663670
 30
0.0
 10
13.796820
 20
32.718045
 30
0.0
 10
13.691348
 20
32.773342
 30
0.0
 10
13.586428
 20
32.829555
 30
0.0
 10
13.482067
 20
32.886690
 30
0.0
 10
13.378270
 20
32.944732
 30
0.0
 10
13.275042
 20
33.003682
 30
0.0
 10
13.172389
 20
33.063532
 30
0.0
 10
13.070316
 20
33.124282
 30
0.0
 10
12.968829
 20
33.185917
 30
0.0
 10
12.867933
 20
33.248445
 30
0.0
 10
12.767634
 20
33.311850
 30
0.0
 10
12.667936
 20
33.376132
 30
0.0
 10
12.568847
 20
33.441292
 30
0.0
 10
12.470371
 20
33.507322
 30
0.0
 10
12.372514
 20
33.574215
 30
0.0
 10
12.275280
 20
33.641970
 30
0.0
 10
12.178676
 20
33.710580
 30
0.0
 10
12.082708
 20
33.780037
 30
0.0
 10
11.987380
 20
33.850335
 30
0.0
 10
11.892698
 20
33.921480
 30
0.0
 10
11.798667
 20
33.993457
 30
0.0
 10
11.705293
 20
34.066267
 30
0.0
 10
11.612582
 20
34.139902
 30
0.0
 10
11.520539
 20
34.214362
 30
0.0
 10
11.429169
 20
34.289640
 30
0.0
 10
11.338478
 20
34.365730
 30
0.0
 10
11.248472
 20
34.442628
 30
0.0
 10
11.159156
 20
34.520331
 30
0.0
 10
11.070534
 20
34.598832
 30
0.0
 10
10.982614
 20
34.678127
 30
0.0
 10
10.895400
 20
34.758213
 30
0.0
 10
10.808898
 20
34.839084
 30
0.0
 10
10.723113
 20
34.920735
 30
0.0
 10
10.638051
 20
35.003162
 30
0.0
 10
10.553718
 20
35.086361
 30
0.0
 10
10.470117
 20
35.170325
 30
0.0
 10
10.387257
 20
35.255053
 30
0.0
 10
10.305141
 20
35.340537
 30
0.0
 10
10.223775
 20
35.426774
 30
0.0
 10
10.143165
 20
35.513759
 30
0.0
 10
10.063315
 20
35.601488
 30
0.0
 10
9.984233
 20
35.689955
 30
0.0
 10
9.905922
 20
35.779156
 30
0.0
 10
9.828390
 20
35.869087
 30
0.0
 10
9.751640
 20
35.959742
 30
0.0
 10
9.675678
 20
36.051118
 30
0.0
 10
9.600511
 20
36.143209
 30
0.0
 10
9.526141
 20
36.236011
 30
0.0
 10
9.452581
 20
36.329520
 30
0.0
 10
9.379831
 20
36.423730
 30
0.0
 10
9.307899
 20
36.518638
 30
0.0
 10
9.236784
 20
36.614237
 30
0.0
 10
9.166494
 20
36.710524
 30
0.0
 10
9.097036
 20
36.807494
 30
0.0
 10
9.028419
 20
36.905143
 30
0.0
 10
8.960641
 20
37.003465
 30
0.0
 10
8.893719
 20
37.102457
 30
0.0
  0
ENDSEC
  0
SECTION
  2
OBJECTS
  0
DICTIONARY
  5
C
330
0
100
AcDbDictionary
  3
ACAD_GROUP
350
D
  3
ACAD_MLINESTYLE
350
17
  0
DICTIONARY
  5
D
330
C
100
AcDbDictionary
  0
DICTIONARY
  5
1A
330
C
100
AcDbDictionary
  0
DICTIONARY
  5
17
330
C
100
AcDbDictionary
  3
STANDARD
350
18
  0
DICTIONARY
  5
19
330
C
100
AcDbDictionary
  0
ENDSEC
  0
EOF
